Andika-BoldItalic.ufo
<glyph name="QuotMrk" format="1">
  <advance width="1065"/>
  <unicode hex="0022"/>
  <outline>
    <contour>
      <point x="648" y="1035" type="line" name="hr00"/>
      <point x="687" y="1174"/>
      <point x="726" y="1326"/>
      <point x="816" y="1569" type="curve"/>
      <point x="571" y="1569" type="line"/>
      <point x="541" y="1326"/>
      <point x="503" y="1174"/>
      <point x="473" y="1035" type="curve"/>
    </contour>
    <contour>
      <point x="1008" y="1035" type="line"/>
      <point x="1047" y="1174"/>
      <point x="1086" y="1326"/>
      <point x="1176" y="1569" type="curve"/>
      <point x="931" y="1569" type="line"/>
      <point x="901" y="1326"/>
      <point x="863" y="1174"/>
      <point x="833" y="1035" type="curve"/>
    </contour>
  </outline>
</glyph>
<glyph name="NumSgn" format="1">
  <advance width="1180"/>
  <unicode hex="0023"/>
  <outline>
    <contour>
      <point x="667" y="1346" type="line" name="hr00"/>
      <point x="16" y="99" type="line"/>
      <point x="256" y="99" type="line"/>
      <point x="907" y="1346" type="line"/>
    </contour>
    <contour>
      <point x="54" y="421" type="line"/>
      <point x="1145" y="421" type="line"/>
      <point x="1197" y="629" type="line"/>
      <point x="106" y="629" type="line"/>
    </contour>
    <contour>
      <point x="218" y="841" type="line"/>
      <point x="1309" y="841" type="line"/>
      <point x="1361" y="1049" type="line"/>
      <point x="270" y="1049" type="line"/>
    </contour>
    <contour>
      <point x="1142" y="1346" type="line"/>
      <point x="491" y="99" type="line"/>
      <point x="731" y="99" type="line"/>
      <point x="1382" y="1346" type="line"/>
    </contour>
  </outline>
</glyph>
<glyph name="DollarSgn" format="1">
  <advance width="1180"/>
  <unicode hex="0024"/>
  <outline>
    <contour>
      <point x="879" y="1584" type="line" name="hr00"/>
      <point x="679" y="780" type="line"/>
      <point x="634" y="719" type="line"/>
      <point x="400" y="-218" type="line"/>
      <point x="576" y="-218" type="line"/>
      <point x="795" y="661" type="line"/>
      <point x="842" y="727" type="line"/>
      <point x="1055" y="1584" type="line"/>
    </contour>
    <contour>
      <point x="1250" y="1303" type="line"/>
      <point x="1145" y="1355"/>
      <point x="1026" y="1375"/>
      <point x="885" y="1375" type="curve" smooth="yes"/>
      <point x="537" y="1375"/>
      <point x="345" y="1216"/>
      <point x="345" y="984" type="curve" smooth="yes"/>
      <point x="345" y="841"/>
      <point x="441" y="726"/>
      <point x="638" y="622" type="curve" smooth="yes"/>
      <point x="832" y="519"/>
      <point x="881" y="451"/>
      <point x="881" y="381" type="curve" smooth="yes"/>
      <point x="881" y="274"/>
      <point x="817" y="209"/>
      <point x="613" y="209" type="curve" smooth="yes"/>
      <point x="462" y="209"/>
      <point x="336" y="298"/>
      <point x="259" y="389" type="curve"/>
      <point x="133" y="143" type="line"/>
      <point x="243" y="56"/>
      <point x="378" y="0"/>
      <point x="566" y="0" type="curve" smooth="yes"/>
      <point x="879" y="0"/>
      <point x="1120" y="142"/>
      <point x="1120" y="396" type="curve" smooth="yes"/>
      <point x="1120" y="562"/>
      <point x="1028" y="682"/>
      <point x="817" y="803" type="curve" smooth="yes"/>
      <point x="635" y="908"/>
      <point x="592" y="958"/>
      <point x="592" y="1016" type="curve" smooth="yes"/>
      <point x="592" y="1113"/>
      <point x="649" y="1176"/>
      <point x="826" y="1176" type="curve" smooth="yes"/>
      <point x="954" y="1176"/>
      <point x="1048" y="1135"/>
      <point x="1134" y="1066" type="curve"/>
    </contour>
  </outline>
</glyph>
<glyph name="Apos" format="1">
  <advance width="605"/>
  <unicode hex="0027"/>
  <outline>
    <contour>
      <point x="598" y="1035" type="line" name="hr00"/>
      <point x="637" y="1174"/>
      <point x="676" y="1326"/>
      <point x="766" y="1569" type="curve"/>
      <point x="521" y="1569" type="line"/>
      <point x="491" y="1326"/>
      <point x="453" y="1174"/>
      <point x="423" y="1035" type="curve"/>
    </contour>
  </outline>
</glyph>
<glyph name="PlusSgn" format="2">
  <advance width="1180"/>
  <unicode hex="002B"/>
  <outline>
    <contour>
      <point x="722" y="1168" type="line"/>
      <point x="500" y="282" type="line" name="hr01"/>
      <point x="715" y="282" type="line"/>
      <point x="936" y="1168" type="line" name="hr02"/>
    </contour>
    <contour>
      <point x="250" y="624" type="line" name="hr03"/>
      <point x="1140" y="624" type="line" name="hr04"/>
      <point x="1192" y="832" type="line"/>
      <point x="302" y="832" type="line" name="hr05"/>
    </contour>
  </outline>
</glyph>
<glyph name="HyphenMinus" format="1">
  <advance width="875"/>
  <unicode hex="002D"/>
  <outline>
    <contour>
      <point x="149" y="520" type="line" name="hr00"/>
      <point x="884" y="520" type="line"/>
      <point x="936" y="728" type="line"/>
      <point x="201" y="728" type="line"/>
    </contour>
    <contour>
      <point x="665" y="1100" type="move" name="U"/>
    </contour>
  </outline>
</glyph>
<glyph name="FullStop" format="1">
  <advance width="690"/>
  <unicode hex="002E"/>
  <outline>
    <contour>
      <point x="171" y="116" type="curve" smooth="yes" name="hr00"/>
      <point x="171" y="35"/>
      <point x="232" y="-25"/>
      <point x="318" y="-25" type="curve" smooth="yes"/>
      <point x="436" y="-25"/>
      <point x="531" y="71"/>
      <point x="531" y="181" type="curve" smooth="yes"/>
      <point x="531" y="261"/>
      <point x="472" y="322"/>
      <point x="385" y="322" type="curve" smooth="yes"/>
      <point x="268" y="322"/>
      <point x="171" y="226"/>
    </contour>
  </outline>
</glyph>
<glyph name="Solidus" format="1">
  <advance width="1060"/>
  <unicode hex="002F"/>
  <outline>
    <contour>
      <point x="1164" y="1584" type="line" name="hr00"/>
      <point x="-120" y="-243" type="line"/>
      <point x="129" y="-243" type="line"/>
      <point x="1414" y="1584" type="line"/>
    </contour>
  </outline>
</glyph>
<glyph name="DigitZero" format="1">
  <advance width="1180"/>
  <unicode hex="0030"/>
  <outline>
    <contour>
      <point x="959" y="683" type="curve" smooth="yes" name="hr00"/>
      <point x="873" y="339"/>
      <point x="762" y="203"/>
      <point x="600" y="203" type="curve" smooth="yes"/>
      <point x="469" y="203"/>
      <point x="432" y="294"/>
      <point x="432" y="454" type="curve" smooth="yes"/>
      <point x="432" y="537"/>
      <point x="447" y="630"/>
      <point x="478" y="755" type="curve" smooth="yes"/>
      <point x="564" y="1099"/>
      <point x="676" y="1242"/>
      <point x="839" y="1242" type="curve" smooth="yes"/>
      <point x="971" y="1242"/>
      <point x="1010" y="1140"/>
      <point x="1010" y="992" type="curve" smooth="yes"/>
      <point x="1010" y="907"/>
      <point x="991" y="811"/>
    </contour>
    <contour>
      <point x="1246" y="689" type="curve" smooth="yes"/>
      <point x="1281" y="828"/>
      <point x="1298" y="927"/>
      <point x="1298" y="1028" type="curve" smooth="yes"/>
      <point x="1298" y="1317"/>
      <point x="1158" y="1470"/>
      <point x="906" y="1470" type="curve" smooth="yes"/>
      <point x="587" y="1470"/>
      <point x="329" y="1302"/>
      <point x="190" y="745" type="curve" smooth="yes"/>
      <point x="157" y="611"/>
      <point x="141" y="516"/>
      <point x="141" y="420" type="curve" smooth="yes"/>
      <point x="141" y="131"/>
      <point x="292" y="-25"/>
      <point x="533" y="-25" type="curve" smooth="yes"/>
      <point x="854" y="-25"/>
      <point x="1103" y="115"/>
    </contour>
    <contour>
      <point x="520" y="-100" type="move" name="L"/>
    </contour>
    <contour>
      <point x="927" y="1530" type="move" name="U"/>
    </contour>
  </outline>
</glyph>
<glyph name="DigitOne" format="1">
  <advance width="1180"/>
  <unicode hex="0031"/>
  <outline>
    <contour>
      <point x="490" y="233" type="line" name="hr00"/>
      <point x="183" y="233" type="line"/>
      <point x="125" y="0" type="line"/>
      <point x="1015" y="0" type="line"/>
      <point x="1073" y="233" type="line"/>
      <point x="765" y="233" type="line"/>
      <point x="1067" y="1445" type="line"/>
      <point x="792" y="1445" type="line"/>
      <point x="432" y="1265" type="line"/>
      <point x="403" y="1008" type="line"/>
      <point x="720" y="1158" type="line"/>
    </contour>
    <contour>
      <point x="515" y="-100" type="move" name="L"/>
    </contour>
    <contour>
      <point x="922" y="1530" type="move" name="U"/>
    </contour>
  </outline>
</glyph>
<glyph name="DigitTwo" format="1">
  <advance width="1180"/>
  <unicode hex="0032"/>
  <outline>
    <contour>
      <point x="1094" y="257" type="line" name="hr00"/>
      <point x="1010" y="244"/>
      <point x="942" y="243"/>
      <point x="745" y="243" type="curve" smooth="yes"/>
      <point x="480" y="243" type="line"/>
      <point x="875" y="492"/>
      <point x="1255" y="786"/>
      <point x="1255" y="1125" type="curve" smooth="yes"/>
      <point x="1255" y="1324"/>
      <point x="1106" y="1470"/>
      <point x="846" y="1470" type="curve" smooth="yes"/>
      <point x="667" y="1470"/>
      <point x="472" y="1388"/>
      <point x="363" y="1277" type="curve"/>
      <point x="374" y="1039" type="line"/>
      <point x="489" y="1146"/>
      <point x="646" y="1223"/>
      <point x="762" y="1223" type="curve" smooth="yes"/>
      <point x="890" y="1223"/>
      <point x="949" y="1138"/>
      <point x="949" y="1040" type="curve" smooth="yes"/>
      <point x="949" y="805"/>
      <point x="500" y="440"/>
      <point x="104" y="218" type="curve"/>
      <point x="50" y="0" type="line"/>
      <point x="1030" y="0" type="line"/>
    </contour>
    <contour>
      <point x="515" y="-100" type="move" name="L"/>
    </contour>
    <contour>
      <point x="882" y="1530" type="move" name="U"/>
    </contour>
  </outline>
</glyph>
<glyph name="DigitFour" format="1">
  <advance width="1180"/>
  <unicode hex="0034"/>
  <outline>
    <contour>
      <point x="1180" y="342" type="line" name="hr00"/>
      <point x="1235" y="564" type="line"/>
      <point x="1075" y="564" type="line"/>
      <point x="1295" y="1445" type="line"/>
      <point x="945" y="1445" type="line"/>
      <point x="115" y="564" type="line"/>
      <point x="65" y="342" type="line"/>
      <point x="755" y="342" type="line"/>
      <point x="670" y="0" type="line"/>
      <point x="935" y="0" type="line"/>
      <point x="1020" y="342" type="line"/>
    </contour>
    <contour>
      <point x="954" y="1143" type="line"/>
      <point x="810" y="564" type="line"/>
      <point x="385" y="564" type="line"/>
    </contour>
    <contour>
      <point x="520" y="-100" type="move" name="L"/>
    </contour>
    <contour>
      <point x="930" y="1530" type="move" name="U"/>
    </contour>
  </outline>
</glyph>
<glyph name="DigitFive" format="1">
  <advance width="1180"/>
  <unicode hex="0035"/>
  <outline>
    <contour>
      <point x="1330" y="1445" type="line" name="hr00"/>
      <point x="475" y="1445" type="line"/>
      <point x="274" y="639" type="line"/>
      <point x="410" y="686"/>
      <point x="519" y="703"/>
      <point x="625" y="703" type="curve" smooth="yes"/>
      <point x="763" y="703"/>
      <point x="867" y="630"/>
      <point x="867" y="507" type="curve" smooth="yes"/>
      <point x="867" y="318"/>
      <point x="680" y="213"/>
      <point x="503" y="213" type="curve" smooth="yes"/>
      <point x="363" y="213"/>
      <point x="255" y="260"/>
      <point x="168" y="356" type="curve"/>
      <point x="59" y="79" type="line"/>
      <point x="165" y="2"/>
      <point x="308" y="-25"/>
      <point x="483" y="-25" type="curve" smooth="yes"/>
      <point x="841" y="-25"/>
      <point x="1155" y="204"/>
      <point x="1155" y="564" type="curve" smooth="yes"/>
      <point x="1155" y="774"/>
      <point x="1007" y="921"/>
      <point x="774" y="921" type="curve" smooth="yes"/>
      <point x="712" y="921"/>
      <point x="632" y="902"/>
      <point x="595" y="886" type="curve"/>
      <point x="674" y="1203" type="line"/>
      <point x="1004" y="1203" type="line" smooth="yes"/>
      <point x="1088" y="1203"/>
      <point x="1193" y="1199"/>
      <point x="1264" y="1183" type="curve"/>
    </contour>
    <contour>
      <point x="515" y="-100" type="move" name="L"/>
    </contour>
    <contour>
      <point x="922" y="1530" type="move" name="U"/>
    </contour>
  </outline>
</glyph>
<glyph name="DigitSeven" format="1">
  <advance width="1180"/>
  <unicode hex="0037"/>
  <outline>
    <contour>
      <point x="480" y="0" type="line" name="hr00"/>
      <point x="722" y="454"/>
      <point x="1004" y="846"/>
      <point x="1400" y="1247" type="curve"/>
      <point x="1450" y="1445" type="line"/>
      <point x="390" y="1445" type="line"/>
      <point x="324" y="1178" type="line"/>
      <point x="404" y="1194"/>
      <point x="521" y="1198"/>
      <point x="709" y="1198" type="curve" smooth="yes"/>
      <point x="1039" y="1198" type="line"/>
      <point x="689" y="829"/>
      <point x="488" y="560"/>
      <point x="175" y="0" type="curve"/>
    </contour>
    <contour>
      <point x="515" y="-100" type="move" name="L"/>
    </contour>
    <contour>
      <point x="922" y="1530" type="move" name="U"/>
    </contour>
  </outline>
</glyph>
<glyph name="DigitNine" format="1">
  <advance width="1180"/>
  <unicode hex="0039"/>
  <outline>
    <contour>
      <point x="119" y="84" type="line" name="hr00"/>
      <point x="199" y="25"/>
      <point x="327" y="-25"/>
      <point x="455" y="-25" type="curve" smooth="yes"/>
      <point x="979" y="-25"/>
      <point x="1289" y="533"/>
      <point x="1289" y="979" type="curve" smooth="yes"/>
      <point x="1289" y="1248"/>
      <point x="1164" y="1470"/>
      <point x="833" y="1470" type="curve" smooth="yes"/>
      <point x="554" y="1470"/>
      <point x="255" y="1239"/>
      <point x="255" y="932" type="curve" smooth="yes"/>
      <point x="255" y="736"/>
      <point x="399" y="570"/>
      <point x="644" y="570" type="curve" smooth="yes"/>
      <point x="833" y="570"/>
      <point x="1027" y="700"/>
      <point x="1164" y="859" type="curve"/>
      <point x="1123" y="981" type="line"/>
      <point x="1021" y="868"/>
      <point x="863" y="782"/>
      <point x="728" y="782" type="curve" smooth="yes"/>
      <point x="589" y="782"/>
      <point x="519" y="845"/>
      <point x="519" y="955" type="curve" smooth="yes"/>
      <point x="519" y="1133"/>
      <point x="653" y="1237"/>
      <point x="801" y="1237" type="curve" smooth="yes"/>
      <point x="951" y="1237"/>
      <point x="1029" y="1136"/>
      <point x="1029" y="965" type="curve" smooth="yes"/>
      <point x="1029" y="476"/>
      <point x="710" y="208"/>
      <point x="513" y="208" type="curve" smooth="yes"/>
      <point x="417" y="208"/>
      <point x="301" y="252"/>
      <point x="237" y="337" type="curve"/>
    </contour>
    <contour>
      <point x="515" y="-100" type="move" name="L"/>
    </contour>
    <contour>
      <point x="922" y="1530" type="move" name="U"/>
    </contour>
  </outline>
</glyph>
<glyph name="Colon" format="1">
  <advance width="690"/>
  <unicode hex="003A"/>
  <outline>
    <contour>
      <point x="171" y="116" type="curve" smooth="yes" name="hr00"/>
      <point x="171" y="35"/>
      <point x="232" y="-25"/>
      <point x="318" y="-25" type="curve" smooth="yes"/>
      <point x="436" y="-25"/>
      <point x="531" y="71"/>
      <point x="531" y="181" type="curve" smooth="yes"/>
      <point x="531" y="261"/>
      <point x="472" y="322"/>
      <point x="385" y="322" type="curve" smooth="yes"/>
      <point x="268" y="322"/>
      <point x="171" y="226"/>
    </contour>
    <contour>
      <point x="319" y="710" type="curve" smooth="yes"/>
      <point x="319" y="629"/>
      <point x="380" y="569"/>
      <point x="466" y="569" type="curve" smooth="yes"/>
      <point x="584" y="569"/>
      <point x="679" y="665"/>
      <point x="679" y="775" type="curve" smooth="yes"/>
      <point x="679" y="855"/>
      <point x="620" y="916"/>
      <point x="533" y="916" type="curve" smooth="yes"/>
      <point x="416" y="916"/>
      <point x="319" y="820"/>
    </contour>
  </outline>
</glyph>
<glyph name="Semicolon" format="1">
  <advance width="690"/>
  <unicode hex="003B"/>
  <outline>
    <contour>
      <point x="137" y="49" type="line" name="hr00"/>
      <point x="297" y="49" type="line"/>
      <point x="276" y="-34"/>
      <point x="192" y="-151"/>
      <point x="59" y="-262" type="curve"/>
      <point x="187" y="-332" type="line"/>
      <point x="337" y="-222"/>
      <point x="539" y="-11"/>
      <point x="539" y="165" type="curve" smooth="yes"/>
      <point x="539" y="262"/>
      <point x="495" y="337"/>
      <point x="379" y="337" type="curve" smooth="yes"/>
      <point x="266" y="337"/>
      <point x="187" y="252"/>
      <point x="169" y="178" type="curve" smooth="yes"/>
    </contour>
    <contour>
      <point x="319" y="710" type="curve" smooth="yes"/>
      <point x="319" y="629"/>
      <point x="380" y="569"/>
      <point x="466" y="569" type="curve" smooth="yes"/>
      <point x="584" y="569"/>
      <point x="679" y="665"/>
      <point x="679" y="775" type="curve" smooth="yes"/>
      <point x="679" y="855"/>
      <point x="620" y="916"/>
      <point x="533" y="916" type="curve" smooth="yes"/>
      <point x="416" y="916"/>
      <point x="319" y="820"/>
    </contour>
  </outline>
</glyph>
<glyph name="LTSgn" format="1">
  <advance width="1180"/>
  <unicode hex="003C"/>
  <outline>
    <contour>
      <point x="1127" y="470" type="line" name="hr00"/>
      <point x="510" y="713" type="line"/>
      <point x="1253" y="975" type="line"/>
      <point x="1309" y="1203" type="line"/>
      <point x="253" y="817" type="line"/>
      <point x="206" y="629" type="line"/>
      <point x="1070" y="243" type="line"/>
    </contour>
  </outline>
</glyph>
<glyph name="EqSgn" format="1">
  <advance width="1180"/>
  <unicode hex="003D"/>
  <outline>
    <contour>
      <point x="168" y="436" type="line" name="hr00"/>
      <point x="1128" y="436" type="line"/>
      <point x="1180" y="643" type="line"/>
      <point x="220" y="643" type="line"/>
    </contour>
    <contour>
      <point x="259" y="802" type="line"/>
      <point x="1219" y="802" type="line"/>
      <point x="1271" y="1010" type="line"/>
      <point x="311" y="1010" type="line"/>
    </contour>
  </outline>
</glyph>
<glyph name="GTSgn" format="1">
  <advance width="1180"/>
  <unicode hex="003E"/>
  <outline>
    <contour>
      <point x="130" y="243" type="line" name="hr00"/>
      <point x="1186" y="629" type="line"/>
      <point x="1233" y="817" type="line"/>
      <point x="369" y="1203" type="line"/>
      <point x="313" y="975" type="line"/>
      <point x="930" y="733" type="line"/>
      <point x="187" y="470" type="line"/>
    </contour>
  </outline>
</glyph>
<glyph name="LtnCapA" format="1">
  <advance width="1465"/>
  <unicode hex="0041"/>
  <outline>
    <contour>
      <point x="1055" y="0" type="line" name="hr00"/>
      <point x="1338" y="0" type="line"/>
      <point x="1322" y="79"/>
      <point x="1312" y="166"/>
      <point x="1295" y="351" type="curve" smooth="yes"/>
      <point x="1198" y="1445" type="line"/>
      <point x="842" y="1445" type="line"/>
      <point x="199" y="351" type="line" smooth="yes"/>
      <point x="89" y="164"/>
      <point x="37" y="80"/>
      <point x="-18" y="0" type="curve"/>
      <point x="290" y="0" type="line"/>
      <point x="487" y="351" type="line"/>
      <point x="1031" y="351" type="line"/>
    </contour>
    <contour>
      <point x="973" y="1216" type="line"/>
      <point x="1016" y="564" type="line"/>
      <point x="606" y="564" type="line"/>
    </contour>
    <contour>
      <point x="1215" y="0" type="move" name="H"/>
    </contour>
    <contour>
      <point x="650" y="-100" type="move" name="L"/>
    </contour>
    <contour>
      <point x="1435" y="0" type="move" name="O"/>
    </contour>
    <contour>
      <point x="1055" y="1530" type="move" name="U"/>
    </contour>
  </outline>
</glyph>
<glyph name="LtnCapB" format="1">
  <advance width="1367"/>
  <unicode hex="0042"/>
  <outline>
    <contour>
      <point x="698" y="1236" type="line" name="hr00"/>
      <point x="735" y="1237"/>
      <point x="791" y="1240"/>
      <point x="860" y="1240" type="curve" smooth="yes"/>
      <point x="1021" y="1240"/>
      <point x="1101" y="1179"/>
      <point x="1101" y="1087" type="curve" smooth="yes"/>
      <point x="1101" y="932"/>
      <point x="962" y="866"/>
      <point x="770" y="866" type="curve" smooth="yes"/>
      <point x="605" y="866" type="line"/>
    </contour>
    <contour>
      <point x="217" y="450" type="line"/>
      <point x="168" y="254"/>
      <point x="124" y="79"/>
      <point x="90" y="0" type="curve"/>
      <point x="161" y="-3"/>
      <point x="368" y="-10"/>
      <point x="598" y="-10" type="curve" smooth="yes"/>
      <point x="1055" y="-10"/>
      <point x="1298" y="206"/>
      <point x="1298" y="508" type="curve" smooth="yes"/>
      <point x="1298" y="673"/>
      <point x="1188" y="759"/>
      <point x="1072" y="792" type="curve"/>
      <point x="1254" y="848"/>
      <point x="1388" y="956"/>
      <point x="1388" y="1155" type="curve" smooth="yes"/>
      <point x="1388" y="1359"/>
      <point x="1181" y="1455"/>
      <point x="897" y="1455" type="curve" smooth="yes"/>
      <point x="704" y="1455"/>
      <point x="549" y="1451"/>
      <point x="450" y="1445" type="curve"/>
      <point x="445" y="1366"/>
      <point x="399" y="1182"/>
      <point x="351" y="990" type="curve" smooth="yes"/>
    </contour>
    <contour>
      <point x="552" y="651" type="line"/>
      <point x="745" y="651" type="line" smooth="yes"/>
      <point x="927" y="651"/>
      <point x="1019" y="577"/>
      <point x="1019" y="468" type="curve" smooth="yes"/>
      <point x="1019" y="295"/>
      <point x="879" y="213"/>
      <point x="675" y="213" type="curve" smooth="yes"/>
      <point x="575" y="213"/>
      <point x="476" y="216"/>
      <point x="444" y="218" type="curve"/>
    </contour>
    <contour>
      <point x="585" y="-100" type="move" name="L"/>
    </contour>
    <contour>
      <point x="950" y="1530" type="move" name="U"/>
    </contour>
  </outline>
</glyph>
<glyph name="LtnCapC" format="1">
  <advance width="1357"/>
  <unicode hex="0043"/>
  <outline>
    <contour>
      <point x="1286" y="391" type="line" name="hr00"/>
      <point x="1149" y="280"/>
      <point x="966" y="218"/>
      <point x="816" y="218" type="curve" smooth="yes"/>
      <point x="594" y="218"/>
      <point x="472" y="349"/>
      <point x="472" y="588" type="curve" smooth="yes"/>
      <point x="472" y="922"/>
      <point x="690" y="1230"/>
      <point x="1039" y="1230" type="curve" smooth="yes"/>
      <point x="1170" y="1230"/>
      <point x="1298" y="1188"/>
      <point x="1385" y="1093" type="curve"/>
      <point x="1515" y="1331" type="line"/>
      <point x="1408" y="1418"/>
      <point x="1247" y="1470"/>
      <point x="1073" y="1470" type="curve" smooth="yes"/>
      <point x="545" y="1470"/>
      <point x="191" y="1032"/>
      <point x="191" y="544" type="curve" smooth="yes"/>
      <point x="191" y="210"/>
      <point x="404" y="-25"/>
      <point x="750" y="-25" type="curve" smooth="yes"/>
      <point x="921" y="-25"/>
      <point x="1124" y="27"/>
      <point x="1271" y="124" type="curve"/>
    </contour>
    <contour>
      <point x="685" y="0" type="move" name="H"/>
    </contour>
    <contour>
      <point x="690" y="-100" type="move" name="L"/>
    </contour>
    <contour>
      <point x="1070" y="1530" type="move" name="U"/>
    </contour>
  </outline>
</glyph>
<glyph name="LtnCapD" format="1">
  <advance width="1465"/>
  <unicode hex="0044"/>
  <outline>
    <contour>
      <point x="217" y="450" type="line" smooth="yes" name="hr00"/>
      <point x="167" y="251"/>
      <point x="124" y="79"/>
      <point x="90" y="0" type="curve"/>
      <point x="90" y="0"/>
      <point x="431" y="-10"/>
      <point x="566" y="-10" type="curve" smooth="yes"/>
      <point x="1036" y="-10"/>
      <point x="1361" y="195"/>
      <point x="1471" y="648" type="curve" smooth="yes"/>
      <point x="1494" y="742"/>
      <point x="1505" y="827"/>
      <point x="1505" y="902" type="curve" smooth="yes"/>
      <point x="1505" y="1325"/>
      <point x="1172" y="1455"/>
      <point x="912" y="1455" type="curve" smooth="yes"/>
      <point x="769" y="1455"/>
      <point x="540" y="1451"/>
      <point x="450" y="1445" type="curve"/>
      <point x="445" y="1371"/>
      <point x="404" y="1205"/>
      <point x="359" y="1024" type="curve" smooth="yes"/>
    </contour>
    <contour>
      <point x="696" y="1229" type="line"/>
      <point x="738" y="1231"/>
      <point x="809" y="1234"/>
      <point x="864" y="1234" type="curve" smooth="yes"/>
      <point x="1077" y="1234"/>
      <point x="1212" y="1104"/>
      <point x="1212" y="871" type="curve" smooth="yes"/>
      <point x="1212" y="805"/>
      <point x="1201" y="731"/>
      <point x="1181" y="647" type="curve" smooth="yes"/>
      <point x="1108" y="346"/>
      <point x="930" y="219"/>
      <point x="647" y="219" type="curve" smooth="yes"/>
      <point x="568" y="219"/>
      <point x="485" y="225"/>
      <point x="447" y="229" type="curve"/>
    </contour>
    <contour>
      <point x="690" y="-100" type="move" name="L"/>
    </contour>
    <contour>
      <point x="1120" y="1530" type="move" name="U"/>
    </contour>
  </outline>
</glyph>
<glyph name="LtnCapE" format="1">
  <advance width="1192"/>
  <unicode hex="0045"/>
  <outline>
    <contour>
      <point x="605" y="866" type="line" name="hr00"/>
      <point x="693" y="1217" type="line"/>
      <point x="1315" y="1217" type="line"/>
      <point x="1372" y="1445" type="line"/>
      <point x="450" y="1445" type="line"/>
      <point x="444" y="1366"/>
      <point x="406" y="1210"/>
      <point x="358" y="1015" type="curve" smooth="yes"/>
      <point x="212" y="431" type="line" smooth="yes"/>
      <point x="163" y="236"/>
      <point x="123" y="79"/>
      <point x="90" y="0" type="curve"/>
      <point x="1042" y="0" type="line"/>
      <point x="1102" y="243" type="line"/>
      <point x="1021" y="229"/>
      <point x="895" y="228"/>
      <point x="704" y="228" type="curve" smooth="yes"/>
      <point x="446" y="228" type="line"/>
      <point x="550" y="644" type="line"/>
      <point x="1097" y="644" type="line"/>
      <point x="1152" y="866" type="line"/>
    </contour>
    <contour>
      <point x="550" y="0" type="move" name="H"/>
    </contour>
    <contour>
      <point x="525" y="-100" type="move" name="L"/>
    </contour>
    <contour>
      <point x="944" y="0" type="move" name="O"/>
    </contour>
    <contour>
      <point x="1487" y="1200" type="move" name="R"/>
    </contour>
    <contour>
      <point x="932" y="1530" type="move" name="U"/>
    </contour>
  </outline>
</glyph>
<glyph name="LtnCapF" format="1">
  <advance width="1180"/>
  <unicode hex="0046"/>
  <outline>
    <contour>
      <point x="602" y="851" type="line" name="hr00"/>
      <point x="693" y="1217" type="line"/>
      <point x="1333" y="1217" type="line"/>
      <point x="1390" y="1445" type="line"/>
      <point x="450" y="1445" type="line"/>
      <point x="445" y="1366"/>
      <point x="405" y="1205"/>
      <point x="356" y="1010" type="curve" smooth="yes"/>
      <point x="212" y="431" type="line" smooth="yes"/>
      <point x="163" y="236"/>
      <point x="123" y="79"/>
      <point x="90" y="0" type="curve"/>
      <point x="405" y="0" type="line"/>
      <point x="407" y="72"/>
      <point x="444" y="220"/>
      <point x="490" y="404" type="curve" smooth="yes"/>
      <point x="546" y="629" type="line"/>
      <point x="1101" y="629" type="line"/>
      <point x="1157" y="851" type="line"/>
    </contour>
    <contour>
      <point x="545" y="-100" type="move" name="L"/>
    </contour>
    <contour>
      <point x="952" y="1530" type="move" name="U"/>
    </contour>
  </outline>
</glyph>
<glyph name="LtnCapH" format="1">
  <advance width="1495"/>
  <unicode hex="0048"/>
  <outline>
    <contour>
      <point x="1340" y="1445" type="line" name="hr00"/>
      <point x="1192" y="851" type="line"/>
      <point x="602" y="851" type="line"/>
      <point x="750" y="1445" type="line"/>
      <point x="450" y="1445" type="line"/>
      <point x="445" y="1366"/>
      <point x="408" y="1215"/>
      <point x="359" y="1020" type="curve" smooth="yes"/>
      <point x="211" y="426" type="line" smooth="yes"/>
      <point x="162" y="231"/>
      <point x="124" y="79"/>
      <point x="90" y="0" type="curve"/>
      <point x="90" y="0"/>
      <point x="390" y="0"/>
      <point x="390" y="0" type="curve"/>
      <point x="546" y="629" type="line"/>
      <point x="1136" y="629" type="line"/>
      <point x="980" y="0" type="line"/>
      <point x="980" y="0"/>
      <point x="1280" y="0"/>
      <point x="1280" y="0" type="curve"/>
      <point x="1284" y="79"/>
      <point x="1322" y="231"/>
      <point x="1371" y="426" type="curve" smooth="yes"/>
      <point x="1519" y="1020" type="line" smooth="yes"/>
      <point x="1567" y="1215"/>
      <point x="1605" y="1366"/>
      <point x="1640" y="1445" type="curve"/>
    </contour>
    <contour>
      <point x="245" y="0" type="move" name="H"/>
    </contour>
    <contour>
      <point x="660" y="-100" type="move" name="L"/>
    </contour>
    <contour>
      <point x="1067" y="1530" type="move" name="U"/>
    </contour>
  </outline>
</glyph>
<glyph name="LtnCapI" format="1">
  <advance width="1025"/>
  <unicode hex="0049"/>
  <outline>
    <contour>
      <point x="430" y="1445" type="line" name="hr00"/>
      <point x="379" y="1242" type="line"/>
      <point x="619" y="1242" type="line"/>
      <point x="360" y="203" type="line"/>
      <point x="120" y="203" type="line"/>
      <point x="70" y="0" type="line"/>
      <point x="835" y="0" type="line"/>
      <point x="885" y="203" type="line"/>
      <point x="645" y="203" type="line"/>
      <point x="904" y="1242" type="line"/>
      <point x="1144" y="1242" type="line"/>
      <point x="1195" y="1445" type="line"/>
    </contour>
    <contour>
      <point x="460" y="0" type="move" name="H"/>
    </contour>
    <contour>
      <point x="430" y="-100" type="move" name="L"/>
    </contour>
    <contour>
      <point x="650" y="0" type="move" name="O"/>
    </contour>
    <contour>
      <point x="1255" y="1200" type="move" name="R"/>
    </contour>
    <contour>
      <point x="840" y="1530" type="move" name="U"/>
    </contour>
  </outline>
</glyph>
<glyph name="LtnCapM" format="1">
  <advance width="1835"/>
  <unicode hex="004D"/>
  <outline>
    <contour>
      <point x="919" y="272" type="line" name="hr00"/>
      <point x="865" y="1445" type="line"/>
      <point x="615" y="1445" type="line"/>
      <point x="664" y="1158" type="line"/>
      <point x="710" y="0" type="line"/>
      <point x="1005" y="0" type="line"/>
      <point x="1625" y="1158" type="line"/>
      <point x="1817" y="1445" type="line"/>
      <point x="1550" y="1445" type="line"/>
    </contour>
    <contour>
      <point x="520" y="1445" type="line"/>
      <point x="520" y="1445"/>
      <point x="164" y="196"/>
      <point x="90" y="0" type="curve"/>
      <point x="360" y="0" type="line"/>
      <point x="686" y="1193" type="line"/>
      <point x="785" y="1445" type="line"/>
    </contour>
    <contour>
      <point x="1630" y="0" type="line"/>
      <point x="1649" y="196"/>
      <point x="1910" y="1445"/>
      <point x="1910" y="1445" type="curve"/>
      <point x="1640" y="1445" type="line"/>
      <point x="1622" y="1193" type="line"/>
      <point x="1360" y="0" type="line"/>
    </contour>
    <contour>
      <point x="830" y="-100" type="move" name="L"/>
    </contour>
    <contour>
      <point x="1235" y="1530" type="move" name="U"/>
    </contour>
  </outline>
</glyph>
<glyph name="LtnCapN" format="1">
  <advance width="1525"/>
  <unicode hex="004E"/>
  <outline>
    <contour>
      <point x="506" y="1297" type="line" name="hr00"/>
      <point x="1035" y="0" type="line"/>
      <point x="1253" y="148" type="line"/>
      <point x="725" y="1445" type="line"/>
    </contour>
    <contour>
      <point x="1035" y="0" type="line"/>
      <point x="1305" y="0" type="line"/>
      <point x="1558" y="1015" type="line" smooth="yes"/>
      <point x="1606" y="1210"/>
      <point x="1646" y="1366"/>
      <point x="1680" y="1445" type="curve"/>
      <point x="1395" y="1445" type="line"/>
    </contour>
    <contour>
      <point x="725" y="1445" type="line"/>
      <point x="440" y="1445" type="line"/>
      <point x="434" y="1366"/>
      <point x="396" y="1210"/>
      <point x="348" y="1015" type="curve" smooth="yes"/>
      <point x="202" y="431" type="line" smooth="yes"/>
      <point x="153" y="236"/>
      <point x="113" y="79"/>
      <point x="80" y="0" type="curve"/>
      <point x="365" y="0" type="line"/>
    </contour>
    <contour>
      <point x="1180" y="0" type="move" name="H"/>
    </contour>
    <contour>
      <point x="680" y="-100" type="move" name="L"/>
    </contour>
    <contour>
      <point x="1087" y="1530" type="move" name="U"/>
    </contour>
  </outline>
</glyph>
<glyph name="LtnCapO" format="1">
  <advance width="1480"/>
  <unicode hex="004F"/>
  <outline>
    <contour>
      <point x="754" y="218" type="curve" smooth="yes" name="hr00"/>
      <point x="580" y="218"/>
      <point x="471" y="345"/>
      <point x="471" y="568" type="curve" smooth="yes"/>
      <point x="471" y="922"/>
      <point x="664" y="1228"/>
      <point x="966" y="1228" type="curve" smooth="yes"/>
      <point x="1134" y="1228"/>
      <point x="1237" y="1106"/>
      <point x="1237" y="891" type="curve" smooth="yes"/>
      <point x="1237" y="540"/>
      <point x="1060" y="218"/>
    </contour>
    <contour>
      <point x="1519" y="911" type="curve" smooth="yes"/>
      <point x="1519" y="1249"/>
      <point x="1350" y="1470"/>
      <point x="1026" y="1470" type="curve" smooth="yes"/>
      <point x="510" y="1470"/>
      <point x="191" y="1010"/>
      <point x="191" y="539" type="curve" smooth="yes"/>
      <point x="191" y="199"/>
      <point x="401" y="-25"/>
      <point x="693" y="-25" type="curve" smooth="yes"/>
      <point x="1121" y="-25"/>
      <point x="1519" y="337"/>
    </contour>
    <contour>
      <point x="680" y="0" type="move" name="H"/>
    </contour>
    <contour>
      <point x="655" y="-100" type="move" name="L"/>
    </contour>
    <contour>
      <point x="916" y="0" type="move" name="O"/>
    </contour>
    <contour>
      <point x="1720" y="1200" type="move" name="R"/>
    </contour>
    <contour>
      <point x="1065" y="1530" type="move" name="U"/>
    </contour>
  </outline>
</glyph>
<glyph name="LtnCapP" format="1">
  <advance width="1255"/>
  <unicode hex="0050"/>
  <outline>
    <contour>
      <point x="519" y="518" type="line" name="hr00"/>
      <point x="582" y="511"/>
      <point x="661" y="508"/>
      <point x="734" y="508" type="curve" smooth="yes"/>
      <point x="1118" y="508"/>
      <point x="1393" y="718"/>
      <point x="1393" y="1076" type="curve" smooth="yes"/>
      <point x="1393" y="1306"/>
      <point x="1215" y="1455"/>
      <point x="940" y="1455" type="curve" smooth="yes"/>
      <point x="727" y="1455"/>
      <point x="450" y="1445"/>
      <point x="450" y="1445" type="curve"/>
      <point x="445" y="1366"/>
      <point x="400" y="1184"/>
      <point x="351" y="990" type="curve" smooth="yes"/>
      <point x="212" y="431" type="line" smooth="yes"/>
      <point x="164" y="237"/>
      <point x="124" y="79"/>
      <point x="90" y="0" type="curve"/>
      <point x="405" y="0" type="line"/>
      <point x="410" y="77"/>
      <point x="448" y="235"/>
      <point x="497" y="431" type="curve" smooth="yes"/>
    </contour>
    <contour>
      <point x="696" y="1228" type="line"/>
      <point x="752" y="1231"/>
      <point x="781" y="1233"/>
      <point x="849" y="1233" type="curve" smooth="yes"/>
      <point x="1020" y="1233"/>
      <point x="1103" y="1135"/>
      <point x="1103" y="1020" type="curve" smooth="yes"/>
      <point x="1103" y="827"/>
      <point x="965" y="723"/>
      <point x="758" y="723" type="curve" smooth="yes"/>
      <point x="696" y="723"/>
      <point x="614" y="726"/>
      <point x="572" y="733" type="curve"/>
    </contour>
    <contour>
      <point x="600" y="-100" type="move" name="L"/>
    </contour>
    <contour>
      <point x="970" y="1530" type="move" name="U"/>
    </contour>
  </outline>
</glyph>
<glyph name="LtnCapQ" format="1">
  <advance width="1488"/>
  <unicode hex="0051"/>
  <outline>
    <contour>
      <point x="1527" y="922" type="curve" smooth="yes"/>
      <point x="1527" y="1259"/>
      <point x="1324" y="1470"/>
      <point x="1029" y="1470" type="curve" smooth="yes"/>
      <point x="663" y="1470"/>
      <point x="339" y="1229"/>
      <point x="221" y="755" type="curve" smooth="yes"/>
      <point x="201" y="673"/>
      <point x="191" y="597"/>
      <point x="191" y="526" type="curve" smooth="yes"/>
      <point x="191" y="185"/>
      <point x="410" y="-25"/>
      <point x="696" y="-25" type="curve" smooth="yes" name="hr01"/>
      <point x="743" y="-25"/>
      <point x="787" y="-23"/>
      <point x="838" y="-15" type="curve"/>
      <point x="907" y="-15"/>
      <point x="1162" y="-221"/>
      <point x="1246" y="-221" type="curve" smooth="yes"/>
      <point x="1310" y="-221"/>
      <point x="1422" y="-74"/>
      <point x="1468" y="-22" type="curve"/>
      <point x="1331" y="-6"/>
      <point x="1227" y="60"/>
      <point x="1115" y="134" type="curve"/>
      <point x="1312" y="242"/>
      <point x="1527" y="566"/>
    </contour>
    <contour>
      <point x="757" y="218" type="curve" smooth="yes"/>
      <point x="563" y="218"/>
      <point x="471" y="355"/>
      <point x="471" y="558" type="curve" smooth="yes"/>
      <point x="471" y="912"/>
      <point x="677" y="1228"/>
      <point x="969" y="1228" type="curve" smooth="yes"/>
      <point x="1147" y="1228"/>
      <point x="1246" y="1106"/>
      <point x="1246" y="891" type="curve" smooth="yes"/>
      <point x="1246" y="560"/>
      <point x="1053" y="218"/>
    </contour>
    <contour>
      <point x="619" y="-270" type="move" name="L"/>
    </contour>
    <contour>
      <point x="1069" y="1530" type="move" name="U"/>
    </contour>
  </outline>
</glyph>
<glyph name="LtnCapT" format="1">
  <advance width="1255"/>
  <unicode hex="0054"/>
  <outline>
    <contour>
      <point x="345" y="1445" type="line" name="hr00"/>
      <point x="283" y="1198" type="line"/>
      <point x="359" y="1215"/>
      <point x="439" y="1218"/>
      <point x="519" y="1218" type="curve" smooth="yes"/>
      <point x="731" y="1218" type="line"/>
      <point x="529" y="409" type="line" smooth="yes"/>
      <point x="483" y="224"/>
      <point x="443" y="75"/>
      <point x="408" y="0" type="curve"/>
      <point x="733" y="0" type="line"/>
      <point x="734" y="75"/>
      <point x="768" y="224"/>
      <point x="814" y="409" type="curve" smooth="yes"/>
      <point x="1016" y="1218" type="line"/>
      <point x="1232" y="1218" type="line" smooth="yes"/>
      <point x="1313" y="1218"/>
      <point x="1390" y="1215"/>
      <point x="1458" y="1198" type="curve"/>
      <point x="1520" y="1445" type="line"/>
    </contour>
    <contour>
      <point x="572" y="0" type="move" name="H"/>
    </contour>
    <contour>
      <point x="547" y="-100" type="move" name="L"/>
    </contour>
    <contour>
      <point x="954" y="1530" type="move" name="U"/>
    </contour>
  </outline>
</glyph>
<glyph name="LtnCapV" format="1">
  <advance width="1445"/>
  <unicode hex="0056"/>
  <outline>
    <contour>
      <point x="1405" y="1445" type="line" name="hr00"/>
      <point x="721" y="257" type="line"/>
      <point x="620" y="1445" type="line"/>
      <point x="325" y="1445" type="line"/>
      <point x="339" y="1364"/>
      <point x="354" y="1275"/>
      <point x="375" y="1084" type="curve" smooth="yes"/>
      <point x="495" y="0" type="line"/>
      <point x="830" y="0" type="line"/>
      <point x="1490" y="1084" type="line" smooth="yes"/>
      <point x="1606" y="1276"/>
      <point x="1664" y="1364"/>
      <point x="1720" y="1445" type="curve"/>
    </contour>
    <contour>
      <point x="670" y="0" type="move" name="H"/>
    </contour>
    <contour>
      <point x="637" y="-100" type="move" name="L"/>
    </contour>
    <contour>
      <point x="870" y="0" type="move" name="O"/>
    </contour>
    <contour>
      <point x="1045" y="1530" type="move" name="U"/>
    </contour>
  </outline>
</glyph>
<glyph name="LtnCapW" format="1">
  <advance width="2115"/>
  <unicode hex="0057"/>
  <outline>
    <contour>
      <point x="1430" y="0" type="line" name="hr00"/>
      <point x="1595" y="0" type="line"/>
      <point x="2165" y="1084" type="line" smooth="yes"/>
      <point x="2266" y="1277"/>
      <point x="2318" y="1364"/>
      <point x="2370" y="1445" type="curve"/>
      <point x="2050" y="1445" type="line"/>
      <point x="1432" y="129" type="line"/>
    </contour>
    <contour>
      <point x="1470" y="1445" type="line"/>
      <point x="1220" y="1445" type="line"/>
      <point x="1257" y="1292" type="line"/>
      <point x="1280" y="0" type="line"/>
      <point x="1450" y="0" type="line"/>
      <point x="1492" y="129" type="line"/>
    </contour>
    <contour>
      <point x="540" y="0" type="line"/>
      <point x="705" y="0" type="line"/>
      <point x="1367" y="1292" type="line"/>
      <point x="1470" y="1445" type="line"/>
      <point x="1210" y="1445" type="line"/>
      <point x="542" y="129" type="line"/>
    </contour>
    <contour>
      <point x="630" y="1445" type="line"/>
      <point x="330" y="1445" type="line"/>
      <point x="341" y="1367"/>
      <point x="349" y="1273"/>
      <point x="355" y="1084" type="curve" smooth="yes"/>
      <point x="390" y="0" type="line"/>
      <point x="560" y="0" type="line"/>
      <point x="602" y="129" type="line"/>
    </contour>
    <contour>
      <point x="967" y="-100" type="move" name="L"/>
    </contour>
    <contour>
      <point x="1374" y="1530" type="move" name="U"/>
    </contour>
  </outline>
</glyph>
<glyph name="LtnCapX" format="2">
  <advance width="1345"/>
  <unicode hex="0058"/>
  <anchor x="585" y="-100" name="L"/>
  <anchor x="990" y="1530" name="U"/>
  <outline>
    <contour>
      <point x="930" y="0" type="line"/>
      <point x="1240" y="0" type="line"/>
      <point x="1197" y="81"/>
      <point x="1169" y="134"/>
      <point x="1096" y="333" type="curve" smooth="yes"/>
      <point x="690" y="1445" type="line"/>
      <point x="375" y="1445" type="line"/>
      <point x="419" y="1366"/>
      <point x="457" y="1295"/>
      <point x="529" y="1099" type="curve" smooth="yes"/>
    </contour>
    <contour>
      <point x="-40" y="0" type="curve"/>
      <point x="290" y="0" type="line"/>
      <point x="790" y="603" type="line"/>
      <point x="768" y="938" type="line"/>
      <point x="269" y="337" type="line" smooth="yes"/>
      <point x="135" y="175"/>
      <point x="64" y="104"/>
    </contour>
    <contour>
      <point x="1575" y="1445" type="curve"/>
      <point x="1240" y="1445" type="line"/>
      <point x="808" y="938" type="line"/>
      <point x="830" y="603" type="line"/>
      <point x="1251" y="1099" type="line" smooth="yes"/>
      <point x="1423" y="1302"/>
      <point x="1492" y="1369"/>
    </contour>
  </outline>
</glyph>
<glyph name="LtnCapZ" format="1">
  <advance width="1230"/>
  <unicode hex="005A"/>
  <outline>
    <contour>
      <point x="1445" y="1445" type="line" name="hr00"/>
      <point x="395" y="1445" type="line"/>
      <point x="333" y="1198" type="line"/>
      <point x="425" y="1215"/>
      <point x="586" y="1217"/>
      <point x="803" y="1217" type="curve" smooth="yes"/>
      <point x="1046" y="1217" type="line"/>
      <point x="54" y="158" type="line"/>
      <point x="5" y="0" type="line"/>
      <point x="1135" y="0" type="line"/>
      <point x="1196" y="247" type="line"/>
      <point x="1113" y="234"/>
      <point x="952" y="228"/>
      <point x="756" y="228" type="curve" smooth="yes"/>
      <point x="421" y="228" type="line"/>
      <point x="1402" y="1272" type="line"/>
    </contour>
    <contour>
      <point x="550" y="-100" type="move" name="L"/>
    </contour>
    <contour>
      <point x="932" y="1530" type="move" name="U"/>
    </contour>
  </outline>
</glyph>
<glyph name="LftSqrBrac" format="1">
  <advance width="830"/>
  <unicode hex="005B"/>
  <outline>
    <contour>
      <point x="553" y="-406" type="line" name="hr00"/>
      <point x="605" y="-198" type="line"/>
      <point x="365" y="-198" type="line"/>
      <point x="753" y="1376" type="line"/>
      <point x="993" y="1376" type="line"/>
      <point x="1044" y="1584" type="line"/>
      <point x="524" y="1584" type="line"/>
      <point x="33" y="-406" type="line"/>
    </contour>
  </outline>
</glyph>
<glyph name="ReverseSolidus" format="1">
  <advance width="1060"/>
  <unicode hex="005C"/>
  <outline>
    <contour>
      <point x="344" y="1584" type="line" name="hr00"/>
      <point x="719" y="-243" type="line"/>
      <point x="949" y="-243" type="line"/>
      <point x="574" y="1584" type="line"/>
    </contour>
  </outline>
</glyph>
<glyph name="RtSqrBrac" format="1">
  <advance width="830"/>
  <unicode hex="005D"/>
  <outline>
    <contour>
      <point x="503" y="-406" type="line" name="hr00"/>
      <point x="994" y="1584" type="line"/>
      <point x="474" y="1584" type="line"/>
      <point x="423" y="1376" type="line"/>
      <point x="663" y="1376" type="line"/>
      <point x="275" y="-198" type="line"/>
      <point x="35" y="-198" type="line"/>
      <point x="-17" y="-406" type="line"/>
    </contour>
  </outline>
</glyph>
<glyph name="CircumAccent" format="1">
  <advance width="860"/>
  <unicode hex="005E"/>
  <outline>
    <contour>
      <point x="1056" y="1188" type="line" name="hr00"/>
      <point x="845" y="1584" type="line"/>
      <point x="545" y="1584" type="line"/>
      <point x="177" y="1188" type="line"/>
      <point x="417" y="1188" type="line"/>
      <point x="674" y="1416" type="line"/>
      <point x="817" y="1188" type="line"/>
    </contour>
    <contour>
      <point x="788" y="1635" type="move" name="U"/>
    </contour>
  </outline>
</glyph>
<glyph name="LowLine" format="1">
  <advance width="1254"/>
  <unicode hex="005F"/>
  <outline>
    <contour>
      <point x="-146" y="-347" type="line" name="hr00"/>
      <point x="1127" y="-347" type="line"/>
      <point x="1179" y="-139" type="line"/>
      <point x="-94" y="-139" type="line"/>
    </contour>
  </outline>
</glyph>
<glyph name="GraveAccent" format="1">
  <advance width="620"/>
  <unicode hex="0060"/>
  <outline>
    <contour>
      <point x="265" y="1584" type="line" name="hr00"/>
      <point x="587" y="1188" type="line"/>
      <point x="817" y="1188" type="line"/>
      <point x="595" y="1584" type="line"/>
    </contour>
    <contour>
      <point x="848" y="1635" type="move" name="U"/>
    </contour>
  </outline>
</glyph>
<glyph name="LtnSmA.SngStory" format="1">
  <advance width="1251"/>
  <unicode hex="0061"/>
  <outline>
    <component base="LtnSmAlpha"/>
    <contour>
      <point x="980" y="0" type="move" name="H"/>
    </contour>
    <contour>
      <point x="565" y="-100" type="move" name="L"/>
    </contour>
    <contour>
      <point x="1165" y="0" type="move" name="O"/>
    </contour>
    <contour>
      <point x="1440" y="1000" type="move" name="R"/>
    </contour>
    <contour>
      <point x="865" y="1100" type="move" name="U"/>
    </contour>
  </outline>
</glyph>
<glyph name="LtnSmB" format="1">
  <advance width="1229"/>
  <unicode hex="0062"/>
  <outline>
    <contour>
      <point x="482" y="432" type="line" name="hr00"/>
      <point x="576" y="610"/>
      <point x="726" y="787"/>
      <point x="829" y="787" type="curve" smooth="yes"/>
      <point x="911" y="787"/>
      <point x="946" y="705"/>
      <point x="946" y="590" type="curve" smooth="yes"/>
      <point x="946" y="465"/>
      <point x="897" y="350"/>
      <point x="823" y="275" type="curve" smooth="yes"/>
      <point x="769" y="221"/>
      <point x="703" y="188"/>
      <point x="631" y="188" type="curve" smooth="yes"/>
      <point x="564" y="188"/>
      <point x="502" y="202"/>
      <point x="434" y="238" type="curve"/>
    </contour>
    <contour>
      <point x="445" y="1585" type="line"/>
      <point x="445" y="1439"/>
      <point x="404" y="1242"/>
      <point x="367" y="1095" type="curve" smooth="yes"/>
      <point x="110" y="64" type="line"/>
      <point x="252" y="16"/>
      <point x="400" y="-25"/>
      <point x="593" y="-25" type="curve" smooth="yes"/>
      <point x="727" y="-25"/>
      <point x="845" y="19"/>
      <point x="942" y="91" type="curve" smooth="yes"/>
      <point x="1122" y="224"/>
      <point x="1229" y="453"/>
      <point x="1229" y="672" type="curve" smooth="yes"/>
      <point x="1229" y="906"/>
      <point x="1138" y="1030"/>
      <point x="985" y="1030" type="curve" smooth="yes"/>
      <point x="822" y="1030"/>
      <point x="684" y="906"/>
      <point x="562" y="756" type="curve"/>
      <point x="646" y="1095" type="line" smooth="yes"/>
      <point x="686" y="1255"/>
      <point x="725" y="1474"/>
      <point x="725" y="1585" type="curve"/>
    </contour>
    <contour>
      <point x="550" y="0" type="move" name="H"/>
    </contour>
    <contour>
      <point x="525" y="-100" type="move" name="L"/>
    </contour>
    <contour>
      <point x="1405" y="1000" type="move" name="R"/>
    </contour>
    <contour>
      <point x="960" y="1635" type="move" name="U"/>
    </contour>
  </outline>
</glyph>
<glyph name="LtnSmC" format="1">
  <advance width="1019"/>
  <unicode hex="0063"/>
  <outline>
    <contour>
      <point x="1099" y="959" type="line" name="hr00"/>
      <point x="1035" y="997"/>
      <point x="928" y="1030"/>
      <point x="796" y="1030" type="curve" smooth="yes"/>
      <point x="446" y="1030"/>
      <point x="150" y="774"/>
      <point x="150" y="386" type="curve" smooth="yes"/>
      <point x="150" y="137"/>
      <point x="341" y="-25"/>
      <point x="569" y="-25" type="curve" smooth="yes"/>
      <point x="718" y="-25"/>
      <point x="835" y="11"/>
      <point x="927" y="69" type="curve"/>
      <point x="937" y="311" type="line"/>
      <point x="840" y="238"/>
      <point x="755" y="203"/>
      <point x="625" y="203" type="curve" smooth="yes"/>
      <point x="494" y="203"/>
      <point x="417" y="302"/>
      <point x="417" y="416" type="curve" smooth="yes"/>
      <point x="417" y="661"/>
      <point x="588" y="802"/>
      <point x="754" y="802" type="curve" smooth="yes"/>
      <point x="857" y="802"/>
      <point x="918" y="781"/>
      <point x="993" y="720" type="curve"/>
    </contour>
    <contour>
      <point x="495" y="0" type="move" name="H"/>
    </contour>
    <contour>
      <point x="490" y="-100" type="move" name="L"/>
    </contour>
    <contour>
      <point x="1210" y="1000" type="move" name="R"/>
    </contour>
    <contour>
      <point x="790" y="1100" type="move" name="U"/>
    </contour>
  </outline>
</glyph>
<glyph name="LtnSmE" format="1">
  <advance width="1087"/>
  <unicode hex="0065"/>
  <outline>
    <contour>
      <point x="1013" y="303" type="line" name="hr00"/>
      <point x="871" y="230"/>
      <point x="739" y="198"/>
      <point x="608" y="198" type="curve" smooth="yes"/>
      <point x="459" y="198"/>
      <point x="401" y="297"/>
      <point x="401" y="428" type="curve" smooth="yes"/>
      <point x="401" y="683"/>
      <point x="552" y="822"/>
      <point x="713" y="822" type="curve" smooth="yes"/>
      <point x="811" y="822"/>
      <point x="869" y="782"/>
      <point x="869" y="720" type="curve" smooth="yes"/>
      <point x="869" y="635"/>
      <point x="777" y="580"/>
      <point x="533" y="580" type="curve" smooth="yes"/>
      <point x="461" y="580"/>
      <point x="385" y="589"/>
      <point x="283" y="610" type="curve"/>
      <point x="283" y="437" type="line"/>
      <point x="353" y="422"/>
      <point x="487" y="413"/>
      <point x="569" y="413" type="curve" smooth="yes"/>
      <point x="935" y="413"/>
      <point x="1125" y="583"/>
      <point x="1125" y="774" type="curve" smooth="yes"/>
      <point x="1125" y="922"/>
      <point x="993" y="1030"/>
      <point x="769" y="1030" type="curve" smooth="yes"/>
      <point x="435" y="1030"/>
      <point x="148" y="775"/>
      <point x="148" y="388" type="curve" smooth="yes"/>
      <point x="148" y="135"/>
      <point x="332" y="-25"/>
      <point x="556" y="-25" type="curve" smooth="yes"/>
      <point x="712" y="-25"/>
      <point x="835" y="2"/>
      <point x="997" y="74" type="curve"/>
    </contour>
    <contour>
      <point x="509" y="0" type="move" name="H"/>
    </contour>
    <contour>
      <point x="555" y="-100" type="move" name="L"/>
    </contour>
    <contour>
      <point x="840" y="0" type="move" name="O"/>
    </contour>
    <contour>
      <point x="1320" y="1000" type="move" name="R"/>
    </contour>
    <contour>
      <point x="752" y="1100" type="move" name="U"/>
    </contour>
  </outline>
</glyph>
<glyph name="LtnSmG.SngBowl" format="1">
  <advance width="1183"/>
  <unicode hex="0067"/>
  <outline>
    <contour>
      <point x="1243" y="955" type="line" name="hr00"/>
      <point x="1134" y="991"/>
      <point x="963" y="1030"/>
      <point x="832" y="1030" type="curve" smooth="yes"/>
      <point x="691" y="1030"/>
      <point x="566" y="988"/>
      <point x="462" y="918" type="curve" smooth="yes"/>
      <point x="262" y="783"/>
      <point x="142" y="546"/>
      <point x="142" y="305" type="curve" smooth="yes"/>
      <point x="142" y="105"/>
      <point x="247" y="-5"/>
      <point x="362" y="-5" type="curve" smooth="yes"/>
      <point x="505" y="-5"/>
      <point x="705" y="141"/>
      <point x="820" y="300" type="curve"/>
      <point x="742" y="-10" type="line" smooth="yes"/>
      <point x="704" y="-163"/>
      <point x="540" y="-244"/>
      <point x="434" y="-244" type="curve" smooth="yes"/>
      <point x="335" y="-244"/>
      <point x="249" y="-197"/>
      <point x="172" y="-130" type="curve"/>
      <point x="35" y="-337" type="line"/>
      <point x="132" y="-413"/>
      <point x="281" y="-465"/>
      <point x="419" y="-465" type="curve" smooth="yes"/>
      <point x="660" y="-465"/>
      <point x="953" y="-317"/>
      <point x="1031" y="25" type="curve" smooth="yes"/>
    </contour>
    <contour>
      <point x="870" y="581" type="line"/>
      <point x="785" y="424"/>
      <point x="590" y="230"/>
      <point x="507" y="230" type="curve" smooth="yes"/>
      <point x="460" y="230"/>
      <point x="433" y="279"/>
      <point x="433" y="377" type="curve" smooth="yes"/>
      <point x="433" y="501"/>
      <point x="478" y="641"/>
      <point x="568" y="723" type="curve" smooth="yes"/>
      <point x="615" y="766"/>
      <point x="675" y="794"/>
      <point x="747" y="794" type="curve" smooth="yes"/>
      <point x="812" y="794"/>
      <point x="871" y="778"/>
      <point x="912" y="754" type="curve"/>
    </contour>
    <contour>
      <point x="440" y="-500" type="move" name="L"/>
    </contour>
    <contour>
      <point x="1375" y="1000" type="move" name="R"/>
    </contour>
    <contour>
      <point x="865" y="1100" type="move" name="U"/>
    </contour>
  </outline>
</glyph>
<glyph name="LtnSmH" format="1">
  <advance width="1273"/>
  <unicode hex="0068"/>
  <outline>
    <contour>
      <point x="1140" y="0" type="line" name="hr00"/>
      <point x="1135" y="29"/>
      <point x="1129" y="60"/>
      <point x="1129" y="90" type="curve" smooth="yes"/>
      <point x="1129" y="135"/>
      <point x="1134" y="170"/>
      <point x="1141" y="215" type="curve" smooth="yes"/>
      <point x="1171" y="400"/>
      <point x="1253" y="590"/>
      <point x="1253" y="725" type="curve" smooth="yes"/>
      <point x="1253" y="900"/>
      <point x="1183" y="1030"/>
      <point x="990" y="1030" type="curve" smooth="yes"/>
      <point x="849" y="1030"/>
      <point x="694" y="902"/>
      <point x="566" y="740" type="curve"/>
      <point x="656" y="1095" type="line" smooth="yes"/>
      <point x="696" y="1255"/>
      <point x="735" y="1474"/>
      <point x="735" y="1585" type="curve"/>
      <point x="455" y="1585" type="line"/>
      <point x="455" y="1439"/>
      <point x="413" y="1242"/>
      <point x="377" y="1095" type="curve" smooth="yes"/>
      <point x="105" y="0" type="line"/>
      <point x="385" y="0" type="line"/>
      <point x="485" y="400" type="line"/>
      <point x="580" y="596"/>
      <point x="745" y="787"/>
      <point x="850" y="787" type="curve" smooth="yes"/>
      <point x="937" y="787"/>
      <point x="953" y="722"/>
      <point x="953" y="625" type="curve" smooth="yes"/>
      <point x="953" y="529"/>
      <point x="889" y="374"/>
      <point x="863" y="213" type="curve" smooth="yes"/>
      <point x="857" y="174"/>
      <point x="853" y="134"/>
      <point x="853" y="95" type="curve" smooth="yes"/>
      <point x="853" y="63"/>
      <point x="854" y="31"/>
      <point x="860" y="0" type="curve"/>
    </contour>
    <contour>
      <point x="220" y="0" type="move" name="H"/>
    </contour>
    <contour>
      <point x="635" y="-100" type="move" name="L"/>
    </contour>
    <contour>
      <point x="940" y="1635" type="move" name="U"/>
    </contour>
  </outline>
</glyph>
<glyph name="LtnSmI" format="1">
  <advance width="625"/>
  <unicode hex="0069"/>
  <outline>
    <contour>
      <point x="341" y="1010" type="line" name="hr00"/>
      <point x="341" y="877"/>
      <point x="290" y="698"/>
      <point x="252" y="547" type="curve" smooth="yes"/>
      <point x="213" y="390" type="line" smooth="yes"/>
      <point x="193" y="309"/>
      <point x="170" y="191"/>
      <point x="170" y="88" type="curve" smooth="yes"/>
      <point x="170" y="57"/>
      <point x="172" y="27"/>
      <point x="177" y="0" type="curve"/>
      <point x="472" y="0" type="line"/>
      <point x="463" y="39"/>
      <point x="459" y="82"/>
      <point x="459" y="126" type="curve" smooth="yes"/>
      <point x="459" y="217"/>
      <point x="475" y="310"/>
      <point x="486" y="358" type="curve" smooth="yes"/>
      <point x="531" y="546" type="line" smooth="yes"/>
      <point x="572" y="719"/>
      <point x="621" y="875"/>
      <point x="625" y="1010" type="curve"/>
    </contour>
    <contour>
      <point x="404" y="1341" type="curve" smooth="yes"/>
      <point x="404" y="1259"/>
      <point x="462" y="1197"/>
      <point x="548" y="1197" type="curve" smooth="yes"/>
      <point x="668" y="1197"/>
      <point x="759" y="1292"/>
      <point x="759" y="1403" type="curve" smooth="yes"/>
      <point x="759" y="1483"/>
      <point x="701" y="1544"/>
      <point x="614" y="1544" type="curve" smooth="yes"/>
      <point x="496" y="1544"/>
      <point x="404" y="1451"/>
    </contour>
    <contour>
      <point x="260" y="0" type="move" name="H"/>
    </contour>
    <contour>
      <point x="335" y="-100" type="move" name="L"/>
    </contour>
    <contour>
      <point x="520" y="0" type="move" name="O"/>
    </contour>
    <contour>
      <point x="830" y="1000" type="move" name="R"/>
    </contour>
    <contour>
      <point x="535" y="1100" type="move" name="U"/>
    </contour>
  </outline>
</glyph>
<glyph name="LtnSmJ" format="1">
  <advance width="695"/>
  <unicode hex="006A"/>
  <outline>
    <contour>
      <point x="361" y="1010" type="line" name="hr00"/>
      <point x="361" y="866"/>
      <point x="284" y="395"/>
      <point x="205" y="87" type="curve" smooth="yes"/>
      <point x="148" y="-136"/>
      <point x="54" y="-221"/>
      <point x="-56" y="-221" type="curve" smooth="yes"/>
      <point x="-137" y="-221"/>
      <point x="-217" y="-187"/>
      <point x="-252" y="-150" type="curve"/>
      <point x="-355" y="-385" type="line"/>
      <point x="-321" y="-417"/>
      <point x="-172" y="-465"/>
      <point x="-79" y="-465" type="curve" smooth="yes"/>
      <point x="170" y="-465"/>
      <point x="388" y="-295"/>
      <point x="481" y="75" type="curve" smooth="yes"/>
      <point x="501" y="157"/>
      <point x="646" y="882"/>
      <point x="646" y="1010" type="curve"/>
    </contour>
    <contour>
      <point x="395" y="1341" type="curve" smooth="yes"/>
      <point x="395" y="1259"/>
      <point x="453" y="1197"/>
      <point x="539" y="1197" type="curve" smooth="yes"/>
      <point x="659" y="1197"/>
      <point x="750" y="1292"/>
      <point x="750" y="1403" type="curve" smooth="yes"/>
      <point x="750" y="1483"/>
      <point x="692" y="1544"/>
      <point x="605" y="1544" type="curve" smooth="yes"/>
      <point x="487" y="1544"/>
      <point x="395" y="1451"/>
    </contour>
    <contour>
      <point x="-45" y="-500" type="move" name="L"/>
    </contour>
    <contour>
      <point x="565" y="1100" type="move" name="U"/>
    </contour>
  </outline>
</glyph>
<glyph name="LtnSmN" format="1">
  <advance width="1281"/>
  <unicode hex="006E"/>
  <outline>
    <contour>
      <point x="1145" y="0" type="line"/>
      <point x="1140" y="29"/>
      <point x="1138" y="60"/>
      <point x="1138" y="90" type="curve" smooth="yes"/>
      <point x="1138" y="136"/>
      <point x="1141" y="182"/>
      <point x="1149" y="228" type="curve" smooth="yes"/>
      <point x="1173" y="366"/>
      <point x="1258" y="591"/>
      <point x="1258" y="725" type="curve" smooth="yes"/>
      <point x="1258" y="890"/>
      <point x="1188" y="1030"/>
      <point x="995" y="1030" type="curve" smooth="yes"/>
      <point x="844" y="1030"/>
      <point x="685" y="903"/>
      <point x="546" y="715" type="curve"/>
      <point x="555" y="771"/>
      <point x="569" y="875"/>
      <point x="569" y="933" type="curve" smooth="yes"/>
      <point x="569" y="962"/>
      <point x="568" y="988"/>
      <point x="565" y="1010" type="curve" name="hr01"/>
      <point x="290" y="1010" type="line"/>
      <point x="290" y="962" type="line" smooth="yes"/>
      <point x="290" y="859"/>
      <point x="280" y="685"/>
      <point x="261" y="609" type="curve" smooth="yes"/>
      <point x="110" y="0" type="line"/>
      <point x="388" y="0" type="line"/>
      <point x="490" y="405" type="line"/>
      <point x="569" y="569"/>
      <point x="740" y="787"/>
      <point x="835" y="787" type="curve" smooth="yes" name="hr02"/>
      <point x="922" y="787"/>
      <point x="958" y="732"/>
      <point x="958" y="625" type="curve" smooth="yes"/>
      <point x="958" y="527"/>
      <point x="891" y="369"/>
      <point x="866" y="205" type="curve" smooth="yes"/>
      <point x="860" y="168"/>
      <point x="857" y="132"/>
      <point x="857" y="95" type="curve" smooth="yes"/>
      <point x="857" y="63"/>
      <point x="859" y="31"/>
      <point x="865" y="0" type="curve"/>
    </contour>
    <contour>
      <point x="560" y="0" type="move" name="H"/>
    </contour>
    <contour>
      <point x="635" y="-100" type="move" name="L"/>
    </contour>
    <contour>
      <point x="835" y="1100" type="move" name="U"/>
    </contour>
  </outline>
</glyph>
<glyph name="LtnSmO" format="1">
  <advance width="1140"/>
  <unicode hex="006F"/>
  <outline>
    <contour>
      <point x="140" y="370" type="curve" smooth="yes" name="hr00"/>
      <point x="140" y="128"/>
      <point x="289" y="-25"/>
      <point x="520" y="-25" type="curve" smooth="yes"/>
      <point x="906" y="-25"/>
      <point x="1144" y="295"/>
      <point x="1144" y="641" type="curve" smooth="yes"/>
      <point x="1144" y="880"/>
      <point x="1003" y="1030"/>
      <point x="773" y="1030" type="curve" smooth="yes"/>
      <point x="390" y="1030"/>
      <point x="140" y="718"/>
    </contour>
    <contour>
      <point x="718" y="807" type="curve" smooth="yes"/>
      <point x="826" y="807"/>
      <point x="879" y="737"/>
      <point x="879" y="612" type="curve" smooth="yes"/>
      <point x="879" y="413"/>
      <point x="764" y="198"/>
      <point x="566" y="198" type="curve" smooth="yes"/>
      <point x="464" y="198"/>
      <point x="404" y="264"/>
      <point x="404" y="385" type="curve" smooth="yes"/>
      <point x="404" y="570"/>
      <point x="512" y="807"/>
    </contour>
    <contour>
      <point x="518" y="0" type="move" name="H"/>
    </contour>
    <contour>
      <point x="530" y="-100" type="move" name="L"/>
    </contour>
    <contour>
      <point x="730" y="0" type="move" name="O"/>
    </contour>
    <contour>
      <point x="1350" y="1000" type="move" name="R"/>
    </contour>
    <contour>
      <point x="795" y="1100" type="move" name="U"/>
    </contour>
  </outline>
</glyph>
<glyph name="LtnSmQ" format="1">
  <advance width="1206"/>
  <unicode hex="0071"/>
  <outline>
    <contour>
      <point x="889" y="583" type="line" name="hr00"/>
      <point x="832" y="467"/>
      <point x="615" y="211"/>
      <point x="520" y="211" type="curve" smooth="yes"/>
      <point x="457" y="211"/>
      <point x="429" y="263"/>
      <point x="429" y="362" type="curve" smooth="yes"/>
      <point x="429" y="484"/>
      <point x="469" y="616"/>
      <point x="551" y="702" type="curve" smooth="yes"/>
      <point x="605" y="758"/>
      <point x="676" y="794"/>
      <point x="765" y="794" type="curve" smooth="yes"/>
      <point x="806" y="794"/>
      <point x="897" y="781"/>
      <point x="933" y="762" type="curve"/>
    </contour>
    <contour>
      <point x="936" y="-485" type="line"/>
      <point x="936" y="-396"/>
      <point x="951" y="-299"/>
      <point x="978" y="-190" type="curve" smooth="yes"/>
      <point x="1261" y="955" type="line"/>
      <point x="1134" y="991"/>
      <point x="972" y="1030"/>
      <point x="819" y="1030" type="curve" smooth="yes"/>
      <point x="678" y="1030"/>
      <point x="516" y="969"/>
      <point x="403" y="874" type="curve" smooth="yes"/>
      <point x="244" y="739"/>
      <point x="145" y="535"/>
      <point x="145" y="331" type="curve" smooth="yes"/>
      <point x="145" y="105"/>
      <point x="275" y="-25"/>
      <point x="391" y="-25" type="curve" smooth="yes"/>
      <point x="529" y="-25"/>
      <point x="729" y="134"/>
      <point x="838" y="300" type="curve"/>
      <point x="706" y="-185" type="line" smooth="yes"/>
      <point x="675" y="-299"/>
      <point x="661" y="-419"/>
      <point x="661" y="-485" type="curve"/>
    </contour>
    <contour>
      <point x="415" y="-500" type="move" name="L"/>
    </contour>
    <contour>
      <point x="1400" y="1000" type="move" name="R"/>
    </contour>
    <contour>
      <point x="815" y="1100" type="move" name="U"/>
    </contour>
  </outline>
</glyph>
<glyph name="LtnSmV" format="1">
  <advance width="1049"/>
  <unicode hex="0076"/>
  <outline>
    <contour>
      <point x="881" y="1010" type="line" name="hr00"/>
      <point x="881" y="788"/>
      <point x="719" y="534"/>
      <point x="507" y="270" type="curve"/>
      <point x="516" y="353"/>
      <point x="521" y="457"/>
      <point x="521" y="564" type="curve" smooth="yes"/>
      <point x="521" y="730"/>
      <point x="507" y="903"/>
      <point x="472" y="1010" type="curve"/>
      <point x="195" y="1010" type="line"/>
      <point x="259" y="758"/>
      <point x="282" y="509"/>
      <point x="282" y="262" type="curve" smooth="yes"/>
      <point x="282" y="174"/>
      <point x="279" y="87"/>
      <point x="274" y="0" type="curve"/>
      <point x="535" y="0" type="line"/>
      <point x="823" y="314"/>
      <point x="1159" y="766"/>
      <point x="1159" y="1010" type="curve"/>
    </contour>
    <contour>
      <point x="505" y="0" type="move" name="H"/>
    </contour>
    <contour>
      <point x="410" y="-100" type="move" name="L"/>
    </contour>
    <contour>
      <point x="690" y="0" type="move" name="O"/>
    </contour>
    <contour>
      <point x="695" y="1100" type="move" name="U"/>
    </contour>
  </outline>
</glyph>
<glyph name="LtnSmW" format="1">
  <advance width="1620"/>
  <unicode hex="0077"/>
  <outline>
    <contour>
      <point x="850" y="1010" type="line" name="hr00"/>
      <point x="758" y="793"/>
      <point x="592" y="496"/>
      <point x="438" y="242" type="curve"/>
      <point x="459" y="351"/>
      <point x="476" y="509"/>
      <point x="476" y="669" type="curve" smooth="yes"/>
      <point x="476" y="788"/>
      <point x="468" y="908"/>
      <point x="448" y="1010" type="curve"/>
      <point x="190" y="1010" type="line"/>
      <point x="230" y="831"/>
      <point x="236" y="678"/>
      <point x="236" y="494" type="curve" smooth="yes"/>
      <point x="236" y="364"/>
      <point x="228" y="211"/>
      <point x="209" y="0" type="curve"/>
      <point x="499" y="0" type="line"/>
      <point x="624" y="181"/>
      <point x="838" y="560"/>
      <point x="901" y="690" type="curve"/>
      <point x="919" y="477"/>
      <point x="919" y="212"/>
      <point x="919" y="0" type="curve"/>
      <point x="1179" y="0" type="line"/>
      <point x="1430" y="328"/>
      <point x="1710" y="775"/>
      <point x="1710" y="1010" type="curve"/>
      <point x="1432" y="1010" type="line"/>
      <point x="1432" y="995" type="line" smooth="yes"/>
      <point x="1432" y="797"/>
      <point x="1245" y="435"/>
      <point x="1106" y="242" type="curve"/>
      <point x="1108" y="298"/>
      <point x="1108" y="355"/>
      <point x="1108" y="411" type="curve" smooth="yes"/>
      <point x="1108" y="637"/>
      <point x="1096" y="860"/>
      <point x="1070" y="1010" type="curve"/>
    </contour>
    <contour>
      <point x="700" y="-100" type="move" name="L"/>
    </contour>
    <contour>
      <point x="1000" y="1100" type="move" name="U"/>
    </contour>
  </outline>
</glyph>
<glyph name="VertLine" format="1">
  <advance width="670"/>
  <unicode hex="007C"/>
  <outline>
    <contour>
      <point x="574" y="1594" type="line" name="hr00"/>
      <point x="83" y="-396" type="line"/>
      <point x="293" y="-396" type="line"/>
      <point x="784" y="1594" type="line"/>
    </contour>
  </outline>
</glyph>
<glyph name="RtCurlyBrac" format="1">
  <advance width="1020"/>
  <unicode hex="007D"/>
  <outline>
    <contour>
      <point x="442" y="1395" type="line" name="hr00"/>
      <point x="513" y="1366"/>
      <point x="611" y="1344"/>
      <point x="611" y="1296" type="curve" smooth="yes"/>
      <point x="611" y="1200"/>
      <point x="515" y="837"/>
      <point x="515" y="782" type="curve" smooth="yes"/>
      <point x="515" y="743"/>
      <point x="633" y="649"/>
      <point x="633" y="613" type="curve" smooth="yes"/>
      <point x="633" y="573"/>
      <point x="465" y="486"/>
      <point x="429" y="441" type="curve" smooth="yes"/>
      <point x="403" y="407"/>
      <point x="300" y="-59"/>
      <point x="255" y="-99" type="curve" smooth="yes"/>
      <point x="230" y="-121"/>
      <point x="97" y="-158"/>
      <point x="25" y="-177" type="curve"/>
      <point x="17" y="-406" type="line"/>
      <point x="160" y="-379"/>
      <point x="377" y="-330"/>
      <point x="439" y="-282" type="curve" smooth="yes"/>
      <point x="532" y="-211"/>
      <point x="666" y="374"/>
      <point x="696" y="406" type="curve" smooth="yes"/>
      <point x="734" y="446"/>
      <point x="947" y="559"/>
      <point x="947" y="616" type="curve" smooth="yes"/>
      <point x="947" y="676"/>
      <point x="796" y="783"/>
      <point x="796" y="819" type="curve" smooth="yes"/>
      <point x="796" y="880"/>
      <point x="896" y="1288"/>
      <point x="896" y="1453" type="curve" smooth="yes"/>
      <point x="896" y="1529"/>
      <point x="709" y="1591"/>
      <point x="549" y="1624" type="curve"/>
    </contour>
  </outline>
</glyph>
<glyph name="InvExclamationMrk" format="2">
  <advance width="760"/>
  <unicode hex="00A1"/>
  <outline>
    <contour>
      <point x="329" y="579" type="line"/>
      <point x="250" y="292"/>
      <point x="185" y="9"/>
      <point x="40" y="-421" type="curve"/>
      <point x="375" y="-421" type="line"/>
      <point x="443" y="9"/>
      <point x="518" y="292"/>
      <point x="584" y="579" type="curve"/>
    </contour>
    <contour>
      <point x="365" y="894" type="curve" smooth="yes"/>
      <point x="365" y="813"/>
      <point x="426" y="752"/>
      <point x="512" y="752" type="curve" smooth="yes"/>
      <point x="630" y="752"/>
      <point x="726" y="850"/>
      <point x="726" y="960" type="curve" smooth="yes"/>
      <point x="726" y="1041"/>
      <point x="666" y="1099"/>
      <point x="579" y="1099" type="curve" smooth="yes"/>
      <point x="461" y="1099"/>
      <point x="365" y="1005"/>
    </contour>
  </outline>
</glyph>
<glyph name="PoundSgn" format="2">
  <advance width="1180"/>
  <unicode hex="00A3"/>
  <outline>
    <contour>
      <point x="243" y="663" type="line"/>
      <point x="938" y="663" type="line"/>
      <point x="987" y="861" type="line"/>
      <point x="292" y="861" type="line"/>
    </contour>
    <contour>
      <point x="1054" y="243" type="line"/>
      <point x="978" y="229"/>
      <point x="831" y="228"/>
      <point x="651" y="228" type="curve" smooth="yes"/>
      <point x="455" y="228" type="line"/>
      <point x="555" y="320"/>
      <point x="605" y="427"/>
      <point x="640" y="569" type="curve" smooth="yes"/>
      <point x="677" y="717"/>
      <point x="672" y="890"/>
      <point x="710" y="1044" type="curve" smooth="yes"/>
      <point x="746" y="1187"/>
      <point x="828" y="1242"/>
      <point x="930" y="1242" type="curve" smooth="yes"/>
      <point x="994" y="1242"/>
      <point x="1092" y="1220"/>
      <point x="1137" y="1183" type="curve"/>
      <point x="1238" y="1401" type="line"/>
      <point x="1182" y="1444"/>
      <point x="1061" y="1470"/>
      <point x="977" y="1470" type="curve" smooth="yes"/>
      <point x="695" y="1470"/>
      <point x="494" y="1319"/>
      <point x="419" y="1015" type="curve" smooth="yes"/>
      <point x="377" y="848"/>
      <point x="387" y="679"/>
      <point x="342" y="497" type="curve" smooth="yes"/>
      <point x="309" y="366"/>
      <point x="213" y="255"/>
      <point x="116" y="188" type="curve"/>
      <point x="70" y="0" type="line"/>
      <point x="994" y="0" type="line"/>
    </contour>
  </outline>
</glyph>
<glyph name="CurrSgn" format="2">
  <advance width="1180"/>
  <unicode hex="00A4"/>
  <outline>
    <contour>
      <point x="1220" y="398" type="line"/>
      <point x="1058" y="610" type="line"/>
      <point x="1152" y="706"/>
      <point x="1202" y="815"/>
      <point x="1202" y="942" type="curve" smooth="yes"/>
      <point x="1202" y="1001"/>
      <point x="1186" y="1060"/>
      <point x="1169" y="1104" type="curve"/>
      <point x="1427" y="1307" type="line"/>
      <point x="1336" y="1426" type="line"/>
      <point x="1071" y="1219" type="line"/>
      <point x="1015" y="1272"/>
      <point x="942" y="1301"/>
      <point x="838" y="1301" type="curve" smooth="yes"/>
      <point x="742" y="1301"/>
      <point x="663" y="1283"/>
      <point x="577" y="1230" type="curve"/>
      <point x="412" y="1447" type="line"/>
      <point x="295" y="1355" type="line"/>
      <point x="463" y="1136" type="line"/>
      <point x="386" y="1074"/>
      <point x="310" y="923"/>
      <point x="310" y="792" type="curve" smooth="yes"/>
      <point x="310" y="737"/>
      <point x="321" y="679"/>
      <point x="338" y="636" type="curve"/>
      <point x="87" y="436" type="line"/>
      <point x="180" y="315" type="line"/>
      <point x="431" y="516" type="line"/>
      <point x="492" y="455"/>
      <point x="579" y="433"/>
      <point x="681" y="433" type="curve" smooth="yes"/>
      <point x="775" y="433"/>
      <point x="851" y="458"/>
      <point x="940" y="518" type="curve"/>
      <point x="1104" y="305" type="line"/>
    </contour>
    <contour>
      <point x="709" y="583" type="curve" smooth="yes"/>
      <point x="566" y="583"/>
      <point x="464" y="681"/>
      <point x="464" y="812" type="curve" smooth="yes"/>
      <point x="464" y="1009"/>
      <point x="629" y="1150"/>
      <point x="810" y="1150" type="curve" smooth="yes"/>
      <point x="948" y="1150"/>
      <point x="1044" y="1047"/>
      <point x="1044" y="918" type="curve" smooth="yes"/>
      <point x="1044" y="735"/>
      <point x="886" y="583"/>
    </contour>
  </outline>
</glyph>
<glyph name="YenSgn" format="2">
  <advance width="1180"/>
  <unicode hex="00A5"/>
  <outline>
    <contour>
      <point x="613" y="554" type="line"/>
      <point x="823" y="648" type="line"/>
      <point x="597" y="1445" type="line"/>
      <point x="285" y="1445" type="line"/>
      <point x="360" y="1298"/>
      <point x="398" y="1185"/>
      <point x="442" y="1054" type="curve" smooth="yes"/>
    </contour>
    <contour>
      <point x="744" y="554" type="line"/>
      <point x="1167" y="1054" type="line" smooth="yes"/>
      <point x="1275" y="1183"/>
      <point x="1355" y="1278"/>
      <point x="1515" y="1445" type="curve"/>
      <point x="1179" y="1445" type="line"/>
      <point x="560" y="648" type="line"/>
    </contour>
    <contour>
      <point x="225" y="663" type="line"/>
      <point x="1185" y="663" type="line"/>
      <point x="1237" y="871" type="line"/>
      <point x="277" y="871" type="line"/>
    </contour>
    <contour>
      <point x="147" y="350" type="line"/>
      <point x="1107" y="350" type="line"/>
      <point x="1159" y="558" type="line"/>
      <point x="199" y="558" type="line"/>
    </contour>
    <contour>
      <point x="569" y="688" type="line"/>
      <point x="505" y="431" type="line" smooth="yes"/>
      <point x="456" y="236"/>
      <point x="416" y="79"/>
      <point x="383" y="0" type="curve"/>
      <point x="698" y="0" type="line"/>
      <point x="702" y="79"/>
      <point x="741" y="236"/>
      <point x="790" y="431" type="curve" smooth="yes"/>
      <point x="854" y="688" type="line"/>
    </contour>
  </outline>
</glyph>
<glyph name="BrokenBar" format="1">
  <advance width="1044"/>
  <unicode hex="00A6"/>
  <outline>
    <contour>
      <point x="479" y="441" type="line" name="hr00"/>
      <point x="273" y="-386" type="line"/>
      <point x="483" y="-386" type="line"/>
      <point x="689" y="441" type="line"/>
    </contour>
    <contour>
      <point x="771" y="767" type="line"/>
      <point x="974" y="1584" type="line"/>
      <point x="764" y="1584" type="line"/>
      <point x="561" y="767" type="line"/>
    </contour>
  </outline>
</glyph>
<glyph name="Diaer" format="1">
  <advance width="840"/>
  <unicode hex="00A8"/>
  <outline>
    <contour>
      <point x="757" y="1338" type="curve" smooth="yes" name="hr00"/>
      <point x="757" y="1256"/>
      <point x="818" y="1198"/>
      <point x="904" y="1198" type="curve" smooth="yes"/>
      <point x="1022" y="1198"/>
      <point x="1116" y="1294"/>
      <point x="1116" y="1404" type="curve" smooth="yes"/>
      <point x="1116" y="1484"/>
      <point x="1056" y="1544"/>
      <point x="969" y="1544" type="curve" smooth="yes"/>
      <point x="851" y="1544"/>
      <point x="757" y="1447"/>
    </contour>
    <contour>
      <point x="267" y="1338" type="curve" smooth="yes"/>
      <point x="267" y="1256"/>
      <point x="328" y="1198"/>
      <point x="414" y="1198" type="curve" smooth="yes"/>
      <point x="533" y="1198"/>
      <point x="627" y="1293"/>
      <point x="627" y="1404" type="curve" smooth="yes"/>
      <point x="627" y="1484"/>
      <point x="567" y="1544"/>
      <point x="480" y="1544" type="curve" smooth="yes"/>
      <point x="362" y="1544"/>
      <point x="267" y="1448"/>
    </contour>
    <contour>
      <point x="756" y="1585" type="move" name="U"/>
    </contour>
  </outline>
</glyph>
<glyph name="CopyrightSgn" format="2">
  <advance width="1664"/>
  <unicode hex="00A9"/>
  <outline>
    <contour>
      <point x="1031" y="1312" type="curve" smooth="yes"/>
      <point x="1310" y="1312"/>
      <point x="1504" y="1111"/>
      <point x="1504" y="845" type="curve" smooth="yes"/>
      <point x="1504" y="791"/>
      <point x="1497" y="734"/>
      <point x="1482" y="673" type="curve" smooth="yes"/>
      <point x="1390" y="305"/>
      <point x="1139" y="134"/>
      <point x="864" y="134" type="curve" smooth="yes"/>
      <point x="583" y="134"/>
      <point x="370" y="332"/>
      <point x="370" y="604" type="curve" smooth="yes"/>
      <point x="370" y="654"/>
      <point x="377" y="708"/>
      <point x="391" y="765" type="curve" smooth="yes"/>
      <point x="483" y="1135"/>
      <point x="756" y="1312"/>
    </contour>
    <contour>
      <point x="1069" y="1471" type="curve" smooth="yes"/>
      <point x="713" y="1471"/>
      <point x="347" y="1253"/>
      <point x="228" y="773" type="curve" smooth="yes"/>
      <point x="209" y="697"/>
      <point x="200" y="625"/>
      <point x="200" y="559" type="curve" smooth="yes"/>
      <point x="200" y="189"/>
      <point x="478" y="-25"/>
      <point x="817" y="-25" type="curve" smooth="yes"/>
      <point x="1163" y="-25"/>
      <point x="1521" y="174"/>
      <point x="1644" y="666" type="curve" smooth="yes"/>
      <point x="1663" y="742"/>
      <point x="1672" y="814"/>
      <point x="1672" y="880" type="curve" smooth="yes"/>
      <point x="1671" y="1243"/>
      <point x="1390" y="1471"/>
    </contour>
    <contour>
      <point x="1154" y="538" type="line"/>
      <point x="1074" y="471"/>
      <point x="976" y="439"/>
      <point x="890" y="439" type="curve" smooth="yes"/>
      <point x="786" y="439"/>
      <point x="715" y="525"/>
      <point x="715" y="650" type="curve" smooth="yes"/>
      <point x="715" y="686"/>
      <point x="720" y="725"/>
      <point x="730" y="766" type="curve" smooth="yes"/>
      <point x="779" y="962"/>
      <point x="906" y="1027"/>
      <point x="1023" y="1027" type="curve" smooth="yes"/>
      <point x="1098" y="1027"/>
      <point x="1152" y="993"/>
      <point x="1214" y="935" type="curve"/>
      <point x="1291" y="1087" type="line"/>
      <point x="1223" y="1149"/>
      <point x="1139" y="1179"/>
      <point x="1052" y="1179" type="curve" smooth="yes"/>
      <point x="855" y="1179"/>
      <point x="630" y="1082"/>
      <point x="553" y="776" type="curve" smooth="yes"/>
      <point x="541" y="728"/>
      <point x="535" y="681"/>
      <point x="535" y="637" type="curve" smooth="yes"/>
      <point x="535" y="435"/>
      <point x="654" y="283"/>
      <point x="851" y="283" type="curve" smooth="yes"/>
      <point x="940" y="283"/>
      <point x="1055" y="302"/>
      <point x="1141" y="360" type="curve"/>
    </contour>
  </outline>
</glyph>
<glyph name="NotSgn" format="1">
  <advance width="1180"/>
  <unicode hex="00AC"/>
  <outline>
    <contour>
      <point x="1104" y="337" type="line"/>
      <point x="1224" y="822" type="line"/>
      <point x="239" y="822" type="line"/>
      <point x="188" y="614" type="line" name="hr01"/>
      <point x="963" y="614" type="line"/>
      <point x="894" y="337" type="line" name="hr02"/>
    </contour>
  </outline>
</glyph>
<glyph name="RegisteredSgn" format="2">
  <advance width="1525"/>
  <unicode hex="00AE"/>
  <outline>
    <contour>
      <point x="1021" y="1311" type="curve" smooth="yes"/>
      <point x="1261" y="1311"/>
      <point x="1458" y="1137"/>
      <point x="1458" y="853" type="curve" smooth="yes"/>
      <point x="1458" y="799"/>
      <point x="1451" y="741"/>
      <point x="1436" y="680" type="curve" smooth="yes"/>
      <point x="1340" y="296"/>
      <point x="1053" y="135"/>
      <point x="768" y="135" type="curve" smooth="yes"/>
      <point x="523" y="135"/>
      <point x="321" y="305"/>
      <point x="321" y="588" type="curve" smooth="yes"/>
      <point x="321" y="641"/>
      <point x="328" y="698"/>
      <point x="343" y="758" type="curve" smooth="yes"/>
      <point x="439" y="1142"/>
      <point x="731" y="1311"/>
    </contour>
    <contour>
      <point x="1061" y="1470" type="curve" smooth="yes"/>
      <point x="690" y="1470"/>
      <point x="300" y="1265"/>
      <point x="177" y="770" type="curve" smooth="yes"/>
      <point x="157" y="691"/>
      <point x="148" y="617"/>
      <point x="148" y="549" type="curve" smooth="yes"/>
      <point x="148" y="181"/>
      <point x="415" y="-25"/>
      <point x="728" y="-25" type="curve" smooth="yes"/>
      <point x="1083" y="-25"/>
      <point x="1487" y="177"/>
      <point x="1613" y="682" type="curve" smooth="yes"/>
      <point x="1631" y="756"/>
      <point x="1640" y="825"/>
      <point x="1640" y="890" type="curve" smooth="yes"/>
      <point x="1640" y="1258"/>
      <point x="1363" y="1470"/>
    </contour>
    <contour>
      <point x="732" y="643" type="line"/>
      <point x="815" y="643" type="line"/>
      <point x="947" y="298" type="line"/>
      <point x="1156" y="298" type="line"/>
      <point x="1133" y="334"/>
      <point x="1030" y="574"/>
      <point x="986" y="665" type="curve"/>
      <point x="1100" y="702"/>
      <point x="1186" y="741"/>
      <point x="1221" y="880" type="curve" smooth="yes"/>
      <point x="1227" y="905"/>
      <point x="1230" y="929"/>
      <point x="1230" y="951" type="curve" smooth="yes"/>
      <point x="1230" y="1087"/>
      <point x="1117" y="1163"/>
      <point x="959" y="1163" type="curve" smooth="yes"/>
      <point x="821" y="1163"/>
      <point x="681" y="1157"/>
      <point x="681" y="1157" type="curve"/>
      <point x="678" y="1110"/>
      <point x="651" y="1001"/>
      <point x="622" y="886" type="curve" smooth="yes"/>
      <point x="540" y="554" type="line" smooth="yes"/>
      <point x="511" y="439"/>
      <point x="489" y="346"/>
      <point x="467" y="298" type="curve"/>
      <point x="654" y="298" type="line"/>
      <point x="658" y="345"/>
      <point x="681" y="439"/>
      <point x="710" y="554" type="curve" smooth="yes"/>
    </contour>
    <contour>
      <point x="829" y="1023" type="line"/>
      <point x="861" y="1025"/>
      <point x="869" y="1026"/>
      <point x="913" y="1026" type="curve" smooth="yes"/>
      <point x="1001" y="1026"/>
      <point x="1053" y="997"/>
      <point x="1053" y="934" type="curve" smooth="yes"/>
      <point x="1053" y="923"/>
      <point x="1051" y="911"/>
      <point x="1048" y="898" type="curve" smooth="yes"/>
      <point x="1023" y="798"/>
      <point x="954" y="773"/>
      <point x="856" y="773" type="curve" smooth="yes"/>
      <point x="766" y="773" type="line"/>
    </contour>
  </outline>
</glyph>
<glyph name="Macron" format="1">
  <advance width="810"/>
  <unicode hex="00AF"/>
  <outline>
    <contour>
      <point x="246" y="1228" type="line" name="hr00"/>
      <point x="1076" y="1228" type="line"/>
      <point x="1127" y="1435" type="line"/>
      <point x="297" y="1435" type="line"/>
    </contour>
  </outline>
</glyph>
<glyph name="DegreeSgn" format="1">
  <advance width="695"/>
  <unicode hex="00B0"/>
  <outline>
    <contour>
      <point x="566" y="1030" type="curve" smooth="yes" name="hr00"/>
      <point x="496" y="1030"/>
      <point x="441" y="1089"/>
      <point x="441" y="1157" type="curve" smooth="yes"/>
      <point x="441" y="1252"/>
      <point x="533" y="1322"/>
      <point x="619" y="1322" type="curve" smooth="yes"/>
      <point x="689" y="1322"/>
      <point x="739" y="1268"/>
      <point x="739" y="1201" type="curve" smooth="yes"/>
      <point x="739" y="1107"/>
      <point x="653" y="1030"/>
    </contour>
    <contour>
      <point x="288" y="1121" type="curve" smooth="yes"/>
      <point x="288" y="986"/>
      <point x="385" y="881"/>
      <point x="529" y="881" type="curve" smooth="yes"/>
      <point x="728" y="881"/>
      <point x="895" y="1056"/>
      <point x="895" y="1241" type="curve" smooth="yes"/>
      <point x="895" y="1373"/>
      <point x="799" y="1470"/>
      <point x="656" y="1470" type="curve" smooth="yes"/>
      <point x="459" y="1470"/>
      <point x="288" y="1307"/>
    </contour>
  </outline>
</glyph>
<glyph name="PlusMinusSgn" format="1">
  <advance width="1180"/>
  <unicode hex="00B1"/>
  <outline>
    <contour>
      <point x="766" y="1351" type="line" name="hr00"/>
      <point x="545" y="465" type="line"/>
      <point x="760" y="465" type="line"/>
      <point x="981" y="1351" type="line"/>
    </contour>
    <contour>
      <point x="293" y="797" type="line"/>
      <point x="1183" y="797" type="line"/>
      <point x="1235" y="1005" type="line"/>
      <point x="345" y="1005" type="line"/>
    </contour>
    <contour>
      <point x="134" y="158" type="line"/>
      <point x="1024" y="158" type="line"/>
      <point x="1076" y="366" type="line"/>
      <point x="186" y="366" type="line"/>
    </contour>
  </outline>
</glyph>
<glyph name="SupTwo" format="1">
  <advance width="820"/>
  <unicode hex="00B2"/>
  <outline>
    <contour>
      <point x="878" y="840" type="line" name="hr00"/>
      <point x="819" y="832"/>
      <point x="771" y="831"/>
      <point x="633" y="831" type="curve" smooth="yes"/>
      <point x="448" y="831" type="line"/>
      <point x="725" y="993"/>
      <point x="991" y="1184"/>
      <point x="991" y="1404" type="curve" smooth="yes"/>
      <point x="991" y="1534"/>
      <point x="886" y="1628"/>
      <point x="704" y="1628" type="curve" smooth="yes"/>
      <point x="579" y="1628"/>
      <point x="442" y="1575"/>
      <point x="366" y="1503" type="curve"/>
      <point x="374" y="1348" type="line"/>
      <point x="454" y="1418"/>
      <point x="564" y="1468"/>
      <point x="645" y="1468" type="curve" smooth="yes"/>
      <point x="735" y="1468"/>
      <point x="776" y="1413"/>
      <point x="776" y="1349" type="curve" smooth="yes"/>
      <point x="776" y="1196"/>
      <point x="462" y="959"/>
      <point x="185" y="815" type="curve"/>
      <point x="147" y="673" type="line"/>
      <point x="833" y="673" type="line"/>
    </contour>
    <contour>
      <point x="513" y="615" type="move" name="L"/>
    </contour>
    <contour>
      <point x="778" y="1675" type="move" name="U"/>
    </contour>
  </outline>
</glyph>
<glyph name="SupThree" format="2">
  <advance width="826"/>
  <unicode hex="00B3"/>
  <anchor x="500" y="615" name="L"/>
  <anchor x="785" y="1674" name="U"/>
  <outline>
    <contour>
      <point x="524" y="1249" type="line"/>
      <point x="482" y="1095" type="line"/>
      <point x="545" y="1095" type="line" smooth="yes"/>
      <point x="685" y="1095"/>
      <point x="756" y="1041"/>
      <point x="756" y="974" type="curve" smooth="yes"/>
      <point x="756" y="872"/>
      <point x="648" y="815"/>
      <point x="543" y="815" type="curve" smooth="yes"/>
      <point x="410" y="815"/>
      <point x="317" y="861"/>
      <point x="262" y="941" type="curve"/>
      <point x="190" y="764" type="line"/>
      <point x="253" y="701"/>
      <point x="365" y="664"/>
      <point x="503" y="664" type="curve" smooth="yes"/>
      <point x="747" y="664"/>
      <point x="954" y="790"/>
      <point x="954" y="986" type="curve" smooth="yes"/>
      <point x="954" y="1099"/>
      <point x="839" y="1168"/>
      <point x="757" y="1182" type="curve"/>
      <point x="893" y="1211"/>
      <point x="1047" y="1306"/>
      <point x="1047" y="1442" type="curve" smooth="yes"/>
      <point x="1047" y="1556"/>
      <point x="918" y="1636"/>
      <point x="739" y="1636" type="curve" smooth="yes"/>
      <point x="622" y="1636"/>
      <point x="510" y="1591"/>
      <point x="439" y="1533" type="curve"/>
      <point x="424" y="1385" type="line"/>
      <point x="522" y="1459"/>
      <point x="605" y="1484"/>
      <point x="713" y="1484" type="curve" smooth="yes"/>
      <point x="790" y="1484"/>
      <point x="841" y="1446"/>
      <point x="841" y="1395" type="curve" smooth="yes"/>
      <point x="841" y="1314"/>
      <point x="713" y="1249"/>
      <point x="587" y="1249" type="curve" smooth="yes"/>
    </contour>
  </outline>
</glyph>
<glyph name="AcuteAccent" format="1">
  <advance width="620"/>
  <unicode hex="00B4"/>
  <outline>
    <contour>
      <point x="535" y="1584" type="line" name="hr00"/>
      <point x="177" y="1188" type="line"/>
      <point x="417" y="1188" type="line"/>
      <point x="904" y="1584" type="line"/>
    </contour>
    <contour>
      <point x="538" y="1635" type="move" name="U"/>
    </contour>
  </outline>
</glyph>
<glyph name="PilcrowSgn" format="2">
  <advance width="1085"/>
  <unicode hex="00B6"/>
  <outline>
    <contour>
      <point x="1309" y="1302" type="line"/>
      <point x="1345" y="1445" type="line"/>
      <point x="760" y="1445" type="line" smooth="yes"/>
      <point x="489" y="1445"/>
      <point x="249" y="1284"/>
      <point x="249" y="1013" type="curve" smooth="yes"/>
      <point x="249" y="808"/>
      <point x="428" y="738"/>
      <point x="564" y="738" type="curve"/>
      <point x="380" y="0" type="line"/>
      <point x="545" y="0" type="line"/>
      <point x="869" y="1302" type="line"/>
      <point x="1029" y="1302" type="line"/>
      <point x="705" y="0" type="line"/>
      <point x="870" y="0" type="line"/>
      <point x="1194" y="1302" type="line"/>
    </contour>
  </outline>
</glyph>
<glyph name="MiddleDot" format="1">
  <advance width="720"/>
  <unicode hex="00B7"/>
  <outline>
    <contour>
      <point x="350" y="670" type="curve" smooth="yes" name="hr00"/>
      <point x="350" y="589"/>
      <point x="411" y="529"/>
      <point x="497" y="529" type="curve" smooth="yes"/>
      <point x="616" y="529"/>
      <point x="710" y="624"/>
      <point x="710" y="735" type="curve" smooth="yes"/>
      <point x="710" y="816"/>
      <point x="650" y="876"/>
      <point x="563" y="876" type="curve" smooth="yes"/>
      <point x="446" y="876"/>
      <point x="350" y="780"/>
    </contour>
  </outline>
</glyph>
<glyph name="Cedilla" format="1">
  <advance width="400"/>
  <unicode hex="00B8"/>
  <outline>
    <contour>
      <point x="11" y="50" type="line" name="hr00"/>
      <point x="-53" y="-213" type="line"/>
      <point x="-29" y="-203"/>
      <point x="15" y="-193"/>
      <point x="52" y="-193" type="curve" smooth="yes"/>
      <point x="95" y="-193"/>
      <point x="126" y="-219"/>
      <point x="126" y="-253" type="curve" smooth="yes"/>
      <point x="126" y="-320"/>
      <point x="46" y="-351"/>
      <point x="-7" y="-351" type="curve" smooth="yes"/>
      <point x="-54" y="-351"/>
      <point x="-105" y="-340"/>
      <point x="-129" y="-317" type="curve"/>
      <point x="-171" y="-446" type="line"/>
      <point x="-135" y="-468"/>
      <point x="-67" y="-485"/>
      <point x="-15" y="-485" type="curve" smooth="yes"/>
      <point x="135" y="-485"/>
      <point x="300" y="-381"/>
      <point x="300" y="-230" type="curve" smooth="yes"/>
      <point x="300" y="-158"/>
      <point x="253" y="-99"/>
      <point x="169" y="-99" type="curve" smooth="yes"/>
      <point x="147" y="-99"/>
      <point x="133" y="-101"/>
      <point x="120" y="-104" type="curve"/>
      <point x="156" y="50" type="line"/>
    </contour>
    <contour>
      <point x="0" y="-530" type="move" name="L"/>
    </contour>
  </outline>
</glyph>
<glyph name="SupOne" format="1">
  <advance width="820"/>
  <unicode hex="00B9"/>
  <outline>
    <contour>
      <point x="432" y="824" type="line" name="hr00"/>
      <point x="217" y="824" type="line"/>
      <point x="177" y="673" type="line"/>
      <point x="800" y="673" type="line"/>
      <point x="840" y="824" type="line"/>
      <point x="624" y="824" type="line"/>
      <point x="836" y="1612" type="line"/>
      <point x="643" y="1612" type="line"/>
      <point x="391" y="1495" type="line"/>
      <point x="371" y="1328" type="line"/>
      <point x="593" y="1426" type="line"/>
    </contour>
    <contour>
      <point x="513" y="615" type="move" name="L"/>
    </contour>
    <contour>
      <point x="778" y="1675" type="move" name="U"/>
    </contour>
  </outline>
</glyph>
<glyph name="MascOrdIndicator" format="1">
  <advance width="780"/>
  <unicode hex="00BA"/>
  <outline>
    <contour>
      <point x="502" y="657" type="curve" smooth="yes" name="hr00"/>
      <point x="747" y="666"/>
      <point x="923" y="840"/>
      <point x="923" y="1075" type="curve" smooth="yes"/>
      <point x="923" y="1238"/>
      <point x="811" y="1342"/>
      <point x="647" y="1342" type="curve" smooth="yes"/>
      <point x="406" y="1342"/>
      <point x="227" y="1146"/>
      <point x="227" y="922" type="curve" smooth="yes"/>
      <point x="227" y="760"/>
      <point x="339" y="657"/>
    </contour>
    <contour>
      <point x="536" y="805" type="curve" smooth="yes"/>
      <point x="462" y="805"/>
      <point x="424" y="858"/>
      <point x="424" y="939" type="curve" smooth="yes"/>
      <point x="424" y="1058"/>
      <point x="485" y="1194"/>
      <point x="615" y="1194" type="curve" smooth="yes"/>
      <point x="688" y="1194"/>
      <point x="727" y="1141"/>
      <point x="727" y="1058" type="curve" smooth="yes"/>
      <point x="727" y="941"/>
      <point x="665" y="805"/>
    </contour>
    <contour>
      <point x="119" y="446" type="line"/>
      <point x="794" y="446" type="line"/>
      <point x="831" y="595" type="line"/>
      <point x="156" y="595" type="line"/>
    </contour>
  </outline>
</glyph>
<glyph name="RtPtngDblAngQuotMrk" format="1">
  <advance width="1280"/>
  <unicode hex="00BB"/>
  <outline>
    <contour>
      <point x="807" y="0" type="line" name="hr00"/>
      <point x="1351" y="507" type="line"/>
      <point x="1031" y="1010" type="line"/>
      <point x="796" y="1010" type="line"/>
      <point x="1061" y="507" type="line"/>
      <point x="545" y="0" type="line"/>
    </contour>
    <contour>
      <point x="317" y="0" type="line"/>
      <point x="861" y="507" type="line"/>
      <point x="541" y="1010" type="line"/>
      <point x="306" y="1010" type="line"/>
      <point x="571" y="507" type="line"/>
      <point x="55" y="0" type="line"/>
    </contour>
  </outline>
</glyph>
<glyph name="VulgFracOneQuarter" format="2">
  <advance width="1716"/>
  <unicode hex="00BC"/>
  <outline>
    <contour>
      <point x="1682" y="1584" type="line"/>
      <point x="204" y="-50" type="line"/>
      <point x="384" y="-50" type="line"/>
      <point x="1863" y="1584" type="line"/>
    </contour>
    <contour>
      <point x="397" y="812" type="line"/>
      <point x="202" y="812" type="line"/>
      <point x="165" y="663" type="line"/>
      <point x="701" y="663" type="line"/>
      <point x="738" y="812" type="line"/>
      <point x="562" y="812" type="line"/>
      <point x="752" y="1574" type="line"/>
      <point x="587" y="1574" type="line"/>
      <point x="353" y="1459" type="line"/>
      <point x="339" y="1295" type="line"/>
      <point x="541" y="1391" type="line"/>
    </contour>
    <contour>
      <point x="1670" y="218" type="line"/>
      <point x="1705" y="359" type="line"/>
      <point x="1164" y="359" type="line"/>
      <point x="1525" y="724" type="line"/>
      <point x="1345" y="0" type="line"/>
      <point x="1514" y="0" type="line"/>
      <point x="1744" y="923" type="line"/>
      <point x="1543" y="923" type="line"/>
      <point x="998" y="359" type="line"/>
      <point x="963" y="218" type="line"/>
    </contour>
  </outline>
</glyph>
<glyph name="VulgFracThreeQuarters" format="2">
  <advance width="1716"/>
  <unicode hex="00BE"/>
  <outline>
    <contour>
      <point x="455" y="1211" type="line"/>
      <point x="418" y="1059" type="line"/>
      <point x="475" y="1059" type="line" smooth="yes"/>
      <point x="602" y="1059"/>
      <point x="668" y="1007"/>
      <point x="668" y="941" type="curve" smooth="yes"/>
      <point x="668" y="839"/>
      <point x="557" y="786"/>
      <point x="471" y="786" type="curve" smooth="yes"/>
      <point x="379" y="786"/>
      <point x="288" y="841"/>
      <point x="238" y="909" type="curve"/>
      <point x="173" y="736" type="line"/>
      <point x="223" y="683"/>
      <point x="329" y="638"/>
      <point x="432" y="638" type="curve" smooth="yes"/>
      <point x="628" y="638"/>
      <point x="847" y="746"/>
      <point x="847" y="950" type="curve" smooth="yes"/>
      <point x="847" y="1074"/>
      <point x="743" y="1132"/>
      <point x="668" y="1144" type="curve"/>
      <point x="791" y="1172"/>
      <point x="930" y="1257"/>
      <point x="930" y="1391" type="curve" smooth="yes"/>
      <point x="930" y="1505"/>
      <point x="814" y="1589"/>
      <point x="651" y="1589" type="curve" smooth="yes"/>
      <point x="555" y="1589"/>
      <point x="434" y="1545"/>
      <point x="369" y="1488" type="curve"/>
      <point x="354" y="1343" type="line"/>
      <point x="445" y="1417"/>
      <point x="532" y="1440"/>
      <point x="630" y="1440" type="curve" smooth="yes"/>
      <point x="687" y="1440"/>
      <point x="744" y="1404"/>
      <point x="744" y="1354" type="curve" smooth="yes"/>
      <point x="744" y="1254"/>
      <point x="587" y="1211"/>
      <point x="512" y="1211" type="curve" smooth="yes"/>
    </contour>
    <contour>
      <point x="1657" y="1584" type="line"/>
      <point x="179" y="-50" type="line"/>
      <point x="359" y="-50" type="line"/>
      <point x="1838" y="1584" type="line"/>
    </contour>
    <contour>
      <point x="1650" y="218" type="line"/>
      <point x="1685" y="359" type="line"/>
      <point x="1144" y="359" type="line"/>
      <point x="1505" y="724" type="line"/>
      <point x="1325" y="0" type="line"/>
      <point x="1494" y="0" type="line"/>
      <point x="1724" y="923" type="line"/>
      <point x="1523" y="923" type="line"/>
      <point x="978" y="359" type="line"/>
      <point x="943" y="218" type="line"/>
    </contour>
  </outline>
</glyph>
<glyph name="InvQstnMrk" format="1">
  <advance width="1070"/>
  <unicode hex="00BF"/>
  <outline>
    <contour>
      <point x="484" y="579" type="line" name="hr00"/>
      <point x="442" y="410"/>
      <point x="381" y="277"/>
      <point x="244" y="128" type="curve" smooth="yes"/>
      <point x="143" y="17"/>
      <point x="37" y="-50"/>
      <point x="37" y="-193" type="curve" smooth="yes"/>
      <point x="37" y="-340"/>
      <point x="164" y="-450"/>
      <point x="387" y="-450" type="curve" smooth="yes"/>
      <point x="532" y="-450"/>
      <point x="679" y="-381"/>
      <point x="760" y="-319" type="curve"/>
      <point x="774" y="-82" type="line"/>
      <point x="679" y="-160"/>
      <point x="566" y="-208"/>
      <point x="466" y="-208" type="curve" smooth="yes"/>
      <point x="381" y="-208"/>
      <point x="336" y="-183"/>
      <point x="336" y="-135" type="curve" smooth="yes"/>
      <point x="336" y="-71"/>
      <point x="417" y="2"/>
      <point x="510" y="104" type="curve" smooth="yes"/>
      <point x="589" y="190"/>
      <point x="677" y="320"/>
      <point x="749" y="579" type="curve"/>
    </contour>
    <contour>
      <point x="881" y="960" type="curve" smooth="yes"/>
      <point x="881" y="1041"/>
      <point x="820" y="1099"/>
      <point x="734" y="1099" type="curve" smooth="yes"/>
      <point x="615" y="1099"/>
      <point x="520" y="1004"/>
      <point x="520" y="893" type="curve" smooth="yes"/>
      <point x="520" y="812"/>
      <point x="580" y="752"/>
      <point x="667" y="752" type="curve" smooth="yes"/>
      <point x="785" y="752"/>
      <point x="881" y="850"/>
    </contour>
  </outline>
</glyph>
<glyph name="LtnCapAAcute" format="1">
  <advance width="1465"/>
  <unicode hex="00C1"/>
  <outline>
    <component base="LtnCapA"/>
    <component base="CombAcute" xOffset="1380" yOffset="430"/>
    <contour>
      <point x="1215" y="0" type="move" name="H"/>
    </contour>
    <contour>
      <point x="650" y="-100" type="move" name="L"/>
    </contour>
    <contour>
      <point x="1435" y="0" type="move" name="O"/>
    </contour>
    <contour>
      <point x="1129" y="2065" type="move" name="U"/>
    </contour>
  </outline>
</glyph>
<glyph name="LtnCapADiaer" format="1">
  <advance width="1465"/>
  <unicode hex="00C4"/>
  <outline>
    <component base="LtnCapA"/>
    <component base="CombDiaer" xOffset="1420" yOffset="430"/>
    <contour>
      <point x="1215" y="0" type="move" name="H"/>
    </contour>
    <contour>
      <point x="650" y="-100" type="move" name="L"/>
    </contour>
    <contour>
      <point x="1435" y="0" type="move" name="O"/>
    </contour>
    <contour>
      <point x="1177" y="2015" type="move" name="U"/>
    </contour>
  </outline>
</glyph>
<glyph name="LtnCapARingAbv" format="1">
  <advance width="1465"/>
  <unicode hex="00C5"/>
  <outline>
    <component base="LtnCapA"/>
    <component base="CombRingAbv" xOffset="1412" yOffset="430"/>
    <contour>
      <point x="1215" y="0" type="move" name="H"/>
    </contour>
    <contour>
      <point x="650" y="-100" type="move" name="L"/>
    </contour>
    <contour>
      <point x="1435" y="0" type="move" name="O"/>
    </contour>
    <contour>
      <point x="1191" y="2065" type="move" name="U"/>
    </contour>
  </outline>
</glyph>
<glyph name="LtnCapAe" format="1">
  <advance width="1806"/>
  <unicode hex="00C6"/>
  <outline>
    <contour>
      <point x="1711" y="643" type="line" name="hr00"/>
      <point x="1766" y="866" type="line"/>
      <point x="1319" y="866" type="line"/>
      <point x="1407" y="1218" type="line"/>
      <point x="1929" y="1218" type="line"/>
      <point x="1986" y="1445" type="line"/>
      <point x="1016" y="1445" type="line"/>
      <point x="203" y="351" type="line" smooth="yes"/>
      <point x="64" y="164"/>
      <point x="-2" y="80"/>
      <point x="-70" y="0" type="curve"/>
      <point x="248" y="0" type="line"/>
      <point x="500" y="351" type="line"/>
      <point x="905" y="351" type="line"/>
      <point x="845" y="116"/>
      <point x="823" y="45"/>
      <point x="804" y="0" type="curve"/>
      <point x="1656" y="0" type="line"/>
      <point x="1716" y="243" type="line"/>
      <point x="1635" y="229"/>
      <point x="1509" y="228"/>
      <point x="1318" y="228" type="curve" smooth="yes"/>
      <point x="1160" y="228" type="line"/>
      <point x="1264" y="643" type="line"/>
    </contour>
    <contour>
      <point x="959" y="564" type="line"/>
      <point x="653" y="564" type="line"/>
      <point x="1123" y="1218" type="line"/>
    </contour>
    <contour>
      <point x="925" y="-100" type="move" name="L"/>
    </contour>
    <contour>
      <point x="1332" y="1530" type="move" name="U"/>
    </contour>
  </outline>
</glyph>
<glyph name="LtnCapEGrave" format="1">
  <advance width="1192"/>
  <unicode hex="00C8"/>
  <outline>
    <component base="LtnCapE"/>
    <component base="CombGrave" xOffset="1347" yOffset="430"/>
    <contour>
      <point x="550" y="0" type="move" name="H"/>
    </contour>
    <contour>
      <point x="525" y="-100" type="move" name="L"/>
    </contour>
    <contour>
      <point x="944" y="0" type="move" name="O"/>
    </contour>
    <contour>
      <point x="1487" y="1200" type="move" name="R"/>
    </contour>
    <contour>
      <point x="1106" y="2065" type="move" name="U"/>
    </contour>
  </outline>
</glyph>
<glyph name="LtnCapECircum" format="1">
  <advance width="1192"/>
  <unicode hex="00CA"/>
  <outline>
    <component base="LtnCapE"/>
    <component base="CombCircum" xOffset="1262" yOffset="430"/>
    <contour>
      <point x="550" y="0" type="move" name="H"/>
    </contour>
    <contour>
      <point x="525" y="-100" type="move" name="L"/>
    </contour>
    <contour>
      <point x="944" y="0" type="move" name="O"/>
    </contour>
    <contour>
      <point x="1487" y="1200" type="move" name="R"/>
    </contour>
    <contour>
      <point x="1023" y="2065" type="move" name="U"/>
    </contour>
  </outline>
</glyph>
<glyph name="LtnCapEDiaer" format="1">
  <advance width="1192"/>
  <unicode hex="00CB"/>
  <outline>
    <component base="LtnCapE"/>
    <component base="CombDiaer" xOffset="1297" yOffset="430"/>
    <contour>
      <point x="550" y="0" type="move" name="H"/>
    </contour>
    <contour>
      <point x="525" y="-100" type="move" name="L"/>
    </contour>
    <contour>
      <point x="944" y="0" type="move" name="O"/>
    </contour>
    <contour>
      <point x="1487" y="1200" type="move" name="R"/>
    </contour>
    <contour>
      <point x="1054" y="2015" type="move" name="U"/>
    </contour>
  </outline>
</glyph>
<glyph name="LtnCapIGrave" format="1">
  <advance width="1025"/>
  <unicode hex="00CC"/>
  <outline>
    <component base="LtnCapI"/>
    <component base="CombGrave" xOffset="1255" yOffset="430"/>
    <contour>
      <point x="460" y="0" type="move" name="H"/>
    </contour>
    <contour>
      <point x="430" y="-100" type="move" name="L"/>
    </contour>
    <contour>
      <point x="650" y="0" type="move" name="O"/>
    </contour>
    <contour>
      <point x="1255" y="1200" type="move" name="R"/>
    </contour>
    <contour>
      <point x="1014" y="2065" type="move" name="U"/>
    </contour>
  </outline>
</glyph>
<glyph name="LtnCapIAcute" format="1">
  <advance width="1025"/>
  <unicode hex="00CD"/>
  <outline>
    <component base="LtnCapI"/>
    <component base="CombAcute" xOffset="1165" yOffset="430"/>
    <contour>
      <point x="460" y="0" type="move" name="H"/>
    </contour>
    <contour>
      <point x="430" y="-100" type="move" name="L"/>
    </contour>
    <contour>
      <point x="650" y="0" type="move" name="O"/>
    </contour>
    <contour>
      <point x="1255" y="1200" type="move" name="R"/>
    </contour>
    <contour>
      <point x="914" y="2065" type="move" name="U"/>
    </contour>
  </outline>
</glyph>
<glyph name="LtnCapIDiaer" format="1">
  <advance width="1025"/>
  <unicode hex="00CF"/>
  <outline>
    <component base="LtnCapI"/>
    <component base="CombDiaer" xOffset="1205" yOffset="430"/>
    <contour>
      <point x="460" y="0" type="move" name="H"/>
    </contour>
    <contour>
      <point x="430" y="-100" type="move" name="L"/>
    </contour>
    <contour>
      <point x="650" y="0" type="move" name="O"/>
    </contour>
    <contour>
      <point x="1255" y="1200" type="move" name="R"/>
    </contour>
    <contour>
      <point x="962" y="2015" type="move" name="U"/>
    </contour>
  </outline>
</glyph>
<glyph name="LtnCapEth" format="2">
  <advance width="1480"/>
  <unicode hex="00D0"/>
  <anchor x="645" y="-100" name="L"/>
  <anchor x="1052" y="1530" name="U"/>
  <outline>
    <contour>
      <point x="161" y="845" type="line"/>
      <point x="110" y="638" type="line"/>
      <point x="905" y="638" type="line"/>
      <point x="956" y="845" type="line"/>
    </contour>
    <contour>
      <point x="232" y="450" type="line" smooth="yes"/>
      <point x="182" y="251"/>
      <point x="139" y="79"/>
      <point x="105" y="0" type="curve"/>
      <point x="105" y="0"/>
      <point x="446" y="-10"/>
      <point x="581" y="-10" type="curve" smooth="yes"/>
      <point x="1051" y="-10"/>
      <point x="1376" y="195"/>
      <point x="1486" y="648" type="curve" smooth="yes"/>
      <point x="1509" y="742"/>
      <point x="1520" y="827"/>
      <point x="1520" y="902" type="curve" smooth="yes"/>
      <point x="1520" y="1325"/>
      <point x="1187" y="1455"/>
      <point x="927" y="1455" type="curve" smooth="yes"/>
      <point x="784" y="1455"/>
      <point x="555" y="1451"/>
      <point x="465" y="1445" type="curve"/>
      <point x="460" y="1371"/>
      <point x="419" y="1205"/>
      <point x="374" y="1024" type="curve" smooth="yes"/>
    </contour>
    <contour>
      <point x="711" y="1229" type="line"/>
      <point x="753" y="1231"/>
      <point x="824" y="1234"/>
      <point x="879" y="1234" type="curve" smooth="yes"/>
      <point x="1092" y="1234"/>
      <point x="1227" y="1104"/>
      <point x="1227" y="871" type="curve" smooth="yes"/>
      <point x="1227" y="805"/>
      <point x="1216" y="731"/>
      <point x="1196" y="647" type="curve" smooth="yes"/>
      <point x="1123" y="346"/>
      <point x="945" y="219"/>
      <point x="662" y="219" type="curve" smooth="yes"/>
      <point x="583" y="219"/>
      <point x="500" y="225"/>
      <point x="462" y="229" type="curve"/>
    </contour>
  </outline>
</glyph>
<glyph name="LtnCapNTilde" format="1">
  <advance width="1525"/>
  <unicode hex="00D1"/>
  <outline>
    <component base="LtnCapN"/>
    <component base="CombTilde" xOffset="1477" yOffset="430"/>
    <contour>
      <point x="1180" y="0" type="move" name="H"/>
    </contour>
    <contour>
      <point x="680" y="-100" type="move" name="L"/>
    </contour>
    <contour>
      <point x="1122" y="1920" type="move" name="U"/>
    </contour>
  </outline>
</glyph>
<glyph name="LtnCapOGrave" format="1">
  <advance width="1480"/>
  <unicode hex="00D2"/>
  <outline>
    <component base="LtnCapO"/>
    <component base="CombGrave" xOffset="1480" yOffset="430"/>
    <contour>
      <point x="680" y="0" type="move" name="H"/>
    </contour>
    <contour>
      <point x="655" y="-100" type="move" name="L"/>
    </contour>
    <contour>
      <point x="916" y="0" type="move" name="O"/>
    </contour>
    <contour>
      <point x="1720" y="1200" type="move" name="R"/>
    </contour>
    <contour>
      <point x="1239" y="2065" type="move" name="U"/>
    </contour>
  </outline>
</glyph>
<glyph name="LtnCapOAcute" format="1">
  <advance width="1480"/>
  <unicode hex="00D3"/>
  <outline>
    <component base="LtnCapO"/>
    <component base="CombAcute" xOffset="1390" yOffset="430"/>
    <contour>
      <point x="680" y="0" type="move" name="H"/>
    </contour>
    <contour>
      <point x="655" y="-100" type="move" name="L"/>
    </contour>
    <contour>
      <point x="916" y="0" type="move" name="O"/>
    </contour>
    <contour>
      <point x="1720" y="1200" type="move" name="R"/>
    </contour>
    <contour>
      <point x="1139" y="2065" type="move" name="U"/>
    </contour>
  </outline>
</glyph>
<glyph name="LtnCapOTilde" format="1">
  <advance width="1480"/>
  <unicode hex="00D5"/>
  <outline>
    <component base="LtnCapO"/>
    <component base="CombTilde" xOffset="1455" yOffset="430"/>
    <contour>
      <point x="680" y="0" type="move" name="H"/>
    </contour>
    <contour>
      <point x="655" y="-100" type="move" name="L"/>
    </contour>
    <contour>
      <point x="916" y="0" type="move" name="O"/>
    </contour>
    <contour>
      <point x="1720" y="1200" type="move" name="R"/>
    </contour>
    <contour>
      <point x="1100" y="1920" type="move" name="U"/>
    </contour>
  </outline>
</glyph>
<glyph name="LtnCapODiaer" format="1">
  <advance width="1480"/>
  <unicode hex="00D6"/>
  <outline>
    <component base="LtnCapO"/>
    <component base="CombDiaer" xOffset="1430" yOffset="430"/>
    <contour>
      <point x="680" y="0" type="move" name="H"/>
    </contour>
    <contour>
      <point x="655" y="-100" type="move" name="L"/>
    </contour>
    <contour>
      <point x="916" y="0" type="move" name="O"/>
    </contour>
    <contour>
      <point x="1720" y="1200" type="move" name="R"/>
    </contour>
    <contour>
      <point x="1187" y="2015" type="move" name="U"/>
    </contour>
  </outline>
</glyph>
<glyph name="MultSgn" format="2">
  <advance width="1180"/>
  <unicode hex="00D7"/>
  <outline>
    <contour>
      <point x="345" y="997" type="line"/>
      <point x="568" y="728" type="line"/>
      <point x="268" y="460" type="line"/>
      <point x="403" y="298" type="line"/>
      <point x="698" y="557" type="line"/>
      <point x="915" y="290" type="line"/>
      <point x="1084" y="435" type="line"/>
      <point x="867" y="702" type="line"/>
      <point x="1173" y="968" type="line"/>
      <point x="1031" y="1135" type="line"/>
      <point x="737" y="872" type="line"/>
      <point x="514" y="1142" type="line"/>
    </contour>
  </outline>
</glyph>
<glyph name="LtnCapUGrave" format="1">
  <advance width="1470"/>
  <unicode hex="00D9"/>
  <outline>
    <component base="LtnCapU"/>
    <component base="CombGrave" xOffset="1469" yOffset="430"/>
    <contour>
      <point x="672" y="0" type="move" name="H"/>
    </contour>
    <contour>
      <point x="647" y="-100" type="move" name="L"/>
    </contour>
    <contour>
      <point x="890" y="0" type="move" name="O"/>
    </contour>
    <contour>
      <point x="1720" y="1200" type="move" name="R"/>
    </contour>
    <contour>
      <point x="1228" y="2065" type="move" name="U"/>
    </contour>
  </outline>
</glyph>
<glyph name="LtnCapUAcute" format="1">
  <advance width="1470"/>
  <unicode hex="00DA"/>
  <outline>
    <component base="LtnCapU"/>
    <component base="CombAcute" xOffset="1379" yOffset="430"/>
    <contour>
      <point x="672" y="0" type="move" name="H"/>
    </contour>
    <contour>
      <point x="647" y="-100" type="move" name="L"/>
    </contour>
    <contour>
      <point x="890" y="0" type="move" name="O"/>
    </contour>
    <contour>
      <point x="1720" y="1200" type="move" name="R"/>
    </contour>
    <contour>
      <point x="1128" y="2065" type="move" name="U"/>
    </contour>
  </outline>
</glyph>
<glyph name="LtnCapUDiaer" format="1">
  <advance width="1470"/>
  <unicode hex="00DC"/>
  <outline>
    <component base="LtnCapU"/>
    <component base="CombDiaer" xOffset="1419" yOffset="430"/>
    <contour>
      <point x="672" y="0" type="move" name="H"/>
    </contour>
    <contour>
      <point x="647" y="-100" type="move" name="L"/>
    </contour>
    <contour>
      <point x="890" y="0" type="move" name="O"/>
    </contour>
    <contour>
      <point x="1720" y="1200" type="move" name="R"/>
    </contour>
    <contour>
      <point x="1176" y="2015" type="move" name="U"/>
    </contour>
  </outline>
</glyph>
<glyph name="LtnCapYAcute" format="1">
  <advance width="1344"/>
  <unicode hex="00DD"/>
  <outline>
    <component base="LtnCapY"/>
    <component base="CombAcute" xOffset="1319" yOffset="430"/>
    <contour>
      <point x="587" y="-100" type="move" name="L"/>
    </contour>
    <contour>
      <point x="1068" y="2065" type="move" name="U"/>
    </contour>
  </outline>
</glyph>
<glyph name="LtnCapThorn" format="1">
  <advance width="1255"/>
  <unicode hex="00DE"/>
  <outline>
    <contour>
      <point x="405" y="0" type="line" name="hr00"/>
      <point x="410" y="77"/>
      <point x="419" y="119"/>
      <point x="468" y="315" type="curve"/>
      <point x="531" y="308"/>
      <point x="601" y="305"/>
      <point x="674" y="305" type="curve" smooth="yes"/>
      <point x="1052" y="305"/>
      <point x="1337" y="493"/>
      <point x="1337" y="862" type="curve" smooth="yes"/>
      <point x="1337" y="1095"/>
      <point x="1164" y="1252"/>
      <point x="890" y="1252" type="curve" smooth="yes"/>
      <point x="824" y="1252"/>
      <point x="771" y="1250"/>
      <point x="701" y="1250" type="curve"/>
      <point x="749" y="1440" type="line"/>
      <point x="449" y="1440" type="line"/>
      <point x="444" y="1361"/>
      <point x="400" y="1184"/>
      <point x="351" y="990" type="curve" smooth="yes"/>
      <point x="212" y="431" type="line" smooth="yes"/>
      <point x="163" y="236"/>
      <point x="123" y="79"/>
      <point x="90" y="0" type="curve"/>
    </contour>
    <contour>
      <point x="645" y="1025" type="line"/>
      <point x="702" y="1028"/>
      <point x="720" y="1030"/>
      <point x="798" y="1030" type="curve" smooth="yes"/>
      <point x="974" y="1030"/>
      <point x="1051" y="932"/>
      <point x="1051" y="816" type="curve" smooth="yes"/>
      <point x="1051" y="607"/>
      <point x="906" y="520"/>
      <point x="687" y="520" type="curve" smooth="yes"/>
      <point x="625" y="520"/>
      <point x="563" y="523"/>
      <point x="522" y="530" type="curve"/>
    </contour>
    <contour>
      <point x="615" y="-100" type="move" name="L"/>
    </contour>
    <contour>
      <point x="992" y="1530" type="move" name="U"/>
    </contour>
  </outline>
</glyph>
<glyph name="LtnSmSharpS" format="2">
  <advance width="1433"/>
  <unicode hex="00DF"/>
  <anchor x="623" y="-100" name="L"/>
  <anchor x="1078" y="1635" name="U"/>
  <outline>
    <contour>
      <point x="575" y="67" type="line"/>
      <point x="639" y="14"/>
      <point x="760" y="-25"/>
      <point x="870" y="-25" type="curve" smooth="yes"/>
      <point x="1136" y="-25"/>
      <point x="1385" y="101"/>
      <point x="1385" y="373" type="curve" smooth="yes"/>
      <point x="1385" y="473"/>
      <point x="1332" y="543"/>
      <point x="1221" y="640" type="curve" smooth="yes"/>
      <point x="1151" y="702"/>
      <point x="1082" y="743"/>
      <point x="1082" y="826" type="curve" smooth="yes"/>
      <point x="1082" y="963"/>
      <point x="1496" y="990"/>
      <point x="1496" y="1277" type="curve" smooth="yes"/>
      <point x="1496" y="1439"/>
      <point x="1349" y="1604"/>
      <point x="1048" y="1604" type="curve" smooth="yes"/>
      <point x="770" y="1604"/>
      <point x="485" y="1465"/>
      <point x="396" y="1109" type="curve" smooth="yes"/>
      <point x="241" y="489" type="line" smooth="yes"/>
      <point x="193" y="297"/>
      <point x="137" y="104"/>
      <point x="90" y="0" type="curve"/>
      <point x="400" y="0" type="line"/>
      <point x="681" y="1129" type="line" smooth="yes"/>
      <point x="718" y="1276"/>
      <point x="841" y="1383"/>
      <point x="1032" y="1383" type="curve" smooth="yes"/>
      <point x="1122" y="1383"/>
      <point x="1226" y="1334"/>
      <point x="1226" y="1261" type="curve" smooth="yes"/>
      <point x="1226" y="1089"/>
      <point x="805" y="1065"/>
      <point x="805" y="772" type="curve" smooth="yes"/>
      <point x="805" y="676"/>
      <point x="867" y="617"/>
      <point x="930" y="560" type="curve" smooth="yes"/>
      <point x="1045" y="455"/>
      <point x="1109" y="426"/>
      <point x="1109" y="334" type="curve" smooth="yes"/>
      <point x="1109" y="228"/>
      <point x="1003" y="198"/>
      <point x="919" y="198" type="curve" smooth="yes"/>
      <point x="827" y="198"/>
      <point x="734" y="233"/>
      <point x="681" y="290" type="curve"/>
    </contour>
  </outline>
</glyph>
<glyph name="LtnSmAGrave.SngStory" format="1">
  <advance width="1251"/>
  <unicode hex="00E0"/>
  <outline>
    <component base="LtnSmAlpha"/>
    <component base="CombGrave" xOffset="1280"/>
    <contour>
      <point x="980" y="0" type="move" name="H"/>
    </contour>
    <contour>
      <point x="565" y="-100" type="move" name="L"/>
    </contour>
    <contour>
      <point x="1165" y="0" type="move" name="O"/>
    </contour>
    <contour>
      <point x="1440" y="1000" type="move" name="R"/>
    </contour>
    <contour>
      <point x="1039" y="1635" type="move" name="U"/>
    </contour>
  </outline>
</glyph>
<glyph name="LtnSmAAcute.SngStory" format="1">
  <advance width="1251"/>
  <unicode hex="00E1"/>
  <outline>
    <component base="LtnSmAlpha"/>
    <component base="CombAcute" xOffset="1190"/>
    <contour>
      <point x="980" y="0" type="move" name="H"/>
    </contour>
    <contour>
      <point x="565" y="-100" type="move" name="L"/>
    </contour>
    <contour>
      <point x="1165" y="0" type="move" name="O"/>
    </contour>
    <contour>
      <point x="1440" y="1000" type="move" name="R"/>
    </contour>
    <contour>
      <point x="939" y="1635" type="move" name="U"/>
    </contour>
  </outline>
</glyph>
<glyph name="LtnSmADiaer.SngStory" format="1">
  <advance width="1251"/>
  <unicode hex="00E4"/>
  <outline>
    <component base="LtnSmAlpha"/>
    <component base="CombDiaer" xOffset="1230"/>
    <contour>
      <point x="980" y="0" type="move" name="H"/>
    </contour>
    <contour>
      <point x="565" y="-100" type="move" name="L"/>
    </contour>
    <contour>
      <point x="1165" y="0" type="move" name="O"/>
    </contour>
    <contour>
      <point x="1440" y="1000" type="move" name="R"/>
    </contour>
    <contour>
      <point x="987" y="1585" type="move" name="U"/>
    </contour>
  </outline>
</glyph>
<glyph name="LtnSmARingAbv.SngStory" format="1">
  <advance width="1251"/>
  <unicode hex="00E5"/>
  <outline>
    <component base="LtnSmAlpha"/>
    <component base="CombRingAbv" xOffset="1222"/>
    <contour>
      <point x="980" y="0" type="move" name="H"/>
    </contour>
    <contour>
      <point x="565" y="-100" type="move" name="L"/>
    </contour>
    <contour>
      <point x="1165" y="0" type="move" name="O"/>
    </contour>
    <contour>
      <point x="1440" y="1000" type="move" name="R"/>
    </contour>
    <contour>
      <point x="1001" y="1635" type="move" name="U"/>
    </contour>
  </outline>
</glyph>
<glyph name="LtnSmAe" format="1">
  <advance width="1762"/>
  <unicode hex="00E6"/>
  <outline>
    <contour>
      <point x="1688" y="303" type="line" name="hr00"/>
      <point x="1546" y="230"/>
      <point x="1414" y="198"/>
      <point x="1283" y="198" type="curve" smooth="yes"/>
      <point x="1150" y="198"/>
      <point x="1076" y="290"/>
      <point x="1076" y="402" type="curve" smooth="yes"/>
      <point x="1076" y="408"/>
      <point x="1076" y="414"/>
      <point x="1077" y="421" type="curve"/>
      <point x="1135" y="416"/>
      <point x="1197" y="413"/>
      <point x="1244" y="413" type="curve" smooth="yes"/>
      <point x="1610" y="413"/>
      <point x="1800" y="584"/>
      <point x="1800" y="774" type="curve" smooth="yes"/>
      <point x="1800" y="922"/>
      <point x="1668" y="1030"/>
      <point x="1453" y="1030" type="curve" smooth="yes"/>
      <point x="1317" y="1030"/>
      <point x="1179" y="991"/>
      <point x="1061" y="901" type="curve"/>
      <point x="1005" y="977"/>
      <point x="920" y="1030"/>
      <point x="781" y="1030" type="curve" smooth="yes"/>
      <point x="612" y="1030"/>
      <point x="514" y="994"/>
      <point x="389" y="940" type="curve"/>
      <point x="363" y="859"/>
      <point x="327" y="728"/>
      <point x="315" y="684" type="curve"/>
      <point x="452" y="765"/>
      <point x="555" y="808"/>
      <point x="663" y="808" type="curve" smooth="yes"/>
      <point x="819" y="808"/>
      <point x="885" y="760"/>
      <point x="885" y="719" type="curve" smooth="yes"/>
      <point x="885" y="710"/>
      <point x="885" y="698"/>
      <point x="883" y="686" type="curve" smooth="yes"/>
      <point x="872" y="633" type="line"/>
      <point x="831" y="631"/>
      <point x="669" y="623"/>
      <point x="598" y="616" type="curve" smooth="yes"/>
      <point x="282" y="585"/>
      <point x="109" y="474"/>
      <point x="109" y="236" type="curve" smooth="yes"/>
      <point x="109" y="97"/>
      <point x="235" y="-25"/>
      <point x="408" y="-25" type="curve" smooth="yes"/>
      <point x="547" y="-25"/>
      <point x="775" y="88"/>
      <point x="871" y="183" type="curve"/>
      <point x="928" y="61"/>
      <point x="1073" y="-25"/>
      <point x="1230" y="-25" type="curve" smooth="yes"/>
      <point x="1386" y="-25"/>
      <point x="1510" y="2"/>
      <point x="1672" y="74" type="curve"/>
    </contour>
    <contour>
      <point x="824" y="358" type="line"/>
      <point x="736" y="275"/>
      <point x="606" y="203"/>
      <point x="508" y="203" type="curve" smooth="yes"/>
      <point x="438" y="203"/>
      <point x="398" y="246"/>
      <point x="398" y="299" type="curve" smooth="yes"/>
      <point x="398" y="409"/>
      <point x="523" y="443"/>
      <point x="608" y="452" type="curve" smooth="yes"/>
      <point x="655" y="457"/>
      <point x="781" y="468"/>
      <point x="828" y="470" type="curve"/>
      <point x="824" y="444"/>
      <point x="824" y="406"/>
      <point x="824" y="383" type="curve" smooth="yes"/>
    </contour>
    <contour>
      <point x="1387" y="822" type="curve" smooth="yes"/>
      <point x="1486" y="822"/>
      <point x="1544" y="782"/>
      <point x="1544" y="720" type="curve" smooth="yes"/>
      <point x="1544" y="635"/>
      <point x="1452" y="580"/>
      <point x="1208" y="580" type="curve" smooth="yes"/>
      <point x="1173" y="580"/>
      <point x="1138" y="582"/>
      <point x="1099" y="586" type="curve"/>
      <point x="1147" y="740"/>
      <point x="1264" y="822"/>
    </contour>
    <contour>
      <point x="1180" y="0" type="move" name="H"/>
    </contour>
    <contour>
      <point x="770" y="-100" type="move" name="L"/>
    </contour>
    <contour>
      <point x="1525" y="0" type="move" name="O"/>
    </contour>
    <contour>
      <point x="2005" y="1000" type="move" name="R"/>
    </contour>
    <contour>
      <point x="1135" y="1100" type="move" name="U"/>
    </contour>
  </outline>
</glyph>
<glyph name="LtnSmEDiaer" format="1">
  <advance width="1087"/>
  <unicode hex="00EB"/>
  <outline>
    <component base="LtnSmE"/>
    <component base="CombDiaer" xOffset="1117"/>
    <contour>
      <point x="509" y="0" type="move" name="H"/>
    </contour>
    <contour>
      <point x="555" y="-100" type="move" name="L"/>
    </contour>
    <contour>
      <point x="840" y="0" type="move" name="O"/>
    </contour>
    <contour>
      <point x="1320" y="1000" type="move" name="R"/>
    </contour>
    <contour>
      <point x="874" y="1585" type="move" name="U"/>
    </contour>
  </outline>
</glyph>
<glyph name="LtnSmIGrave" format="1">
  <advance width="625"/>
  <unicode hex="00EC"/>
  <outline>
    <component base="LtnSmDotlessI"/>
    <component base="CombGrave" xOffset="950"/>
    <contour>
      <point x="260" y="0" type="move" name="H"/>
    </contour>
    <contour>
      <point x="335" y="-100" type="move" name="L"/>
    </contour>
    <contour>
      <point x="520" y="0" type="move" name="O"/>
    </contour>
    <contour>
      <point x="830" y="1000" type="move" name="R"/>
    </contour>
    <contour>
      <point x="709" y="1635" type="move" name="U"/>
    </contour>
  </outline>
</glyph>
<glyph name="LtnSmICircum" format="1">
  <advance width="625"/>
  <unicode hex="00EE"/>
  <outline>
    <component base="LtnSmDotlessI"/>
    <component base="CombCircum" xOffset="865"/>
    <contour>
      <point x="260" y="0" type="move" name="H"/>
    </contour>
    <contour>
      <point x="335" y="-100" type="move" name="L"/>
    </contour>
    <contour>
      <point x="520" y="0" type="move" name="O"/>
    </contour>
    <contour>
      <point x="830" y="1000" type="move" name="R"/>
    </contour>
    <contour>
      <point x="626" y="1635" type="move" name="U"/>
    </contour>
  </outline>
</glyph>
<glyph name="LtnSmIDiaer" format="1">
  <advance width="625"/>
  <unicode hex="00EF"/>
  <outline>
    <component base="LtnSmDotlessI"/>
    <component base="CombDiaer" xOffset="900"/>
    <contour>
      <point x="260" y="0" type="move" name="H"/>
    </contour>
    <contour>
      <point x="335" y="-100" type="move" name="L"/>
    </contour>
    <contour>
      <point x="520" y="0" type="move" name="O"/>
    </contour>
    <contour>
      <point x="830" y="1000" type="move" name="R"/>
    </contour>
    <contour>
      <point x="657" y="1585" type="move" name="U"/>
    </contour>
  </outline>
</glyph>
<glyph name="LtnSmNTilde" format="1">
  <advance width="1281"/>
  <unicode hex="00F1"/>
  <outline>
    <component base="LtnSmN"/>
    <component base="CombTilde" xOffset="1225"/>
    <contour>
      <point x="560" y="0" type="move" name="H"/>
    </contour>
    <contour>
      <point x="635" y="-100" type="move" name="L"/>
    </contour>
    <contour>
      <point x="870" y="1490" type="move" name="U"/>
    </contour>
  </outline>
</glyph>
<glyph name="LtnSmOAcute" format="1">
  <advance width="1140"/>
  <unicode hex="00F3"/>
  <outline>
    <component base="LtnSmO"/>
    <component base="CombAcute" xOffset="1120"/>
    <contour>
      <point x="518" y="0" type="move" name="H"/>
    </contour>
    <contour>
      <point x="530" y="-100" type="move" name="L"/>
    </contour>
    <contour>
      <point x="730" y="0" type="move" name="O"/>
    </contour>
    <contour>
      <point x="1350" y="1000" type="move" name="R"/>
    </contour>
    <contour>
      <point x="869" y="1635" type="move" name="U"/>
    </contour>
  </outline>
</glyph>
<glyph name="LtnSmOCircum" format="1">
  <advance width="1140"/>
  <unicode hex="00F4"/>
  <outline>
    <component base="LtnSmO"/>
    <component base="CombCircum" xOffset="1125"/>
    <contour>
      <point x="518" y="0" type="move" name="H"/>
    </contour>
    <contour>
      <point x="530" y="-100" type="move" name="L"/>
    </contour>
    <contour>
      <point x="730" y="0" type="move" name="O"/>
    </contour>
    <contour>
      <point x="1350" y="1000" type="move" name="R"/>
    </contour>
    <contour>
      <point x="886" y="1635" type="move" name="U"/>
    </contour>
  </outline>
</glyph>
<glyph name="LtnSmOTilde" format="1">
  <advance width="1140"/>
  <unicode hex="00F5"/>
  <outline>
    <component base="LtnSmO"/>
    <component base="CombTilde" xOffset="1185"/>
    <contour>
      <point x="518" y="0" type="move" name="H"/>
    </contour>
    <contour>
      <point x="530" y="-100" type="move" name="L"/>
    </contour>
    <contour>
      <point x="730" y="0" type="move" name="O"/>
    </contour>
    <contour>
      <point x="1350" y="1000" type="move" name="R"/>
    </contour>
    <contour>
      <point x="830" y="1490" type="move" name="U"/>
    </contour>
  </outline>
</glyph>
<glyph name="LtnSmODiaer" format="1">
  <advance width="1140"/>
  <unicode hex="00F6"/>
  <outline>
    <component base="LtnSmO"/>
    <component base="CombDiaer" xOffset="1160"/>
    <contour>
      <point x="518" y="0" type="move" name="H"/>
    </contour>
    <contour>
      <point x="530" y="-100" type="move" name="L"/>
    </contour>
    <contour>
      <point x="730" y="0" type="move" name="O"/>
    </contour>
    <contour>
      <point x="1350" y="1000" type="move" name="R"/>
    </contour>
    <contour>
      <point x="917" y="1585" type="move" name="U"/>
    </contour>
  </outline>
</glyph>
<glyph name="DivSgn" format="2">
  <advance width="1180"/>
  <unicode hex="00F7"/>
  <outline>
    <contour>
      <point x="248" y="614" type="line"/>
      <point x="1138" y="614" type="line"/>
      <point x="1189" y="822" type="line"/>
      <point x="299" y="822" type="line"/>
    </contour>
    <contour>
      <point x="438" y="283" type="curve" smooth="yes"/>
      <point x="438" y="202"/>
      <point x="499" y="144"/>
      <point x="585" y="144" type="curve" smooth="yes"/>
      <point x="704" y="144"/>
      <point x="799" y="239"/>
      <point x="799" y="350" type="curve" smooth="yes"/>
      <point x="799" y="430"/>
      <point x="739" y="490"/>
      <point x="652" y="490" type="curve" smooth="yes"/>
      <point x="534" y="490"/>
      <point x="438" y="393"/>
    </contour>
    <contour>
      <point x="638" y="1086" type="curve" smooth="yes"/>
      <point x="638" y="1004"/>
      <point x="699" y="945"/>
      <point x="785" y="945" type="curve" smooth="yes"/>
      <point x="904" y="945"/>
      <point x="998" y="1041"/>
      <point x="998" y="1152" type="curve" smooth="yes"/>
      <point x="998" y="1232"/>
      <point x="939" y="1292"/>
      <point x="852" y="1292" type="curve" smooth="yes"/>
      <point x="734" y="1292"/>
      <point x="638" y="1196"/>
    </contour>
  </outline>
</glyph>
<glyph name="LtnSmOStrk" format="1">
  <advance width="1139"/>
  <unicode hex="00F8"/>
  <outline>
    <contour>
      <point x="140" y="370" type="curve" smooth="yes"/>
      <point x="140" y="128"/>
      <point x="289" y="-25"/>
      <point x="520" y="-25" type="curve" smooth="yes" name="hr01"/>
      <point x="906" y="-25"/>
      <point x="1144" y="295"/>
      <point x="1144" y="641" type="curve" smooth="yes"/>
      <point x="1144" y="880"/>
      <point x="1003" y="1030"/>
      <point x="773" y="1030" type="curve" smooth="yes" name="hr02"/>
      <point x="390" y="1030"/>
      <point x="140" y="718"/>
    </contour>
    <contour>
      <point x="718" y="807" type="curve" smooth="yes"/>
      <point x="826" y="807"/>
      <point x="879" y="737"/>
      <point x="879" y="612" type="curve" smooth="yes"/>
      <point x="879" y="413"/>
      <point x="764" y="198"/>
      <point x="566" y="198" type="curve" smooth="yes"/>
      <point x="464" y="198"/>
      <point x="404" y="264"/>
      <point x="404" y="385" type="curve" smooth="yes"/>
      <point x="404" y="570"/>
      <point x="512" y="807"/>
    </contour>
    <contour>
      <point x="1005" y="1096" type="line"/>
      <point x="75" y="-75" type="line"/>
      <point x="300" y="-75" type="line"/>
      <point x="1230" y="1096" type="line"/>
    </contour>
    <contour>
      <point x="520" y="0" type="move" name="H"/>
    </contour>
    <contour>
      <point x="495" y="-100" type="move" name="L"/>
    </contour>
    <contour>
      <point x="770" y="0" type="move" name="O"/>
    </contour>
    <contour>
      <point x="1370" y="1000" type="move" name="R"/>
    </contour>
    <contour>
      <point x="795" y="1100" type="move" name="U"/>
    </contour>
  </outline>
</glyph>
<glyph name="LtnSmUGrave" format="1">
  <advance width="1257"/>
  <unicode hex="00F9"/>
  <outline>
    <component base="LtnSmU"/>
    <component base="CombGrave" xOffset="1235"/>
    <contour>
      <point x="455" y="0" type="move" name="H"/>
    </contour>
    <contour>
      <point x="530" y="-100" type="move" name="L"/>
    </contour>
    <contour>
      <point x="630" y="0" type="move" name="O"/>
    </contour>
    <contour>
      <point x="1450" y="1000" type="move" name="R"/>
    </contour>
    <contour>
      <point x="994" y="1635" type="move" name="U"/>
    </contour>
  </outline>
</glyph>
<glyph name="LtnSmUAcute" format="1">
  <advance width="1257"/>
  <unicode hex="00FA"/>
  <outline>
    <component base="LtnSmU"/>
    <component base="CombAcute" xOffset="1145"/>
    <contour>
      <point x="455" y="0" type="move" name="H"/>
    </contour>
    <contour>
      <point x="530" y="-100" type="move" name="L"/>
    </contour>
    <contour>
      <point x="630" y="0" type="move" name="O"/>
    </contour>
    <contour>
      <point x="1450" y="1000" type="move" name="R"/>
    </contour>
    <contour>
      <point x="894" y="1635" type="move" name="U"/>
    </contour>
  </outline>
</glyph>
<glyph name="LtnSmUDiaer" format="1">
  <advance width="1257"/>
  <unicode hex="00FC"/>
  <outline>
    <component base="LtnSmU"/>
    <component base="CombDiaer" xOffset="1185"/>
    <contour>
      <point x="455" y="0" type="move" name="H"/>
    </contour>
    <contour>
      <point x="530" y="-100" type="move" name="L"/>
    </contour>
    <contour>
      <point x="630" y="0" type="move" name="O"/>
    </contour>
    <contour>
      <point x="1450" y="1000" type="move" name="R"/>
    </contour>
    <contour>
      <point x="942" y="1585" type="move" name="U"/>
    </contour>
  </outline>
</glyph>
<glyph name="LtnSmYAcute" format="1">
  <advance width="1041"/>
  <unicode hex="00FD"/>
  <outline>
    <component base="LtnSmY"/>
    <component base="CombAcute" xOffset="965"/>
    <contour>
      <point x="810" y="-100" type="move" name="L"/>
    </contour>
    <contour>
      <point x="1325" y="1000" type="move" name="R"/>
    </contour>
    <contour>
      <point x="714" y="1635" type="move" name="U"/>
    </contour>
  </outline>
</glyph>
<glyph name="LtnSmThorn" format="2">
  <advance width="1273"/>
  <unicode hex="00FE"/>
  <anchor x="384" y="-500" name="L"/>
  <anchor x="947" y="1635" name="U"/>
  <outline>
    <contour>
      <point x="470" y="1585" type="line"/>
      <point x="470" y="1439"/>
      <point x="429" y="1242"/>
      <point x="392" y="1095" type="curve" smooth="yes"/>
      <point x="75" y="-180" type="line" smooth="yes"/>
      <point x="49" y="-286"/>
      <point x="25" y="-403"/>
      <point x="25" y="-485" type="curve"/>
      <point x="304" y="-485" type="line"/>
      <point x="308" y="-401"/>
      <point x="323" y="-307"/>
      <point x="362" y="-149" type="curve" smooth="yes"/>
      <point x="416" y="64" type="line"/>
      <point x="496" y="10"/>
      <point x="563" y="-25"/>
      <point x="668" y="-25" type="curve" smooth="yes"/>
      <point x="754" y="-25"/>
      <point x="840" y="0"/>
      <point x="918" y="45" type="curve" smooth="yes"/>
      <point x="1117" y="159"/>
      <point x="1268" y="402"/>
      <point x="1268" y="685" type="curve" smooth="yes"/>
      <point x="1268" y="884"/>
      <point x="1177" y="1030"/>
      <point x="1005" y="1030" type="curve" smooth="yes"/>
      <point x="850" y="1030"/>
      <point x="719" y="943"/>
      <point x="597" y="794" type="curve"/>
      <point x="671" y="1095" type="line" smooth="yes"/>
      <point x="710" y="1255"/>
      <point x="750" y="1474"/>
      <point x="750" y="1585" type="curve"/>
    </contour>
    <contour>
      <point x="535" y="542" type="line"/>
      <point x="617" y="692"/>
      <point x="766" y="794"/>
      <point x="855" y="794" type="curve" smooth="yes"/>
      <point x="933" y="794"/>
      <point x="976" y="719"/>
      <point x="976" y="609" type="curve" smooth="yes"/>
      <point x="976" y="478"/>
      <point x="925" y="335"/>
      <point x="824" y="259" type="curve" smooth="yes"/>
      <point x="779" y="225"/>
      <point x="724" y="204"/>
      <point x="659" y="204" type="curve" smooth="yes"/>
      <point x="590" y="204"/>
      <point x="516" y="239"/>
      <point x="474" y="297" type="curve"/>
    </contour>
  </outline>
</glyph>
<glyph name="LtnSmYDiaer" format="1">
  <advance width="1041"/>
  <unicode hex="00FF"/>
  <outline>
    <component base="LtnSmY"/>
    <component base="CombDiaer" xOffset="1005"/>
    <contour>
      <point x="810" y="-100" type="move" name="L"/>
    </contour>
    <contour>
      <point x="1325" y="1000" type="move" name="R"/>
    </contour>
    <contour>
      <point x="762" y="1585" type="move" name="U"/>
    </contour>
  </outline>
</glyph>
<glyph name="LtnCapAMacron" format="1">
  <advance width="1465"/>
  <unicode hex="0100"/>
  <outline>
    <component base="LtnCapA"/>
    <component base="CombMacron" xOffset="1410" yOffset="430"/>
    <contour>
      <point x="1215" y="0" type="move" name="H"/>
    </contour>
    <contour>
      <point x="650" y="-100" type="move" name="L"/>
    </contour>
    <contour>
      <point x="1435" y="0" type="move" name="O"/>
    </contour>
    <contour>
      <point x="1143" y="1880" type="move" name="U"/>
    </contour>
  </outline>
</glyph>
<glyph name="LtnSmAMacron.SngStory" format="1">
  <advance width="1251"/>
  <unicode hex="0101"/>
  <outline>
    <component base="LtnSmAlpha"/>
    <component base="CombMacron" xOffset="1220"/>
    <contour>
      <point x="980" y="0" type="move" name="H"/>
    </contour>
    <contour>
      <point x="565" y="-100" type="move" name="L"/>
    </contour>
    <contour>
      <point x="1165" y="0" type="move" name="O"/>
    </contour>
    <contour>
      <point x="1440" y="1000" type="move" name="R"/>
    </contour>
    <contour>
      <point x="953" y="1450" type="move" name="U"/>
    </contour>
  </outline>
</glyph>
<glyph name="LtnSmABreve.SngStory" format="1">
  <advance width="1251"/>
  <unicode hex="0103"/>
  <outline>
    <component base="LtnSmAlpha"/>
    <component base="CombBreve" xOffset="1195"/>
    <contour>
      <point x="980" y="0" type="move" name="H"/>
    </contour>
    <contour>
      <point x="565" y="-100" type="move" name="L"/>
    </contour>
    <contour>
      <point x="1165" y="0" type="move" name="O"/>
    </contour>
    <contour>
      <point x="1440" y="1000" type="move" name="R"/>
    </contour>
    <contour>
      <point x="995" y="1635" type="move" name="U"/>
    </contour>
  </outline>
</glyph>
<glyph name="LtnCapAOgonek" format="1">
  <advance width="1465"/>
  <unicode hex="0104"/>
  <outline>
    <component base="LtnCapA"/>
    <component base="CombOgonek" xOffset="1845"/>
    <contour>
      <point x="1215" y="0" type="move" name="H"/>
    </contour>
    <contour>
      <point x="1263" y="-430" type="move" name="L"/>
    </contour>
    <contour>
      <point x="1055" y="1530" type="move" name="U"/>
    </contour>
  </outline>
</glyph>
<glyph name="LtnSmAOgonek.SngStory" format="1">
  <advance width="1251"/>
  <unicode hex="0105"/>
  <outline>
    <component base="LtnSmAlpha"/>
    <component base="CombOgonek" xOffset="1575"/>
    <contour>
      <point x="980" y="0" type="move" name="H"/>
    </contour>
    <contour>
      <point x="993" y="-430" type="move" name="L"/>
    </contour>
    <contour>
      <point x="1440" y="1000" type="move" name="R"/>
    </contour>
    <contour>
      <point x="865" y="1100" type="move" name="U"/>
    </contour>
  </outline>
</glyph>
<glyph name="LtnCapCAcute" format="1">
  <advance width="1357"/>
  <unicode hex="0106"/>
  <outline>
    <component base="LtnCapC"/>
    <component base="CombAcute" xOffset="1395" yOffset="430"/>
    <contour>
      <point x="685" y="0" type="move" name="H"/>
    </contour>
    <contour>
      <point x="690" y="-100" type="move" name="L"/>
    </contour>
    <contour>
      <point x="1144" y="2065" type="move" name="U"/>
    </contour>
  </outline>
</glyph>
<glyph name="LtnSmCCircum" format="1">
  <advance width="1019"/>
  <unicode hex="0109"/>
  <outline>
    <component base="LtnSmC"/>
    <component base="CombCircum" xOffset="1120"/>
    <contour>
      <point x="495" y="0" type="move" name="H"/>
    </contour>
    <contour>
      <point x="490" y="-100" type="move" name="L"/>
    </contour>
    <contour>
      <point x="1210" y="1000" type="move" name="R"/>
    </contour>
    <contour>
      <point x="881" y="1635" type="move" name="U"/>
    </contour>
  </outline>
</glyph>
<glyph name="LtnSmCDotAbv" format="1">
  <advance width="1019"/>
  <unicode hex="010B"/>
  <outline>
    <component base="LtnSmC"/>
    <component base="CombDotAbv" xOffset="1110"/>
    <contour>
      <point x="495" y="0" type="move" name="H"/>
    </contour>
    <contour>
      <point x="490" y="-100" type="move" name="L"/>
    </contour>
    <contour>
      <point x="1210" y="1000" type="move" name="R"/>
    </contour>
    <contour>
      <point x="869" y="1555" type="move" name="U"/>
    </contour>
  </outline>
</glyph>
<glyph name="LtnCapCCaron" format="1">
  <advance width="1357"/>
  <unicode hex="010C"/>
  <outline>
    <component base="LtnCapC"/>
    <component base="CombCaron" xOffset="1443" yOffset="430"/>
    <contour>
      <point x="685" y="0" type="move" name="H"/>
    </contour>
    <contour>
      <point x="690" y="-100" type="move" name="L"/>
    </contour>
    <contour>
      <point x="1204" y="2065" type="move" name="U"/>
    </contour>
  </outline>
</glyph>
<glyph name="LtnCapDCaron" format="1">
  <advance width="1465"/>
  <unicode hex="010E"/>
  <outline>
    <component base="LtnCapD"/>
    <component base="CombCaron" xOffset="1493" yOffset="430"/>
    <contour>
      <point x="690" y="-100" type="move" name="L"/>
    </contour>
    <contour>
      <point x="1254" y="2065" type="move" name="U"/>
    </contour>
  </outline>
</glyph>
<glyph name="LtnSmDBarredStem" format="1">
  <advance width="1265"/>
  <unicode hex="0111"/>
  <outline>
    <contour>
      <point x="913" y="558" type="line"/>
      <point x="861" y="438"/>
      <point x="666" y="200"/>
      <point x="560" y="200" type="curve" smooth="yes"/>
      <point x="470" y="200"/>
      <point x="427" y="263"/>
      <point x="427" y="367" type="curve" smooth="yes"/>
      <point x="427" y="480"/>
      <point x="469" y="626"/>
      <point x="554" y="714" type="curve" smooth="yes"/>
      <point x="599" y="761"/>
      <point x="657" y="792"/>
      <point x="727" y="792" type="curve" smooth="yes"/>
      <point x="820" y="792"/>
      <point x="876" y="775"/>
      <point x="957" y="731" type="curve"/>
    </contour>
    <contour>
      <point x="1144" y="1585" type="line"/>
      <point x="1144" y="1471"/>
      <point x="1116" y="1327"/>
      <point x="1079" y="1175" type="curve" smooth="yes"/>
      <point x="1020" y="935" type="line"/>
      <point x="949" y="989"/>
      <point x="845" y="1030"/>
      <point x="756" y="1030" type="curve" smooth="yes"/>
      <point x="630" y="1030"/>
      <point x="518" y="987"/>
      <point x="426" y="917" type="curve" smooth="yes"/>
      <point x="250" y="784"/>
      <point x="145" y="553"/>
      <point x="145" y="341" type="curve" smooth="yes"/>
      <point x="145" y="130"/>
      <point x="258" y="-25"/>
      <point x="448" y="-25" type="curve" smooth="yes"/>
      <point x="597" y="-25"/>
      <point x="785" y="145"/>
      <point x="867" y="267" type="curve"/>
      <point x="855" y="181"/>
      <point x="855" y="72"/>
      <point x="855" y="0" type="curve" name="hr01"/>
      <point x="1130" y="0" type="line"/>
      <point x="1126" y="23"/>
      <point x="1125" y="63"/>
      <point x="1125" y="100" type="curve" smooth="yes"/>
      <point x="1125" y="200"/>
      <point x="1142" y="340"/>
      <point x="1185" y="520" type="curve" smooth="yes"/>
      <point x="1345" y="1190" type="line" smooth="yes"/>
      <point x="1387" y="1366"/>
      <point x="1415" y="1490"/>
      <point x="1415" y="1585" type="curve"/>
    </contour>
    <contour>
      <point x="751" y="1157" type="line"/>
      <point x="1516" y="1157" type="line"/>
      <point x="1566" y="1355" type="line"/>
      <point x="801" y="1355" type="line"/>
    </contour>
    <contour>
      <point x="515" y="-100" type="move" name="L"/>
    </contour>
    <contour>
      <point x="948" y="1635" type="move" name="U"/>
    </contour>
  </outline>
</glyph>
<glyph name="LtnCapEMacron" format="1">
  <advance width="1192"/>
  <unicode hex="0112"/>
  <outline>
    <component base="LtnCapE"/>
    <component base="CombMacron" xOffset="1287" yOffset="430"/>
    <contour>
      <point x="550" y="0" type="move" name="H"/>
    </contour>
    <contour>
      <point x="525" y="-100" type="move" name="L"/>
    </contour>
    <contour>
      <point x="944" y="0" type="move" name="O"/>
    </contour>
    <contour>
      <point x="1487" y="1200" type="move" name="R"/>
    </contour>
    <contour>
      <point x="1020" y="1880" type="move" name="U"/>
    </contour>
  </outline>
</glyph>
<glyph name="LtnCapEBreve" format="1">
  <advance width="1192"/>
  <unicode hex="0114"/>
  <outline>
    <component base="LtnCapE"/>
    <component base="CombBreve" xOffset="1262" yOffset="430"/>
    <contour>
      <point x="550" y="0" type="move" name="H"/>
    </contour>
    <contour>
      <point x="525" y="-100" type="move" name="L"/>
    </contour>
    <contour>
      <point x="944" y="0" type="move" name="O"/>
    </contour>
    <contour>
      <point x="1487" y="1200" type="move" name="R"/>
    </contour>
    <contour>
      <point x="1062" y="2065" type="move" name="U"/>
    </contour>
  </outline>
</glyph>
<glyph name="LtnSmEBreve" format="1">
  <advance width="1087"/>
  <unicode hex="0115"/>
  <outline>
    <component base="LtnSmE"/>
    <component base="CombBreve" xOffset="1082"/>
    <contour>
      <point x="509" y="0" type="move" name="H"/>
    </contour>
    <contour>
      <point x="555" y="-100" type="move" name="L"/>
    </contour>
    <contour>
      <point x="840" y="0" type="move" name="O"/>
    </contour>
    <contour>
      <point x="1320" y="1000" type="move" name="R"/>
    </contour>
    <contour>
      <point x="882" y="1635" type="move" name="U"/>
    </contour>
  </outline>
</glyph>
<glyph name="LtnCapEDotAbv" format="1">
  <advance width="1192"/>
  <unicode hex="0116"/>
  <outline>
    <component base="LtnCapE"/>
    <component base="CombDotAbv" xOffset="1252" yOffset="430"/>
    <contour>
      <point x="550" y="0" type="move" name="H"/>
    </contour>
    <contour>
      <point x="525" y="-100" type="move" name="L"/>
    </contour>
    <contour>
      <point x="944" y="0" type="move" name="O"/>
    </contour>
    <contour>
      <point x="1487" y="1200" type="move" name="R"/>
    </contour>
    <contour>
      <point x="1011" y="1985" type="move" name="U"/>
    </contour>
  </outline>
</glyph>
<glyph name="LtnSmEDotAbv" format="1">
  <advance width="1087"/>
  <unicode hex="0117"/>
  <outline>
    <component base="LtnSmE"/>
    <component base="CombDotAbv" xOffset="1072"/>
    <contour>
      <point x="509" y="0" type="move" name="H"/>
    </contour>
    <contour>
      <point x="555" y="-100" type="move" name="L"/>
    </contour>
    <contour>
      <point x="840" y="0" type="move" name="O"/>
    </contour>
    <contour>
      <point x="1320" y="1000" type="move" name="R"/>
    </contour>
    <contour>
      <point x="831" y="1555" type="move" name="U"/>
    </contour>
  </outline>
</glyph>
<glyph name="LtnCapEOgonek" format="1">
  <advance width="1192"/>
  <unicode hex="0118"/>
  <outline>
    <component base="LtnCapE"/>
    <component base="CombOgonek" xOffset="1354"/>
    <contour>
      <point x="550" y="0" type="move" name="H"/>
    </contour>
    <contour>
      <point x="772" y="-430" type="move" name="L"/>
    </contour>
    <contour>
      <point x="1487" y="1200" type="move" name="R"/>
    </contour>
    <contour>
      <point x="932" y="1530" type="move" name="U"/>
    </contour>
  </outline>
</glyph>
<glyph name="LtnSmEOgonek" format="1">
  <advance width="1090"/>
  <unicode hex="0119"/>
  <outline>
    <contour>
      <point x="907" y="-208" type="line"/>
      <point x="859" y="-251"/>
      <point x="766" y="-282"/>
      <point x="723" y="-282" type="curve" smooth="yes"/>
      <point x="669" y="-282"/>
      <point x="634" y="-243"/>
      <point x="634" y="-192" type="curve" smooth="yes"/>
      <point x="634" y="-143"/>
      <point x="666" y="-102"/>
      <point x="719" y="-64" type="curve" smooth="yes"/>
      <point x="786" y="-16"/>
      <point x="942" y="49"/>
      <point x="997" y="74" type="curve"/>
      <point x="654" y="0" type="line"/>
      <point x="550" y="-51"/>
      <point x="449" y="-123"/>
      <point x="449" y="-242" type="curve" smooth="yes"/>
      <point x="449" y="-346"/>
      <point x="549" y="-436"/>
      <point x="675" y="-436" type="curve" smooth="yes"/>
      <point x="749" y="-436"/>
      <point x="830" y="-414"/>
      <point x="902" y="-357" type="curve"/>
    </contour>
    <contour>
      <point x="1013" y="303" type="line"/>
      <point x="871" y="230"/>
      <point x="739" y="198"/>
      <point x="608" y="198" type="curve" smooth="yes"/>
      <point x="459" y="198"/>
      <point x="401" y="297"/>
      <point x="401" y="428" type="curve" smooth="yes"/>
      <point x="401" y="683"/>
      <point x="552" y="822"/>
      <point x="713" y="822" type="curve" smooth="yes"/>
      <point x="811" y="822"/>
      <point x="869" y="782"/>
      <point x="869" y="720" type="curve" smooth="yes"/>
      <point x="869" y="635"/>
      <point x="777" y="580"/>
      <point x="533" y="580" type="curve" smooth="yes"/>
      <point x="461" y="580"/>
      <point x="385" y="589"/>
      <point x="283" y="610" type="curve"/>
      <point x="283" y="437" type="line"/>
      <point x="353" y="422"/>
      <point x="487" y="413"/>
      <point x="569" y="413" type="curve" smooth="yes"/>
      <point x="935" y="413"/>
      <point x="1125" y="583"/>
      <point x="1125" y="774" type="curve" smooth="yes"/>
      <point x="1125" y="922"/>
      <point x="993" y="1030"/>
      <point x="769" y="1030" type="curve" smooth="yes" name="hr01"/>
      <point x="435" y="1030"/>
      <point x="148" y="775"/>
      <point x="148" y="388" type="curve" smooth="yes"/>
      <point x="148" y="135"/>
      <point x="332" y="-25"/>
      <point x="556" y="-25" type="curve" smooth="yes"/>
      <point x="712" y="-25"/>
      <point x="835" y="2"/>
      <point x="997" y="74" type="curve"/>
    </contour>
    <contour>
      <point x="425" y="-500" type="move" name="L"/>
    </contour>
    <contour>
      <point x="790" y="1100" type="move" name="U"/>
    </contour>
  </outline>
</glyph>
<glyph name="LtnSmGCircum.SngBowl" format="1">
  <advance width="1183"/>
  <unicode hex="011D"/>
  <outline>
    <component base="LtnSmG.SngBowl"/>
    <component base="CombCircum" xOffset="1195"/>
    <contour>
      <point x="440" y="-500" type="move" name="L"/>
    </contour>
    <contour>
      <point x="1375" y="1000" type="move" name="R"/>
    </contour>
    <contour>
      <point x="956" y="1635" type="move" name="U"/>
    </contour>
  </outline>
</glyph>
<glyph name="LtnSmGBreve.SngBowl" format="1">
  <advance width="1183"/>
  <unicode hex="011F"/>
  <outline>
    <component base="LtnSmG.SngBowl"/>
    <component base="CombBreve" xOffset="1195"/>
    <contour>
      <point x="440" y="-500" type="move" name="L"/>
    </contour>
    <contour>
      <point x="1375" y="1000" type="move" name="R"/>
    </contour>
    <contour>
      <point x="995" y="1635" type="move" name="U"/>
    </contour>
  </outline>
</glyph>
<glyph name="LtnCapGDotAbv" format="1">
  <advance width="1452"/>
  <unicode hex="0120"/>
  <outline>
    <component base="LtnCapG"/>
    <component base="CombDotAbv" xOffset="1450" yOffset="430"/>
    <contour>
      <point x="747" y="0" type="move" name="H"/>
    </contour>
    <contour>
      <point x="760" y="-100" type="move" name="L"/>
    </contour>
    <contour>
      <point x="1209" y="1985" type="move" name="U"/>
    </contour>
  </outline>
</glyph>
<glyph name="LtnSmGDotAbv.SngBowl" format="1">
  <advance width="1183"/>
  <unicode hex="0121"/>
  <outline>
    <component base="LtnSmG.SngBowl"/>
    <component base="CombDotAbv" xOffset="1185"/>
    <contour>
      <point x="440" y="-500" type="move" name="L"/>
    </contour>
    <contour>
      <point x="1375" y="1000" type="move" name="R"/>
    </contour>
    <contour>
      <point x="944" y="1555" type="move" name="U"/>
    </contour>
  </outline>
</glyph>
<glyph name="LtnSmGCedilla.SngBowl" format="1">
  <advance width="1183"/>
  <unicode hex="0123"/>
  <outline>
    <component base="LtnSmG.SngBowl"/>
    <component base="CombTrndCommaAbv" xOffset="1222"/>
    <contour>
      <point x="440" y="-500" type="move" name="L"/>
    </contour>
    <contour>
      <point x="1375" y="1000" type="move" name="R"/>
    </contour>
    <contour>
      <point x="973" y="1530" type="move" name="U"/>
    </contour>
  </outline>
</glyph>
<glyph name="LtnCapHStrk" format="1">
  <advance width="1555"/>
  <unicode hex="0126"/>
  <outline>
    <contour>
      <point x="1385" y="1445" type="line"/>
      <point x="1237" y="851" type="line"/>
      <point x="647" y="851" type="line"/>
      <point x="795" y="1445" type="line"/>
      <point x="495" y="1445" type="line" name="hr01"/>
      <point x="489" y="1366"/>
      <point x="452" y="1215"/>
      <point x="404" y="1020" type="curve" smooth="yes"/>
      <point x="256" y="426" type="line" smooth="yes"/>
      <point x="207" y="231"/>
      <point x="169" y="79"/>
      <point x="135" y="0" type="curve"/>
      <point x="135" y="0"/>
      <point x="435" y="0"/>
      <point x="435" y="0" type="curve"/>
      <point x="591" y="629" type="line"/>
      <point x="1181" y="629" type="line"/>
      <point x="1025" y="0" type="line"/>
      <point x="1025" y="0"/>
      <point x="1325" y="0"/>
      <point x="1325" y="0" type="curve"/>
      <point x="1329" y="79"/>
      <point x="1367" y="231"/>
      <point x="1416" y="426" type="curve" smooth="yes"/>
      <point x="1564" y="1020" type="line" smooth="yes"/>
      <point x="1612" y="1215"/>
      <point x="1650" y="1366"/>
      <point x="1685" y="1445" type="curve"/>
    </contour>
    <contour>
      <point x="297" y="1252" type="line"/>
      <point x="246" y="1049" type="line"/>
      <point x="1731" y="1049" type="line"/>
      <point x="1782" y="1252" type="line"/>
    </contour>
    <contour>
      <point x="705" y="-100" type="move" name="L"/>
    </contour>
    <contour>
      <point x="1112" y="1530" type="move" name="U"/>
    </contour>
  </outline>
</glyph>
<glyph name="LtnSmIMacron" format="1">
  <advance width="625"/>
  <unicode hex="012B"/>
  <outline>
    <component base="LtnSmDotlessI"/>
    <component base="CombMacron.Short" xOffset="755"/>
    <contour>
      <point x="260" y="0" type="move" name="H"/>
    </contour>
    <contour>
      <point x="335" y="-100" type="move" name="L"/>
    </contour>
    <contour>
      <point x="520" y="0" type="move" name="O"/>
    </contour>
    <contour>
      <point x="830" y="1000" type="move" name="R"/>
    </contour>
    <contour>
      <point x="598" y="1450" type="move" name="U"/>
    </contour>
  </outline>
</glyph>
<glyph name="LtnCapIBreve" format="1">
  <advance width="1025"/>
  <unicode hex="012C"/>
  <outline>
    <component base="LtnCapI"/>
    <component base="CombBreve" xOffset="1170" yOffset="430"/>
    <contour>
      <point x="460" y="0" type="move" name="H"/>
    </contour>
    <contour>
      <point x="430" y="-100" type="move" name="L"/>
    </contour>
    <contour>
      <point x="650" y="0" type="move" name="O"/>
    </contour>
    <contour>
      <point x="1255" y="1200" type="move" name="R"/>
    </contour>
    <contour>
      <point x="970" y="2065" type="move" name="U"/>
    </contour>
  </outline>
</glyph>
<glyph name="LtnSmIBreve" format="1">
  <advance width="625"/>
  <unicode hex="012D"/>
  <outline>
    <component base="LtnSmDotlessI"/>
    <component base="CombBreve" xOffset="865"/>
    <contour>
      <point x="260" y="0" type="move" name="H"/>
    </contour>
    <contour>
      <point x="335" y="-100" type="move" name="L"/>
    </contour>
    <contour>
      <point x="520" y="0" type="move" name="O"/>
    </contour>
    <contour>
      <point x="830" y="1000" type="move" name="R"/>
    </contour>
    <contour>
      <point x="665" y="1635" type="move" name="U"/>
    </contour>
  </outline>
</glyph>
<glyph name="LtnCapIOgonek" format="1">
  <advance width="1025"/>
  <unicode hex="012E"/>
  <outline>
    <component base="LtnCapI"/>
    <component base="CombOgonek" xOffset="1060"/>
    <contour>
      <point x="460" y="0" type="move" name="H"/>
    </contour>
    <contour>
      <point x="478" y="-430" type="move" name="L"/>
    </contour>
    <contour>
      <point x="1255" y="1200" type="move" name="R"/>
    </contour>
    <contour>
      <point x="840" y="1530" type="move" name="U"/>
    </contour>
  </outline>
</glyph>
<glyph name="LtnSmIOgonek" format="1">
  <advance width="625"/>
  <unicode hex="012F"/>
  <outline>
    <component base="LtnSmI"/>
    <component base="CombOgonek" xOffset="930"/>
    <contour>
      <point x="260" y="0" type="move" name="H"/>
    </contour>
    <contour>
      <point x="348" y="-430" type="move" name="L"/>
    </contour>
    <contour>
      <point x="830" y="1000" type="move" name="R"/>
    </contour>
    <contour>
      <point x="535" y="1100" type="move" name="U"/>
    </contour>
  </outline>
</glyph>
<glyph name="LtnCapIDotAbv" format="1">
  <advance width="1025"/>
  <unicode hex="0130"/>
  <outline>
    <component base="LtnCapI"/>
    <component base="CombDotAbv" xOffset="1160" yOffset="430"/>
    <contour>
      <point x="460" y="0" type="move" name="H"/>
    </contour>
    <contour>
      <point x="430" y="-100" type="move" name="L"/>
    </contour>
    <contour>
      <point x="650" y="0" type="move" name="O"/>
    </contour>
    <contour>
      <point x="1255" y="1200" type="move" name="R"/>
    </contour>
    <contour>
      <point x="919" y="1985" type="move" name="U"/>
    </contour>
  </outline>
</glyph>
<glyph name="LtnCapLigIj" format="1">
  <advance width="2005"/>
  <unicode hex="0132"/>
  <outline>
    <component base="LtnCapI"/>
    <component base="LtnCapJ" xOffset="975"/>
    <contour>
      <point x="477" y="0" type="move" name="H"/>
    </contour>
    <contour>
      <point x="1385" y="-100" type="move" name="L"/>
    </contour>
    <contour>
      <point x="673" y="0" type="move" name="O"/>
    </contour>
    <contour>
      <point x="1445" y="1530" type="move" name="U"/>
    </contour>
  </outline>
</glyph>
<glyph name="LtnCapJCircum" format="1">
  <advance width="1010"/>
  <unicode hex="0134"/>
  <outline>
    <component base="LtnCapJ"/>
    <component base="CombCircum" xOffset="1357" yOffset="430"/>
    <contour>
      <point x="330" y="-100" type="move" name="L"/>
    </contour>
    <contour>
      <point x="1118" y="2065" type="move" name="U"/>
    </contour>
  </outline>
</glyph>
<glyph name="LtnCapKCedilla" format="1">
  <advance width="1410"/>
  <unicode hex="0136"/>
  <outline>
    <component base="LtnCapK"/>
    <component base="CombCommaBlw" xOffset="1320"/>
    <contour>
      <point x="260" y="0" type="move" name="H"/>
    </contour>
    <contour>
      <point x="543" y="-550" type="move" name="L"/>
    </contour>
    <contour>
      <point x="1047" y="1530" type="move" name="U"/>
    </contour>
  </outline>
</glyph>
<glyph name="LtnSmKCedilla" format="1">
  <advance width="1209"/>
  <unicode hex="0137"/>
  <outline>
    <component base="LtnSmK"/>
    <component base="CombCommaBlw" xOffset="1265"/>
    <contour>
      <point x="880" y="0" type="move" name="H"/>
    </contour>
    <contour>
      <point x="488" y="-550" type="move" name="L"/>
    </contour>
    <contour>
      <point x="1330" y="1000" type="move" name="R"/>
    </contour>
    <contour>
      <point x="910" y="1635" type="move" name="U"/>
    </contour>
  </outline>
</glyph>
<glyph name="LtnSmLAcute" format="1">
  <advance width="641"/>
  <unicode hex="013A"/>
  <outline>
    <component base="LtnSmL"/>
    <component base="CombAcute" xOffset="955" yOffset="535"/>
    <contour>
      <point x="275" y="0" type="move" name="H"/>
    </contour>
    <contour>
      <point x="350" y="-100" type="move" name="L"/>
    </contour>
    <contour>
      <point x="850" y="1000" type="move" name="R"/>
    </contour>
    <contour>
      <point x="704" y="2170" type="move" name="U"/>
    </contour>
  </outline>
</glyph>
<glyph name="LtnSmLCaron" format="1">
  <advance width="860"/>
  <unicode hex="013E"/>
  <outline>
    <contour>
      <point x="969" y="1584" type="line" name="hr00"/>
      <point x="808" y="1158" type="line"/>
      <point x="988" y="1158" type="line"/>
      <point x="1214" y="1584" type="line"/>
    </contour>
    <contour>
      <point x="461" y="1585" type="line"/>
      <point x="461" y="1439"/>
      <point x="420" y="1242"/>
      <point x="383" y="1095" type="curve" smooth="yes"/>
      <point x="232" y="488" type="line" smooth="yes"/>
      <point x="208" y="394"/>
      <point x="175" y="269"/>
      <point x="175" y="116" type="curve" smooth="yes"/>
      <point x="175" y="89"/>
      <point x="178" y="30"/>
      <point x="180" y="0" type="curve"/>
      <point x="470" y="0" type="line"/>
      <point x="464" y="39"/>
      <point x="461" y="80"/>
      <point x="461" y="121" type="curve" smooth="yes"/>
      <point x="461" y="277"/>
      <point x="498" y="434"/>
      <point x="518" y="515" type="curve" smooth="yes"/>
      <point x="662" y="1095" type="line" smooth="yes"/>
      <point x="702" y="1255"/>
      <point x="741" y="1474"/>
      <point x="741" y="1585" type="curve"/>
    </contour>
    <contour>
      <point x="315" y="0" type="move" name="H"/>
    </contour>
    <contour>
      <point x="300" y="-100" type="move" name="L"/>
    </contour>
    <contour>
      <point x="600" y="1635" type="move" name="U"/>
    </contour>
  </outline>
</glyph>
<glyph name="LtnCapLMiddleDot" format="1">
  <advance width="1417"/>
  <unicode hex="013F"/>
  <outline>
    <contour>
      <point x="446" y="228" type="line" name="hr00"/>
      <point x="750" y="1445" type="line"/>
      <point x="450" y="1445" type="line"/>
      <point x="444" y="1366"/>
      <point x="406" y="1210"/>
      <point x="358" y="1015" type="curve" smooth="yes"/>
      <point x="212" y="431" type="line" smooth="yes"/>
      <point x="163" y="236"/>
      <point x="123" y="79"/>
      <point x="90" y="0" type="curve"/>
      <point x="1025" y="0" type="line"/>
      <point x="1085" y="243" type="line"/>
      <point x="1005" y="229"/>
      <point x="851" y="228"/>
      <point x="662" y="228" type="curve" smooth="yes"/>
    </contour>
    <contour>
      <point x="1123" y="705" type="curve" smooth="yes"/>
      <point x="1123" y="620"/>
      <point x="1178" y="541"/>
      <point x="1271" y="541" type="curve" smooth="yes"/>
      <point x="1381" y="541"/>
      <point x="1465" y="624"/>
      <point x="1465" y="727" type="curve" smooth="yes"/>
      <point x="1465" y="808"/>
      <point x="1424" y="884"/>
      <point x="1314" y="884" type="curve" smooth="yes"/>
      <point x="1211" y="884"/>
      <point x="1123" y="805"/>
    </contour>
    <contour>
      <point x="560" y="0" type="move" name="H"/>
    </contour>
    <contour>
      <point x="535" y="-100" type="move" name="L"/>
    </contour>
    <contour>
      <point x="942" y="1530" type="move" name="U"/>
    </contour>
  </outline>
</glyph>
<glyph name="LtnCapNAcute" format="1">
  <advance width="1525"/>
  <unicode hex="0143"/>
  <outline>
    <component base="LtnCapN"/>
    <component base="CombAcute" xOffset="1412" yOffset="430"/>
    <contour>
      <point x="1180" y="0" type="move" name="H"/>
    </contour>
    <contour>
      <point x="680" y="-100" type="move" name="L"/>
    </contour>
    <contour>
      <point x="1161" y="2065" type="move" name="U"/>
    </contour>
  </outline>
</glyph>
<glyph name="LtnSmNAcute" format="1">
  <advance width="1281"/>
  <unicode hex="0144"/>
  <outline>
    <component base="LtnSmN"/>
    <component base="CombAcute" xOffset="1160"/>
    <contour>
      <point x="560" y="0" type="move" name="H"/>
    </contour>
    <contour>
      <point x="635" y="-100" type="move" name="L"/>
    </contour>
    <contour>
      <point x="909" y="1635" type="move" name="U"/>
    </contour>
  </outline>
</glyph>
<glyph name="LtnSmNCedilla" format="1">
  <advance width="1281"/>
  <unicode hex="0146"/>
  <outline>
    <component base="LtnSmN"/>
    <component base="CombCommaBlw" xOffset="1300"/>
    <contour>
      <point x="560" y="0" type="move" name="H"/>
    </contour>
    <contour>
      <point x="523" y="-550" type="move" name="L"/>
    </contour>
    <contour>
      <point x="835" y="1100" type="move" name="U"/>
    </contour>
  </outline>
</glyph>
<glyph name="LtnCapNCaron" format="1">
  <advance width="1525"/>
  <unicode hex="0147"/>
  <outline>
    <component base="LtnCapN"/>
    <component base="CombCaron" xOffset="1460" yOffset="430"/>
    <contour>
      <point x="1180" y="0" type="move" name="H"/>
    </contour>
    <contour>
      <point x="680" y="-100" type="move" name="L"/>
    </contour>
    <contour>
      <point x="1221" y="2065" type="move" name="U"/>
    </contour>
  </outline>
</glyph>
<glyph name="LtnSmNCaron" format="1">
  <advance width="1281"/>
  <unicode hex="0148"/>
  <outline>
    <component base="LtnSmN"/>
    <component base="CombCaron" xOffset="1208"/>
    <contour>
      <point x="560" y="0" type="move" name="H"/>
    </contour>
    <contour>
      <point x="635" y="-100" type="move" name="L"/>
    </contour>
    <contour>
      <point x="969" y="1635" type="move" name="U"/>
    </contour>
  </outline>
</glyph>
<glyph name="LtnCapEng" format="1">
  <advance width="1491"/>
  <unicode hex="014A"/>
  <outline>
    <contour>
      <point x="385" y="0" type="line"/>
      <point x="567" y="731" type="line"/>
      <point x="660" y="898"/>
      <point x="902" y="1178"/>
      <point x="1061" y="1178" type="curve" smooth="yes"/>
      <point x="1189" y="1178"/>
      <point x="1234" y="1112"/>
      <point x="1234" y="1013" type="curve" smooth="yes"/>
      <point x="1234" y="825"/>
      <point x="1151" y="515"/>
      <point x="1102" y="311" type="curve" smooth="yes"/>
      <point x="1001" y="-108"/>
      <point x="917" y="-221"/>
      <point x="801" y="-221" type="curve" smooth="yes"/>
      <point x="736" y="-221"/>
      <point x="698" y="-206"/>
      <point x="663" y="-173" type="curve"/>
      <point x="509" y="-395" type="line"/>
      <point x="575" y="-443"/>
      <point x="666" y="-465"/>
      <point x="787" y="-465" type="curve" smooth="yes"/>
      <point x="889" y="-465"/>
      <point x="992" y="-429"/>
      <point x="1079" y="-362" type="curve" smooth="yes"/>
      <point x="1212" y="-258"/>
      <point x="1279" y="-86"/>
      <point x="1379" y="319" type="curve" smooth="yes"/>
      <point x="1437" y="556"/>
      <point x="1533" y="911"/>
      <point x="1533" y="1118" type="curve" smooth="yes"/>
      <point x="1533" y="1318"/>
      <point x="1433" y="1470"/>
      <point x="1208" y="1470" type="curve" smooth="yes"/>
      <point x="1028" y="1470"/>
      <point x="796" y="1297"/>
      <point x="648" y="1112" type="curve"/>
      <point x="666" y="1184"/>
      <point x="675" y="1301"/>
      <point x="675" y="1383" type="curve" smooth="yes"/>
      <point x="675" y="1410"/>
      <point x="674" y="1433"/>
      <point x="672" y="1450" type="curve" name="hr01"/>
      <point x="387" y="1450" type="line"/>
      <point x="389" y="1429"/>
      <point x="390" y="1404"/>
      <point x="390" y="1375" type="curve" smooth="yes"/>
      <point x="390" y="1253"/>
      <point x="371" y="1067"/>
      <point x="327" y="891" type="curve" smooth="yes"/>
      <point x="232" y="511" type="line" smooth="yes"/>
      <point x="174" y="277"/>
      <point x="128" y="95"/>
      <point x="87" y="0" type="curve"/>
    </contour>
    <contour>
      <point x="566" y="-500" type="move" name="L"/>
    </contour>
    <contour>
      <point x="1073" y="1530" type="move" name="U"/>
    </contour>
  </outline>
</glyph>
<glyph name="LtnSmEng" format="1">
  <advance width="1281"/>
  <unicode hex="014B"/>
  <outline>
    <contour>
      <point x="290" y="1010" type="line" name="hr00"/>
      <point x="290" y="962" type="line" smooth="yes"/>
      <point x="290" y="859"/>
      <point x="280" y="685"/>
      <point x="261" y="609" type="curve" smooth="yes"/>
      <point x="110" y="0" type="line"/>
      <point x="388" y="0" type="line"/>
      <point x="490" y="405" type="line"/>
      <point x="569" y="569"/>
      <point x="740" y="787"/>
      <point x="835" y="787" type="curve" smooth="yes"/>
      <point x="922" y="787"/>
      <point x="958" y="742"/>
      <point x="958" y="635" type="curve" smooth="yes"/>
      <point x="958" y="550"/>
      <point x="860" y="183"/>
      <point x="837" y="92" type="curve" smooth="yes"/>
      <point x="797" y="-67"/>
      <point x="735" y="-230"/>
      <point x="595" y="-230" type="curve" smooth="yes"/>
      <point x="537" y="-230"/>
      <point x="478" y="-209"/>
      <point x="440" y="-173" type="curve"/>
      <point x="319" y="-385" type="line"/>
      <point x="353" y="-417"/>
      <point x="472" y="-465"/>
      <point x="565" y="-465" type="curve" smooth="yes"/>
      <point x="879" y="-465"/>
      <point x="1019" y="-243"/>
      <point x="1117" y="92" type="curve" smooth="yes"/>
      <point x="1151" y="207"/>
      <point x="1258" y="610"/>
      <point x="1258" y="725" type="curve" smooth="yes"/>
      <point x="1258" y="890"/>
      <point x="1188" y="1030"/>
      <point x="995" y="1030" type="curve" smooth="yes"/>
      <point x="844" y="1030"/>
      <point x="685" y="903"/>
      <point x="546" y="715" type="curve"/>
      <point x="555" y="771"/>
      <point x="569" y="875"/>
      <point x="569" y="933" type="curve" smooth="yes"/>
      <point x="569" y="962"/>
      <point x="568" y="988"/>
      <point x="565" y="1010" type="curve"/>
    </contour>
    <contour>
      <point x="406" y="-500" type="move" name="L"/>
    </contour>
    <contour>
      <point x="806" y="1100" type="move" name="U"/>
    </contour>
  </outline>
</glyph>
<glyph name="LtnCapOMacron" format="1">
  <advance width="1480"/>
  <unicode hex="014C"/>
  <outline>
    <component base="LtnCapO"/>
    <component base="CombMacron" xOffset="1420" yOffset="430"/>
    <contour>
      <point x="680" y="0" type="move" name="H"/>
    </contour>
    <contour>
      <point x="655" y="-100" type="move" name="L"/>
    </contour>
    <contour>
      <point x="916" y="0" type="move" name="O"/>
    </contour>
    <contour>
      <point x="1720" y="1200" type="move" name="R"/>
    </contour>
    <contour>
      <point x="1153" y="1880" type="move" name="U"/>
    </contour>
  </outline>
</glyph>
<glyph name="LtnSmOMacron" format="1">
  <advance width="1140"/>
  <unicode hex="014D"/>
  <outline>
    <component base="LtnSmO"/>
    <component base="CombMacron" xOffset="1150"/>
    <contour>
      <point x="518" y="0" type="move" name="H"/>
    </contour>
    <contour>
      <point x="530" y="-100" type="move" name="L"/>
    </contour>
    <contour>
      <point x="730" y="0" type="move" name="O"/>
    </contour>
    <contour>
      <point x="1350" y="1000" type="move" name="R"/>
    </contour>
    <contour>
      <point x="883" y="1450" type="move" name="U"/>
    </contour>
  </outline>
</glyph>
<glyph name="LtnCapOBreve" format="1">
  <advance width="1480"/>
  <unicode hex="014E"/>
  <outline>
    <component base="LtnCapO"/>
    <component base="CombBreve" xOffset="1395" yOffset="430"/>
    <contour>
      <point x="680" y="0" type="move" name="H"/>
    </contour>
    <contour>
      <point x="655" y="-100" type="move" name="L"/>
    </contour>
    <contour>
      <point x="916" y="0" type="move" name="O"/>
    </contour>
    <contour>
      <point x="1720" y="1200" type="move" name="R"/>
    </contour>
    <contour>
      <point x="1195" y="2065" type="move" name="U"/>
    </contour>
  </outline>
</glyph>
<glyph name="LtnSmODblAcute" format="1">
  <advance width="1140"/>
  <unicode hex="0151"/>
  <outline>
    <component base="LtnSmO"/>
    <component base="CombDblAcute" xOffset="1190"/>
    <contour>
      <point x="518" y="0" type="move" name="H"/>
    </contour>
    <contour>
      <point x="530" y="-100" type="move" name="L"/>
    </contour>
    <contour>
      <point x="730" y="0" type="move" name="O"/>
    </contour>
    <contour>
      <point x="1350" y="1000" type="move" name="R"/>
    </contour>
    <contour>
      <point x="951" y="1635" type="move" name="U"/>
    </contour>
  </outline>
</glyph>
<glyph name="LtnCapLigOe" format="1">
  <advance width="1959"/>
  <unicode hex="0152"/>
  <outline>
    <contour>
      <point x="2139" y="1445" type="line"/>
      <point x="1317" y="1445" type="line"/>
      <point x="1287" y="1319" type="line"/>
      <point x="1248" y="1386"/>
      <point x="1115" y="1470"/>
      <point x="962" y="1470" type="curve" smooth="yes" name="hr01"/>
      <point x="566" y="1470"/>
      <point x="191" y="1074"/>
      <point x="191" y="535" type="curve" smooth="yes"/>
      <point x="191" y="198"/>
      <point x="383" y="-25"/>
      <point x="647" y="-25" type="curve" smooth="yes"/>
      <point x="779" y="-25"/>
      <point x="943" y="72"/>
      <point x="994" y="148" type="curve"/>
      <point x="957" y="0" type="line" name="hr02"/>
      <point x="1809" y="0" type="line"/>
      <point x="1869" y="243" type="line"/>
      <point x="1788" y="229"/>
      <point x="1652" y="228"/>
      <point x="1461" y="228" type="curve" smooth="yes"/>
      <point x="1303" y="228" type="line"/>
      <point x="1407" y="643" type="line"/>
      <point x="1864" y="643" type="line"/>
      <point x="1919" y="866" type="line"/>
      <point x="1462" y="866" type="line"/>
      <point x="1550" y="1218" type="line"/>
      <point x="2082" y="1218" type="line"/>
    </contour>
    <contour>
      <point x="708" y="218" type="curve" smooth="yes"/>
      <point x="562" y="218"/>
      <point x="477" y="351"/>
      <point x="477" y="553" type="curve" smooth="yes"/>
      <point x="477" y="825"/>
      <point x="622" y="1228"/>
      <point x="940" y="1228" type="curve" smooth="yes"/>
      <point x="1082" y="1228"/>
      <point x="1166" y="1097"/>
      <point x="1166" y="896" type="curve" smooth="yes"/>
      <point x="1166" y="628"/>
      <point x="1023" y="218"/>
    </contour>
    <contour>
      <point x="926" y="-100" type="move" name="L"/>
    </contour>
    <contour>
      <point x="1333" y="1530" type="move" name="U"/>
    </contour>
  </outline>
</glyph>
<glyph name="LtnSmLigOe" format="2">
  <advance width="1814"/>
  <unicode hex="0153"/>
  <anchor x="1238" y="0" name="H"/>
  <anchor x="875" y="-100" name="L"/>
  <anchor x="1508" y="0" name="O"/>
  <anchor x="2028" y="1000" name="R"/>
  <anchor x="1148" y="1100" name="U"/>
  <outline>
    <contour>
      <point x="1740" y="303" type="line"/>
      <point x="1598" y="230"/>
      <point x="1466" y="198"/>
      <point x="1335" y="198" type="curve" smooth="yes"/>
      <point x="1202" y="198"/>
      <point x="1128" y="290"/>
      <point x="1128" y="402" type="curve" smooth="yes"/>
      <point x="1128" y="408"/>
      <point x="1128" y="414"/>
      <point x="1129" y="421" type="curve"/>
      <point x="1187" y="416"/>
      <point x="1249" y="413"/>
      <point x="1296" y="413" type="curve" smooth="yes"/>
      <point x="1662" y="413"/>
      <point x="1852" y="584"/>
      <point x="1852" y="774" type="curve" smooth="yes"/>
      <point x="1852" y="922"/>
      <point x="1720" y="1030"/>
      <point x="1505" y="1030" type="curve" smooth="yes"/>
      <point x="1337" y="1030"/>
      <point x="1194" y="977"/>
      <point x="1084" y="874" type="curve"/>
      <point x="1026" y="969"/>
      <point x="914" y="1030"/>
      <point x="773" y="1030" type="curve" smooth="yes"/>
      <point x="390" y="1030"/>
      <point x="140" y="718"/>
      <point x="140" y="370" type="curve" smooth="yes"/>
      <point x="140" y="128"/>
      <point x="289" y="-25"/>
      <point x="520" y="-25" type="curve" smooth="yes"/>
      <point x="688" y="-25"/>
      <point x="842" y="39"/>
      <point x="946" y="145" type="curve"/>
      <point x="999" y="62"/>
      <point x="1125" y="-25"/>
      <point x="1282" y="-25" type="curve" smooth="yes"/>
      <point x="1438" y="-25"/>
      <point x="1562" y="2"/>
      <point x="1724" y="74" type="curve"/>
    </contour>
    <contour>
      <point x="718" y="807" type="curve" smooth="yes"/>
      <point x="826" y="807"/>
      <point x="879" y="737"/>
      <point x="879" y="612" type="curve" smooth="yes"/>
      <point x="879" y="413"/>
      <point x="764" y="198"/>
      <point x="566" y="198" type="curve" smooth="yes"/>
      <point x="464" y="198"/>
      <point x="404" y="264"/>
      <point x="404" y="385" type="curve" smooth="yes"/>
      <point x="404" y="570"/>
      <point x="512" y="807"/>
    </contour>
    <contour>
      <point x="1439" y="822" type="curve" smooth="yes"/>
      <point x="1538" y="822"/>
      <point x="1596" y="782"/>
      <point x="1596" y="720" type="curve" smooth="yes"/>
      <point x="1596" y="635"/>
      <point x="1504" y="580"/>
      <point x="1260" y="580" type="curve" smooth="yes"/>
      <point x="1225" y="580"/>
      <point x="1190" y="582"/>
      <point x="1151" y="586" type="curve"/>
      <point x="1199" y="740"/>
      <point x="1316" y="822"/>
    </contour>
  </outline>
</glyph>
<glyph name="LtnCapRAcute" format="1">
  <advance width="1360"/>
  <unicode hex="0154"/>
  <outline>
    <component base="LtnCapR"/>
    <component base="CombAcute" xOffset="1305" yOffset="430"/>
    <contour>
      <point x="630" y="0" type="move" name="H"/>
    </contour>
    <contour>
      <point x="605" y="-100" type="move" name="L"/>
    </contour>
    <contour>
      <point x="1054" y="2065" type="move" name="U"/>
    </contour>
  </outline>
</glyph>
<glyph name="LtnSmRAcute" format="1">
  <advance width="1021"/>
  <unicode hex="0155"/>
  <outline>
    <component base="LtnSmR"/>
    <component base="CombAcute" xOffset="1090"/>
    <contour>
      <point x="225" y="0" type="move" name="H"/>
    </contour>
    <contour>
      <point x="255" y="-100" type="move" name="L"/>
    </contour>
    <contour>
      <point x="839" y="1635" type="move" name="U"/>
    </contour>
  </outline>
</glyph>
<glyph name="LtnCapRCedilla" format="1">
  <advance width="1360"/>
  <unicode hex="0156"/>
  <outline>
    <component base="LtnCapR"/>
    <component base="CombCommaBlw" xOffset="1270"/>
    <contour>
      <point x="630" y="0" type="move" name="H"/>
    </contour>
    <contour>
      <point x="493" y="-550" type="move" name="L"/>
    </contour>
    <contour>
      <point x="980" y="1530" type="move" name="U"/>
    </contour>
  </outline>
</glyph>
<glyph name="LtnCapRCaron" format="1">
  <advance width="1360"/>
  <unicode hex="0158"/>
  <outline>
    <component base="LtnCapR"/>
    <component base="CombCaron" xOffset="1353" yOffset="430"/>
    <contour>
      <point x="630" y="0" type="move" name="H"/>
    </contour>
    <contour>
      <point x="605" y="-100" type="move" name="L"/>
    </contour>
    <contour>
      <point x="1114" y="2065" type="move" name="U"/>
    </contour>
  </outline>
</glyph>
<glyph name="LtnSmRCaron" format="1">
  <advance width="1021"/>
  <unicode hex="0159"/>
  <outline>
    <component base="LtnSmR"/>
    <component base="CombCaron" xOffset="1138"/>
    <contour>
      <point x="225" y="0" type="move" name="H"/>
    </contour>
    <contour>
      <point x="255" y="-100" type="move" name="L"/>
    </contour>
    <contour>
      <point x="899" y="1635" type="move" name="U"/>
    </contour>
  </outline>
</glyph>
<glyph name="LtnCapSAcute" format="1">
  <advance width="1223"/>
  <unicode hex="015A"/>
  <outline>
    <component base="LtnCapS"/>
    <component base="CombAcute" xOffset="1265" yOffset="430"/>
    <contour>
      <point x="556" y="0" type="move" name="H"/>
    </contour>
    <contour>
      <point x="530" y="-100" type="move" name="L"/>
    </contour>
    <contour>
      <point x="1014" y="2065" type="move" name="U"/>
    </contour>
  </outline>
</glyph>
<glyph name="LtnSmSAcute" format="1">
  <advance width="1015"/>
  <unicode hex="015B"/>
  <outline>
    <component base="LtnSmS"/>
    <component base="CombAcute" xOffset="1070"/>
    <contour>
      <point x="455" y="0" type="move" name="H"/>
    </contour>
    <contour>
      <point x="480" y="-100" type="move" name="L"/>
    </contour>
    <contour>
      <point x="819" y="1635" type="move" name="U"/>
    </contour>
  </outline>
</glyph>
<glyph name="LtnCapSCircum" format="1">
  <advance width="1223"/>
  <unicode hex="015C"/>
  <outline>
    <component base="LtnCapS"/>
    <component base="CombCircum" xOffset="1270" yOffset="430"/>
    <contour>
      <point x="556" y="0" type="move" name="H"/>
    </contour>
    <contour>
      <point x="530" y="-100" type="move" name="L"/>
    </contour>
    <contour>
      <point x="1031" y="2065" type="move" name="U"/>
    </contour>
  </outline>
</glyph>
<glyph name="LtnSmSCedilla" format="1">
  <advance width="1015"/>
  <unicode hex="015F"/>
  <outline>
    <component base="LtnSmS"/>
    <component base="CombCedilla" xOffset="945"/>
    <contour>
      <point x="293" y="-530" type="move" name="L"/>
    </contour>
    <contour>
      <point x="745" y="1100" type="move" name="U"/>
    </contour>
  </outline>
</glyph>
<glyph name="LtnCapSCaron" format="1">
  <advance width="1223"/>
  <unicode hex="0160"/>
  <outline>
    <component base="LtnCapS"/>
    <component base="CombCaron" xOffset="1313" yOffset="430"/>
    <contour>
      <point x="556" y="0" type="move" name="H"/>
    </contour>
    <contour>
      <point x="530" y="-100" type="move" name="L"/>
    </contour>
    <contour>
      <point x="1074" y="2065" type="move" name="U"/>
    </contour>
  </outline>
</glyph>
<glyph name="LtnCapTCedilla" format="1">
  <advance width="1255"/>
  <unicode hex="0162"/>
  <outline>
    <component base="LtnCapT"/>
    <component base="CombCedilla" xOffset="1062"/>
    <contour>
      <point x="410" y="-530" type="move" name="L"/>
    </contour>
    <contour>
      <point x="954" y="1530" type="move" name="U"/>
    </contour>
  </outline>
</glyph>
<glyph name="LtnSmTCedilla" format="1">
  <advance width="900"/>
  <unicode hex="0163"/>
  <outline>
    <component base="LtnSmT"/>
    <component base="CombCedilla" xOffset="960"/>
    <contour>
      <point x="308" y="-530" type="move" name="L"/>
    </contour>
    <contour>
      <point x="1075" y="1000" type="move" name="R"/>
    </contour>
    <contour>
      <point x="640" y="1360" type="move" name="U"/>
    </contour>
  </outline>
</glyph>
<glyph name="LtnCapTCaron" format="1">
  <advance width="1255"/>
  <unicode hex="0164"/>
  <outline>
    <component base="LtnCapT"/>
    <component base="CombCaron" xOffset="1327" yOffset="430"/>
    <contour>
      <point x="572" y="0" type="move" name="H"/>
    </contour>
    <contour>
      <point x="547" y="-100" type="move" name="L"/>
    </contour>
    <contour>
      <point x="1088" y="2065" type="move" name="U"/>
    </contour>
  </outline>
</glyph>
<glyph name="LtnCapTStrk" format="2">
  <advance width="1245"/>
  <unicode hex="0166"/>
  <anchor x="537" y="-100" name="L"/>
  <anchor x="944" y="1530" name="U"/>
  <outline>
    <contour>
      <point x="335" y="1445" type="line"/>
      <point x="273" y="1198" type="line"/>
      <point x="349" y="1215"/>
      <point x="429" y="1218"/>
      <point x="509" y="1218" type="curve" smooth="yes"/>
      <point x="721" y="1218" type="line"/>
      <point x="519" y="409" type="line" smooth="yes"/>
      <point x="473" y="224"/>
      <point x="433" y="75"/>
      <point x="398" y="0" type="curve"/>
      <point x="723" y="0" type="line"/>
      <point x="724" y="75"/>
      <point x="758" y="224"/>
      <point x="804" y="409" type="curve" smooth="yes"/>
      <point x="1006" y="1218" type="line"/>
      <point x="1222" y="1218" type="line" smooth="yes"/>
      <point x="1303" y="1218"/>
      <point x="1380" y="1215"/>
      <point x="1448" y="1198" type="curve"/>
      <point x="1510" y="1445" type="line"/>
    </contour>
    <contour>
      <point x="370" y="846" type="line"/>
      <point x="320" y="643" type="line"/>
      <point x="1120" y="643" type="line"/>
      <point x="1170" y="846" type="line"/>
    </contour>
  </outline>
</glyph>
<glyph name="LtnSmTStrk" format="1">
  <advance width="865"/>
  <unicode hex="0167"/>
  <outline>
    <contour>
      <point x="831" y="278" type="line"/>
      <point x="740" y="230"/>
      <point x="670" y="204"/>
      <point x="619" y="204" type="curve" smooth="yes"/>
      <point x="556" y="204"/>
      <point x="536" y="250"/>
      <point x="536" y="318" type="curve" smooth="yes"/>
      <point x="536" y="347"/>
      <point x="539" y="380"/>
      <point x="545" y="415" type="curve" smooth="yes"/>
      <point x="567" y="549"/>
      <point x="700" y="1039"/>
      <point x="767" y="1307" type="curve" name="hr01"/>
      <point x="487" y="1307" type="line"/>
      <point x="419" y="1038"/>
      <point x="265" y="471"/>
      <point x="243" y="328" type="curve" smooth="yes"/>
      <point x="239" y="302"/>
      <point x="237" y="277"/>
      <point x="237" y="253" type="curve" smooth="yes"/>
      <point x="237" y="73"/>
      <point x="351" y="-25"/>
      <point x="518" y="-25" type="curve" smooth="yes"/>
      <point x="590" y="-25"/>
      <point x="703" y="-4"/>
      <point x="812" y="55" type="curve"/>
    </contour>
    <contour>
      <point x="945" y="797" type="line"/>
      <point x="995" y="995" type="line"/>
      <point x="220" y="995" type="line"/>
      <point x="170" y="797" type="line" name="hr02"/>
    </contour>
    <contour>
      <point x="860" y="464" type="line"/>
      <point x="910" y="662" type="line"/>
      <point x="135" y="662" type="line"/>
      <point x="85" y="464" type="line"/>
    </contour>
    <contour>
      <point x="455" y="-100" type="move" name="L"/>
    </contour>
    <contour>
      <point x="640" y="1360" type="move" name="U"/>
    </contour>
  </outline>
</glyph>
<glyph name="LtnSmUTilde" format="1">
  <advance width="1257"/>
  <unicode hex="0169"/>
  <outline>
    <component base="LtnSmU"/>
    <component base="CombTilde" xOffset="1210"/>
    <contour>
      <point x="455" y="0" type="move" name="H"/>
    </contour>
    <contour>
      <point x="530" y="-100" type="move" name="L"/>
    </contour>
    <contour>
      <point x="630" y="0" type="move" name="O"/>
    </contour>
    <contour>
      <point x="1450" y="1000" type="move" name="R"/>
    </contour>
    <contour>
      <point x="855" y="1490" type="move" name="U"/>
    </contour>
  </outline>
</glyph>
<glyph name="LtnCapUMacron" format="1">
  <advance width="1470"/>
  <unicode hex="016A"/>
  <outline>
    <component base="LtnCapU"/>
    <component base="CombMacron" xOffset="1409" yOffset="430"/>
    <contour>
      <point x="672" y="0" type="move" name="H"/>
    </contour>
    <contour>
      <point x="647" y="-100" type="move" name="L"/>
    </contour>
    <contour>
      <point x="890" y="0" type="move" name="O"/>
    </contour>
    <contour>
      <point x="1720" y="1200" type="move" name="R"/>
    </contour>
    <contour>
      <point x="1142" y="1880" type="move" name="U"/>
    </contour>
  </outline>
</glyph>
<glyph name="LtnCapUBreve" format="1">
  <advance width="1470"/>
  <unicode hex="016C"/>
  <outline>
    <component base="LtnCapU"/>
    <component base="CombBreve" xOffset="1384" yOffset="430"/>
    <contour>
      <point x="672" y="0" type="move" name="H"/>
    </contour>
    <contour>
      <point x="647" y="-100" type="move" name="L"/>
    </contour>
    <contour>
      <point x="890" y="0" type="move" name="O"/>
    </contour>
    <contour>
      <point x="1720" y="1200" type="move" name="R"/>
    </contour>
    <contour>
      <point x="1184" y="2065" type="move" name="U"/>
    </contour>
  </outline>
</glyph>
<glyph name="LtnCapURingAbv" format="1">
  <advance width="1470"/>
  <unicode hex="016E"/>
  <outline>
    <component base="LtnCapU"/>
    <component base="CombRingAbv" xOffset="1411" yOffset="430"/>
    <contour>
      <point x="672" y="0" type="move" name="H"/>
    </contour>
    <contour>
      <point x="647" y="-100" type="move" name="L"/>
    </contour>
    <contour>
      <point x="890" y="0" type="move" name="O"/>
    </contour>
    <contour>
      <point x="1720" y="1200" type="move" name="R"/>
    </contour>
    <contour>
      <point x="1190" y="2065" type="move" name="U"/>
    </contour>
  </outline>
</glyph>
<glyph name="LtnSmURingAbv" format="1">
  <advance width="1257"/>
  <unicode hex="016F"/>
  <outline>
    <component base="LtnSmU"/>
    <component base="CombRingAbv" xOffset="1177"/>
    <contour>
      <point x="455" y="0" type="move" name="H"/>
    </contour>
    <contour>
      <point x="530" y="-100" type="move" name="L"/>
    </contour>
    <contour>
      <point x="630" y="0" type="move" name="O"/>
    </contour>
    <contour>
      <point x="1450" y="1000" type="move" name="R"/>
    </contour>
    <contour>
      <point x="956" y="1635" type="move" name="U"/>
    </contour>
  </outline>
</glyph>
<glyph name="LtnCapUDblAcute" format="1">
  <advance width="1470"/>
  <unicode hex="0170"/>
  <outline>
    <component base="LtnCapU"/>
    <component base="CombDblAcute" xOffset="1449" yOffset="430"/>
    <contour>
      <point x="672" y="0" type="move" name="H"/>
    </contour>
    <contour>
      <point x="647" y="-100" type="move" name="L"/>
    </contour>
    <contour>
      <point x="890" y="0" type="move" name="O"/>
    </contour>
    <contour>
      <point x="1720" y="1200" type="move" name="R"/>
    </contour>
    <contour>
      <point x="1210" y="2065" type="move" name="U"/>
    </contour>
  </outline>
</glyph>
<glyph name="LtnCapUOgonek" format="1">
  <advance width="1490"/>
  <unicode hex="0172"/>
  <outline>
    <component base="LtnCapU"/>
    <component base="CombOgonek" xOffset="1319"/>
    <contour>
      <point x="707" y="0" type="move" name="H"/>
    </contour>
    <contour>
      <point x="600" y="-500" type="move" name="L"/>
    </contour>
    <contour>
      <point x="1720" y="1200" type="move" name="R"/>
    </contour>
    <contour>
      <point x="1055" y="1530" type="move" name="U"/>
    </contour>
  </outline>
</glyph>
<glyph name="LtnSmUOgonek" format="1">
  <advance width="1185"/>
  <unicode hex="0173"/>
  <outline>
    <component base="LtnSmU"/>
    <component base="CombOgonek" xOffset="1561"/>
    <contour>
      <point x="850" y="-500" type="move" name="L"/>
    </contour>
    <contour>
      <point x="820" y="1100" type="move" name="U"/>
    </contour>
  </outline>
</glyph>
<glyph name="LtnCapWCircum" format="1">
  <advance width="2115"/>
  <unicode hex="0174"/>
  <outline>
    <component base="LtnCapW"/>
    <component base="CombCircum" xOffset="1704" yOffset="430"/>
    <contour>
      <point x="967" y="-100" type="move" name="L"/>
    </contour>
    <contour>
      <point x="1465" y="2065" type="move" name="U"/>
    </contour>
  </outline>
</glyph>
<glyph name="LtnSmWCircum" format="1">
  <advance width="1620"/>
  <unicode hex="0175"/>
  <outline>
    <component base="LtnSmW"/>
    <component base="CombCircum" xOffset="1330"/>
    <contour>
      <point x="700" y="-100" type="move" name="L"/>
    </contour>
    <contour>
      <point x="1091" y="1635" type="move" name="U"/>
    </contour>
  </outline>
</glyph>
<glyph name="LtnCapYCircum" format="1">
  <advance width="1344"/>
  <unicode hex="0176"/>
  <outline>
    <component base="LtnCapY"/>
    <component base="CombCircum" xOffset="1324" yOffset="430"/>
    <contour>
      <point x="587" y="-100" type="move" name="L"/>
    </contour>
    <contour>
      <point x="1085" y="2065" type="move" name="U"/>
    </contour>
  </outline>
</glyph>
<glyph name="LtnSmYCircum" format="1">
  <advance width="1041"/>
  <unicode hex="0177"/>
  <outline>
    <component base="LtnSmY"/>
    <component base="CombCircum" xOffset="970"/>
    <contour>
      <point x="810" y="-100" type="move" name="L"/>
    </contour>
    <contour>
      <point x="1325" y="1000" type="move" name="R"/>
    </contour>
    <contour>
      <point x="731" y="1635" type="move" name="U"/>
    </contour>
  </outline>
</glyph>
